{
.appVersion = "1346";
DisplayStrings = (
"HOV/space n´eépk¨aä%#\012/twoinferior/threeinferior/ring ¸/alef-hb/qamatsqatan-hb/alefqamats-hb/dagesh-hb/hedagesh-hb/tbar/Pe-cy/Pedescender-cy",
"H´n/twoinferior/two.numerator ¨",
HSsa
);
classes = (
{
code = "zero one two three four five six seven eight nine parenleft parenright";
name = standard;
},
{
code = "zerosuperior onesuperior twosuperior threesuperior foursuperior fivesuperior sixsuperior sevensuperior eightsuperior ninesuperior parenleftsuperior parenrightsuperior";
name = sups;
},
{
code = "zeroinferior oneinferior twoinferior threeinferior fourinferior fiveinferior sixinferior seveninferior eightinferior nineinferior parenleftinferior parenrightinferior";
name = subs;
},
{
code = "zero.numerator one.numerator two.numerator three.numerator four.numerator five.numerator six.numerator seven.numerator eight.numerator nine.numerator parenleft.numerator parenright.numerator";
name = numerator;
},
{
code = "zero.denominator one.denominator two.denominator three.denominator four.denominator five.denominator six.denominator seven.denominator eight.denominator nine.denominator parenleft.denominator parenright.denominator";
name = denominator;
},
{
code = "zero.otlf one.otlf two.otlf three.otlf four.otlf five.otlf six.otlf seven.otlf eight.otlf nine.otlf parenleft.otlf parenright.otlf";
name = tnum1;
},
{
code = "alef-hb bet-hb gimel-hb dalet-hb he-hb vav-hb zayin-hb het-hb tet-hb yod-hb finalkaf-hb kaf-hb lamed-hb finalmem-hb mem-hb finalnun-hb nun-hb samekh-hb ayin-hb finalpe-hb pe-hb finaltsadi-hb tsadi-hb qof-hb resh-hb shin-hb tav-hb ";
name = HebrewLetters;
}
);
copyright = "Copyright 2020, NaN, The Rubik Project Authors (https://github.com/googlefonts/rubik)";
customParameters = (
{
name = license;
value = "This Font Software is licensed under the SIL Open Font License, Version 1.1. This license is available with a FAQ at: http://scripts.sil.org/OFL";
},
{
name = licenseURL;
value = "http://scripts.sil.org/OFL";

glyphs = (
{
color = 1;
glyphname = A;
layers = (
{
anchors = (
{
name = bottom;
position = "{378, 0}";
},
{
name = ogonek;
position = "{679, 10}";
},
{
name = top;
position = "{378, 700}";
}
);
background = {
anchors = (
{
name = bottom;
position = "{378, 0}";
},
{
name = ogonek;
position = "{679, 10}";
},
{
name = top;
position = "{378, 700}";
}
);
paths = (
{
closed = 1;
nodes = (
"207 0 LINE SMOOTH",
"233 0 OFFCURVE",
"242 14 OFFCURVE",
"246 25 CURVE SMOOTH",
"270 91 LINE",
"485 91 LINE",
"509 25 LINE SMOOTH",
"513 14 OFFCURVE",
"522 0 OFFCURVE",
"548 0 CURVE SMOOTH",
"733 0 LINE SMOOTH",
"745 0 OFFCURVE",
"755 10 OFFCURVE",
"755 22 CURVE SMOOTH",
"755 24 OFFCURVE",
"755 26 OFFCURVE",
"754 29 CURVE SMOOTH",
"531 667 LINE",
"527 682 OFFCURVE",
"513 700 OFFCURVE",
"486 700 CURVE SMOOTH",
"269 700 LINE SMOOTH",
"242 700 OFFCURVE",
"228 682 OFFCURVE",
"224 667 CURVE",
"1 29 LINE SMOOTH",
"0 26 OFFCURVE",
"0 24 OFFCURVE",
"0 22 CURVE SMOOTH",
"0 10 OFFCURVE",
"10 0 OFFCURVE",
"22 0 CURVE SMOOTH"
);
},
{
closed = 1;
nodes = (
"377 472 LINE",
"434 286 LINE",
"321 286 LINE"
);
}
);
};
layerId = "EC64484B-0978-4CB1-9EE9-C40A2D8C4059";
paths = (
{
closed = 1;
nodes = (
"55.457 -14 LINE",
"88.915 20 LINE",
"114.5 -12 LINE",
"140.085 20 LINE",
"173.543 -19 LINE",
"207 20 LINE",
"247.546 18.159 LINE",
"236.227 57.136 LINE",
"275.674 63.03 LINE",
"249.409 93.045 LINE",
"281.752 73.933 LINE",
"287.869 111 LINE",
"309.779 91 LINE",
"331.689 111 LINE",
"363.557 86 LINE",
"395.426 111 LINE",
"427.295 91 LINE",
"459.164 111 LINE",
"474.74 81.902 LINE",
"504.273 96.636 LINE",
"491.623 53.01 LINE",
"529.619 28.119 LINE",
"567.816 -0.817 LINE",
"610.979 20 LINE",
"634.596 -7 LINE",
"658.213 20 LINE",
"697.895 -11.475 LINE",
"735 23 LINE",
"752.013 71.31 LINE",
"708.609 98.503 LINE",
"716.558 139.408 LINE",
"684.858 166.456 LINE",
"696.389 200.141 LINE",
"666.385 219.308 LINE",
"674.333 260.213 LINE",
"642.633 287.26 LINE",
"664.64 318.252 LINE",
"628.118 328.787 LINE",
"642.482 363.462 LINE",
"609.645 381.639 LINE",
"625.987 410.651 LINE",
"595.13 423.166 LINE",
"604.307 466.619 LINE",
"570.059 494.893 LINE",
"581.022 524.143 LINE",
"554.225 540.195 LINE",
"567.735 568.218 LINE",
"539.71 581.722 LINE",
"561.818 627.577 LINE",
"515.959 649.675 LINE",
"495.411 685.557 LINE",
"454.436 680 LINE",
"434.709 709 LINE",
"414.982 680 LINE",
"375.527 703 LINE",
"336.073 680 LINE",
"295.348 705.687 LINE",
"256.381 677.403 LINE",
"215.737 656.497 LINE",
"225.846 611.923 LINE",
"193.771 580.771 LINE",
"199.456 536.42 LINE",
"171.146 525.133 LINE",
"186.26 498.669 LINE",
"145.496 479.026 LINE",
"165.148 438.266 LINE",
"123.156 421.171 LINE",
"145.355 381.639 LINE",
"111.574 363.792 LINE",
"126.882 328.787 LINE",
"81.113 313.012 LINE",
"107.089 272.16 LINE",
"79.348 256.438 LINE",
"91.254 226.858 LINE",
"42.563 205.75 LINE",
"67.503 158.905 LINE",
"28.15 149.36 LINE",
"52.988 117.379 LINE",
"13.351 110.051 LINE",
"39.793 79.627 LINE",
"5.306 59.259 LINE",
"20 22 LINE"
);
},
{
closed = 1;
nodes = (
"311.442 281.388 LINE",
"305.429 303.857 LINE",
"328.03 317.688 LINE",
"316.857 341.714 LINE",
"340.866 355.12 LINE",
"328.286 379.571 LINE",
"343.382 395.668 LINE",
"339.714 417.429 LINE",
"357.156 432.817 LINE",
"351.143 455.286 LINE",
"372.366 456.743 LINE",
"373.2 478 LINE",
"380.53 458.845 LINE",
"400.643 462.857 LINE",
"392.861 439.763 LINE",
"412.25 425 LINE",
"402.125 401.188 LINE",
"423.857 387.143 LINE",
"415.138 363.762 LINE",
"435.464 349.286 LINE",
"422.997 324.755 LINE",
"447.071 311.429 LINE",
"439.289 288.335 LINE",
"458.679 273.571 LINE",
"438.364 291.482 LINE",
"429.19 266 LINE",
"409.31 279.23 LINE",
"389.429 266 LINE",
"369.548 280.7 LINE",
"349.667 266 LINE",
"329.786 276.78 LINE",
"309.905 266 LINE"
);
},
{
closed = 1;
nodes = (
"279.461 247.967 LINE",
"267.59 237.62 LINE",
"259.008 252.546 LINE",
"266.87 267.095 LINE",
"281.456 260.388 LINE"
);
},
{
closed = 1;
nodes = (
"522.703 577.419 LINE",
"518.299 566.52 LINE",
"506.572 567.34 LINE",
"501.874 579.495 LINE",
"513.837 586.971 LINE"
);
},
{
closed = 1;
nodes = (
"173.615 133.278 LINE",
"144.257 125.076 LINE",
"129.436 141.176 LINE",
"136.729 160.429 LINE",
"156.497 157.075 LINE"
);
},
{
closed = 1;
nodes = (
"371.933 143.903 LINE",
"365.099 134.202 LINE",
"354.254 140.152 LINE",
"356.418 151.138 LINE",
"367.226 154.063 LINE"
);
},
{
closed = 1;
nodes = (
"465.737 499.317 LINE",
"417.605 493.907 LINE",
"395.005 527.593 LINE",
"415.843 570.034 LINE",
"467.5 553.958 LINE"
);
},
{
closed = 1;
nodes = (
"304.76 463.713 LINE",
"295.777 449.093 LINE",
"283.951 461.526 LINE",
"281.956 479.377 LINE",
"303.5 482.454 LINE"
);
},
{
closed = 1;
nodes = (
"587.811 114.471 LINE",
"572.92 111.033 LINE",
"560.068 124.569 LINE",
"575.076 135.667 LINE",
"596 133.816 LINE"
);
},
{
closed = 1;
nodes = (
"606.156 279.086 LINE",
"573.996 275.683 LINE",
"583.419 307.184 LINE",
"604.961 313.303 LINE",
"627.983 296.977 LINE"
);
},
{
closed = 1;
nodes = (
"352.343 588.011 LINE",
"319.428 576.684 LINE",
"321.93 610.871 LINE",
"340 627 LINE",
"374.238 616.125 LINE"
);
},
{
closed = 1;
nodes = (
"544.659 357.129 LINE",
"517.467 319.653 LINE",
"483.512 347.916 LINE",
"479.068 391.87 LINE",
"530.603 404.243 LINE"
);
},
{
closed = 1;
nodes = (
"293.564 300.176 LINE",
"277.872 294.038 LINE",
"262.272 297.748 LINE",
"268.471 313.811 LINE",
"286.271 319.429 LINE"
);
},
{
closed = 1;
nodes = (
"200.725 39.224 LINE",
"176.82 51.244 LINE",
"172.775 77.695 LINE",
"199.798 83.923 LINE",
"217 63 LINE"
);
}
);
width = 755;
},
{
anchors = (
{
name = bottom;
position = "{378, 0}";
},
{
name = ogonek;
position = "{679, 10}";
},
{
name = top;
position = "{378, 700}";
}
);
associatedMasterId = "EC64484B-0978-4CB1-9EE9-C40A2D8C4059";
background = {
anchors = (
{
name = bottom;
position = "{378, 0}";
},
{
name = ogonek;
position = "{679, 10}";
},
{
name = top;
position = "{378, 700}";
}
);
paths = (
{
closed = 1;
nodes = (
"207 0 LINE SMOOTH",
"233 0 OFFCURVE",
"242 14 OFFCURVE",
"246 25 CURVE SMOOTH",
"270 91 LINE",
"485 91 LINE",
"509 25 LINE SMOOTH",
"513 14 OFFCURVE",
"522 0 OFFCURVE",
"548 0 CURVE SMOOTH",
"733 0 LINE SMOOTH",
"745 0 OFFCURVE",
"755 10 OFFCURVE",
"755 22 CURVE SMOOTH",
"755 24 OFFCURVE",
"755 26 OFFCURVE",
"754 29 CURVE SMOOTH",
"531 667 LINE",
"527 682 OFFCURVE",
"513 700 OFFCURVE",
"486 700 CURVE SMOOTH",
"269 700 LINE SMOOTH",
"242 700 OFFCURVE",
"228 682 OFFCURVE",
"224 667 CURVE",
"1 29 LINE SMOOTH",
"0 26 OFFCURVE",
"0 24 OFFCURVE",
"0 22 CURVE SMOOTH",
"0 10 OFFCURVE",
"10 0 OFFCURVE",
"22 0 CURVE SMOOTH"
);
},
{
closed = 1;
nodes = (
"377 472 LINE",
"434 286 LINE",
"321 286 LINE"
);
}
);
};
layerId = "1DECC8D2-EF0A-46A9-9FC3-574CE12203C1";
name = "Dec 6 20, 14:56";
paths = (
{
closed = 1;
nodes = (
"207 0 LINE SMOOTH",
"233 0 OFFCURVE",
"242 14 OFFCURVE",
"246 25 CURVE SMOOTH",
"270 91 LINE",
"485 91 LINE",
"509 25 LINE SMOOTH",
"513 14 OFFCURVE",
"522 0 OFFCURVE",
"548 0 CURVE SMOOTH",
"733 0 LINE SMOOTH",
"745 0 OFFCURVE",
"755 10 OFFCURVE",
"755 22 CURVE SMOOTH",
"755 24 OFFCURVE",
"755 26 OFFCURVE",
"754 29 CURVE SMOOTH",
"531 667 LINE",
"527 682 OFFCURVE",
"513 700 OFFCURVE",
"486 700 CURVE SMOOTH",
"269 700 LINE SMOOTH",
"242 700 OFFCURVE",
"228 682 OFFCURVE",
"224 667 CURVE",
"1 29 LINE SMOOTH",
"0 26 OFFCURVE",
"0 24 OFFCURVE",
"0 22 CURVE SMOOTH",
"0 10 OFFCURVE",
"10 0 OFFCURVE",
"22 0 CURVE SMOOTH"
);
},
{
closed = 1;
nodes = (
"377 472 LINE",
"434 286 LINE",
"321 286 LINE"
);
}
);
width = 755;
}
);
leftKerningGroup = A;
rightKerningGroup = A;
unicode = 0041;
userData = {
com.typemytype.robofont.guides = (
{
angle = 0;
isGlobal = 0;
magnetic = 5;
x = 0;
y = 680;
},
{
angle = 90;
isGlobal = 0;
magnetic = 5;
x = 35;
y = 0;
},
{
angle = 90;
isGlobal = 0;
magnetic = 5;
x = 637;
y = 0;
},
{
angle = 90;
isGlobal = 0;
magnetic = 5;
x = 336;
y = 0;
}
);
};
},
{
color = 1;
glyphname = Aogonek;
layers = (
{
background = {
paths = (
{
closed = 1;
nodes = (
"718 -220 LINE SMOOTH",
"733 -220 OFFCURVE",
"745 -208 OFFCURVE",
"745 -193 CURVE SMOOTH",
"745 -125 LINE SMOOTH",
"745 -110 OFFCURVE",
"733 -98 OFFCURVE",
"718 -98 CURVE SMOOTH",
"708 -98 LINE SMOOTH",
"669 -98 OFFCURVE",
"658 -70 OFFCURVE",
"658 -49 CURVE SMOOTH",
"658 -29 OFFCURVE",
"668 -2 OFFCURVE",
"702 0 CURVE",
"733 0 LINE SMOOTH",
"745 0 OFFCURVE",
"755 10 OFFCURVE",
"755 22 CURVE SMOOTH",
"755 24 OFFCURVE",
"755 26 OFFCURVE",
"754 29 CURVE SMOOTH",
"531 667 LINE",
"527 682 OFFCURVE",
"513 700 OFFCURVE",
"486 700 CURVE SMOOTH",
"269 700 LINE SMOOTH",
"242 700 OFFCURVE",
"228 682 OFFCURVE",
"224 667 CURVE",
"1 29 LINE SMOOTH",
"0 26 OFFCURVE",
"0 24 OFFCURVE",
"0 22 CURVE SMOOTH",
"0 10 OFFCURVE",
"10 0 OFFCURVE",
"22 0 CURVE SMOOTH",
"207 0 LINE SMOOTH",
"233 0 OFFCURVE",
"242 14 OFFCURVE",
"246 25 CURVE SMOOTH",
"270 91 LINE",
"485 91 LINE",
"509 25 LINE SMOOTH",
"512 15 OFFCURVE",
"519 3 OFFCURVE",
"537 0 CURVE",
"534 -15 OFFCURVE",
"532 -31 OFFCURVE",
"532 -49 CURVE SMOOTH",
"532 -144 OFFCURVE",
"583 -220 OFFCURVE",
"704 -220 CURVE SMOOTH"
);
},
{
closed = 1;
nodes = (
"377 472 LINE",
"434 286 LINE",
"321 286 LINE"
);
}
);
};
hints = (
{
horizontal = 1;
place = "{-2147483648, 0}";
type = Tag;
name = hr01;
}
);
layerId = "EC64484B-0978-4CB1-9EE9-C40A2D8C4059";
paths = (
{
closed = 1;
nodes = (
"726.505 -189.703 LINE",
"725 -165 LINE",
"764 -145 LINE",
"725 -125 LINE",
"699.075 -94.155 LINE",
"659.343 -100.85 LINE",
"683.827 -55.929 LINE",
"640.564 -28.621 LINE",
"695.228 -34.698 LINE",
"701 20 LINE",
"731.516 -5.332 LINE",
"731.041 34.325 LINE",
"757.392 71.072 LINE",
"713.888 83.402 LINE",
"736.564 133.692 LINE",
"687.497 158.905 LINE",
"693.841 201.368 LINE",
"662.426 230.633 LINE",
"686.798 273.043 LINE",
"641.314 291.036 LINE",
"665.868 320.8 LINE",
"628.118 328.787 LINE",
"646.065 356.242 LINE",
"614.923 366.538 LINE",
"638.158 400.078 LINE",
"599.089 411.84 LINE",
"620.628 453.26 LINE",
"577.976 472.243 LINE",
"600.744 516.21 LINE",
"555.544 536.42 LINE",
"576.516 573.405 LINE",
"537.071 589.272 LINE",
"560.022 620.594 LINE",
"522.556 630.799 LINE",
"547.626 664.962 LINE",
"505.888 672.28 LINE",
"479.7 702.914 LINE",
"446.545 680 LINE",
"411.036 704 LINE",
"375.527 680 LINE",
"345.936 706 LINE",
"316.345 680 LINE",
"282.41 705.556 LINE",
"252.625 675.265 LINE",
"215.749 649.018 LINE",
"223.207 604.373 LINE",
"186.402 596.056 LINE",
"210.012 566.621 LINE",
"171.704 541.884 LINE",
"186.26 498.669 LINE",
"145.303 487.566 LINE",
"170.426 453.367 LINE",
"135.986 433.632 LINE",
"150.633 396.74 LINE",
"116.944 385.215 LINE",
"136.118 355.213 LINE",
"107.809 343.926 LINE",
"122.923 317.462 LINE",
"91.69 300.842 LINE",
"105.769 268.385 LINE",
"70.578 240.44 LINE",
"80.698 196.657 LINE",
"44.461 183.905 LINE",
"64.864 151.355 LINE",
"27.876 130.393 LINE",
"43.751 90.953 LINE",
"-4.28 71.732 LINE",
"21.32 26.775 LINE",
"39.045 -4.286 LINE",
"65.298 20 LINE",
"94.819 -4 LINE",
"124.34 20 LINE",
"145.989 -8 LINE",
"167.638 20 LINE",
"201.628 -13.687 LINE",
"225.274 27.919 LINE",
"254.114 48.134 LINE",
"245.455 82.273 LINE",
"289.184 63.478 LINE",
"291.852 111 LINE",
"331.689 73 LINE",
"371.525 111 LINE",
"395.426 82 LINE",
"419.328 111 LINE",
"441.238 89 LINE",
"463.148 111 LINE",
"473.498 70.846 LINE",
"514.818 67.364 LINE",
"502.06 13.971 LINE",
"554.875 -1 LINE",
"526.717 -32.072 LINE",
"552.522 -65.124 LINE",
"534.163 -88.622 LINE",
"559.196 -104.825 LINE",
"549.479 -133.708 LINE",
"577.838 -144.865 LINE",
"575.462 -182.449 LINE",
"612.832 -177.794 LINE",
"639.867 -220.207 LINE",
"685.627 -199.332 LINE"
);
},
{
closed = 1;
nodes = (
"312.38 281.105 LINE",
"305.429 303.857 LINE",
"320.994 319.812 LINE",
"316.857 341.714 LINE",
"333.83 357.244 LINE",
"328.286 379.571 LINE",
"350.418 393.544 LINE",
"339.714 417.429 LINE",
"355.279 433.383 LINE",
"351.143 455.286 LINE",
"372.717 456.402 LINE",
"373.2 478 LINE",
"381.713 460.99 LINE",
"400.643 462.857 LINE",
"389.113 438.614 LINE",
"412.25 425 LINE",
"404.468 401.906 LINE",
"423.857 387.143 LINE",
"412.796 363.043 LINE",
"435.464 349.286 LINE",
"426.745 325.904 LINE",
"447.071 311.429 LINE",
"442.1 289.196 LINE",
"458.679 273.571 LINE",
"437.667 294.194 LINE",
"429.19 266 LINE",
"409.31 279.23 LINE",
"389.429 266 LINE",
"369.548 290.5 LINE",
"349.667 266 LINE",
"329.786 280.21 LINE",
"309.905 266 LINE"
);
},
{
closed = 1;
nodes = (
"567.995 244.459 LINE",
"551.619 197.185 LINE",
"509.149 225.498 LINE",
"506.652 267.869 LINE",
"551 285.657 LINE"
);
},
{
closed = 1;
nodes = (
"196.539 119.735 LINE",
"167.074 111.253 LINE",
"156.403 147.362 LINE",
"188.604 157.944 LINE",
"217.079 142.5 LINE"
);
},
{
closed = 1;
nodes = (
"301 322.947 LINE",
"274.61 324.908 LINE",
"272.643 349.728 LINE",
"291.672 357.912 LINE",
"311.519 346.574 LINE"
);
},
{
closed = 1;
nodes = (
"435.33 162.047 LINE",
"388.215 133.007 LINE",
"356.486 168.059 LINE",
"369.498 205.851 LINE",
"415.48 213.14 LINE"
);
},
{
closed = 1;
nodes = (
"220.708 201.587 LINE",
"210.528 208.298 LINE",
"207.292 220.053 LINE",
"221.017 225.364 LINE",
"227 213 LINE"
);
},
{
closed = 1;
nodes = (
"452.64 543.06 LINE",
"397.974 532.75 LINE",
"383.277 586.403 LINE",
"420.466 640.842 LINE",
"498.248 605.594 LINE"
);
},
{
closed = 1;
nodes = (
"253.695 397.775 LINE",
"219.015 390.493 LINE",
"200.958 430.361 LINE",
"239 454 LINE",
"282.749 432.215 LINE"
);
},
{
closed = 1;
nodes = (
"375.698 659.29 LINE",
"367.086 666.803 LINE",
"375.925 667.304 LINE"
);
},
{
closed = 1;
nodes = (
"123.216 139.554 LINE",
"110.616 133.007 LINE",
"102.349 141.519 LINE",
"106.526 150.632 LINE",
"115.925 150.304 LINE"
);
},
{
closed = 1;
nodes = (
"222.569 314.967 LINE",
"203.821 297.095 LINE",
"188.461 317.951 LINE",
"192.609 344.286 LINE",
"216.497 334.075 LINE"
);
},
{
closed = 1;
nodes = (
"284.641 594.087 LINE",
"273.244 594.936 LINE",
"266.167 603.91 LINE",
"275.608 611.903 LINE",
"288.684 607.699 LINE"
);
},
{
closed = 1;
nodes = (
"593.308 140.926 LINE",
"569.615 117.114 LINE",
"548.59 139.185 LINE",
"549.286 167.377 LINE",
"582.966 173.572 LINE"
);
},
{
closed = 1;
nodes = (
"312.225 474.598 LINE",
"300.451 476.077 LINE",
"299.775 488.991 LINE",
"311.071 490.727 LINE",
"317.988 483.471 LINE"
);
},
{
closed = 1;
nodes = (
"658.984 187.058 LINE",
"638.891 163.968 LINE",
"611.274 174.02 LINE",
"616.24 200.313 LINE",
"640.893 212.432 LINE"
);
}
);
width = 755;
},
{
associatedMasterId = "EC64484B-0978-4CB1-9EE9-C40A2D8C4059";
background = {
paths = (
{
closed = 1;
nodes = (
"718 -220 LINE SMOOTH",
"733 -220 OFFCURVE",
"745 -208 OFFCURVE",
"745 -193 CURVE SMOOTH",
"745 -125 LINE SMOOTH",
"745 -110 OFFCURVE",
"733 -98 OFFCURVE",
"718 -98 CURVE SMOOTH",
"708 -98 LINE SMOOTH",
"669 -98 OFFCURVE",
"658 -70 OFFCURVE",
"658 -49 CURVE SMOOTH",
"658 -29 OFFCURVE",
"668 -2 OFFCURVE",
"702 0 CURVE",
"733 0 LINE SMOOTH",
"745 0 OFFCURVE",
"755 10 OFFCURVE",
"755 22 CURVE SMOOTH",
"755 24 OFFCURVE",
"755 26 OFFCURVE",
"754 29 CURVE SMOOTH",
"531 667 LINE",
"527 682 OFFCURVE",
"513 700 OFFCURVE",
"486 700 CURVE SMOOTH",
"269 700 LINE SMOOTH",
"242 700 OFFCURVE",
"228 682 OFFCURVE",
"224 667 CURVE",
"1 29 LINE SMOOTH",
"0 26 OFFCURVE",
"0 24 OFFCURVE",
"0 22 CURVE SMOOTH",
"0 10 OFFCURVE",
"10 0 OFFCURVE",
"22 0 CURVE SMOOTH",
"207 0 LINE SMOOTH",
"233 0 OFFCURVE",
"242 14 OFFCURVE",
"246 25 CURVE SMOOTH",
"270 91 LINE",
"485 91 LINE",
"509 25 LINE SMOOTH",
"512 15 OFFCURVE",
"519 3 OFFCURVE",
"537 0 CURVE",
"534 -15 OFFCURVE",
"532 -31 OFFCURVE",
"532 -49 CURVE SMOOTH",
"532 -144 OFFCURVE",
"583 -220 OFFCURVE",
"704 -220 CURVE SMOOTH"
);
},
{
closed = 1;
nodes = (
"377 472 LINE",
"434 286 LINE",
"321 286 LINE"
);
}
);
};
hints = (
{
horizontal = 1;
place = "{-2147483648, 0}";
type = Tag;
name = hr01;
}
);
layerId = "38F067CF-3312-4E22-A004-F69D456C1EA8";
name = "Dec 6 20, 14:56";
paths = (
{
closed = 1;
nodes = (
"718 -220 LINE SMOOTH",
"733 -220 OFFCURVE",
"745 -208 OFFCURVE",
"745 -193 CURVE SMOOTH",
"745 -125 LINE SMOOTH",
"745 -110 OFFCURVE",
"733 -98 OFFCURVE",
"718 -98 CURVE SMOOTH",
"708 -98 LINE SMOOTH",
"669 -98 OFFCURVE",
"658 -70 OFFCURVE",
"658 -49 CURVE SMOOTH",
"658 -29 OFFCURVE",
"668 -2 OFFCURVE",
"702 0 CURVE",
"733 0 LINE SMOOTH",
"745 0 OFFCURVE",
"755 10 OFFCURVE",
"755 22 CURVE SMOOTH",
"755 24 OFFCURVE",
"755 26 OFFCURVE",
"754 29 CURVE SMOOTH",
"531 667 LINE",
"527 682 OFFCURVE",
"513 700 OFFCURVE",
"486 700 CURVE SMOOTH",
"269 700 LINE SMOOTH",
"242 700 OFFCURVE",
"228 682 OFFCURVE",
"224 667 CURVE",
"1 29 LINE SMOOTH",
"0 26 OFFCURVE",
"0 24 OFFCURVE",
"0 22 CURVE SMOOTH",
"0 10 OFFCURVE",
"10 0 OFFCURVE",
"22 0 CURVE SMOOTH",
"207 0 LINE SMOOTH",
"233 0 OFFCURVE",
"242 14 OFFCURVE",
"246 25 CURVE SMOOTH",
"270 91 LINE",
"485 91 LINE",
"509 25 LINE SMOOTH",
"512 15 OFFCURVE",
"519 3 OFFCURVE",
"537 0 CURVE",
"534 -15 OFFCURVE",
"532 -31 OFFCURVE",
"532 -49 CURVE SMOOTH",
"532 -144 OFFCURVE",
"583 -220 OFFCURVE",
"704 -220 CURVE SMOOTH"
);
},
{
closed = 1;
nodes = (
"377 472 LINE",
"434 286 LINE",
"321 286 LINE"
);
}
);
width = 755;
}
);
leftKerningGroup = A;
rightKerningGroup = A;
unicode = 0104;
},
{
color = 1;
glyphname = AE;
layers = (
{
anchors = (
{
name = bottom;
position = "{503, 0}";
},
{
name = top;
position = "{503, 700}";
}
);
background = {
anchors = (
{
name = bottom;
position = "{503, 0}";
},
{
name = top;
position = "{503, 700}";
}
);
paths = (
{
closed = 1;
nodes = (
"211 0 LINE SMOOTH",
"237 0 OFFCURVE",
"246 14 OFFCURVE",
"250 25 CURVE SMOOTH",
"258 47 OFFCURVE",
"266 69 OFFCURVE",
"274 91 CURVE",
"423 91 LINE",
"423 27 LINE SMOOTH",
"423 12 OFFCURVE",
"435 0 OFFCURVE",
"450 0 CURVE SMOOTH",
"941 0 LINE SMOOTH",
"956 0 OFFCURVE",
"968 12 OFFCURVE",
"968 27 CURVE SMOOTH",
"968 168 LINE SMOOTH",
"968 183 OFFCURVE",
"956 195 OFFCURVE",
"941 195 CURVE SMOOTH",
"663 195 LINE",
"663 258 LINE",
"911 258 LINE SMOOTH",
"926 258 OFFCURVE",
"938 270 OFFCURVE",
"938 285 CURVE SMOOTH",
"938 415 LINE SMOOTH",
"938 430 OFFCURVE",
"926 442 OFFCURVE",
"911 442 CURVE SMOOTH",
"663 442 LINE",
"663 505 LINE",
"933 505 LINE SMOOTH",
"948 505 OFFCURVE",
"960 517 OFFCURVE",
"960 532 CURVE SMOOTH",
"960 673 LINE SMOOTH",
"960 688 OFFCURVE",
"948 700 OFFCURVE",
"933 700 CURVE SMOOTH",
"273 700 LINE SMOOTH",
"246 700 OFFCURVE",
"232 682 OFFCURVE",
"228 667 CURVE",
"154 454 OFFCURVE",
"79 242 OFFCURVE",
"5 29 CURVE SMOOTH",
"4 26 OFFCURVE",
"4 24 OFFCURVE",
"4 22 CURVE SMOOTH",
"4 10 OFFCURVE",
"14 0 OFFCURVE",
"26 0 CURVE SMOOTH"
);
},
{
closed = 1;
nodes = (
"391 505 LINE",
"423 505 LINE",
"423 286 LINE",
"325 286 LINE"
);
}
);
};
layerId = "EC64484B-0978-4CB1-9EE9-C40A2D8C4059";
paths = (
{
closed = 1;
nodes = (
"65.362 -13 LINE",
"104.723 20 LINE",
"126.372 -12 LINE",
"148.021 20 LINE",
"177.543 -6 LINE",
"207.064 20 LINE",
"258.37 34.104 LINE",
"251.302 86.842 LINE",
"295.793 66.151 LINE",
"315.696 111 LINE",
"357.467 83 LINE",
"399.239 111 LINE",
"405.251 70.066 LINE",
"443 87 LINE",
"408 61 LINE",
"443 35 LINE",
"460.369 8.45 LINE",
"489.919 20 LINE",
"515.866 0 LINE",
"541.813 20 LINE",
"579.736 -2 LINE",
"617.659 20 LINE",
"649.593 -2 LINE",
"681.528 20 LINE",
"705.48 -13 LINE",
"729.431 20 LINE",
"757.374 -14 LINE",
"785.317 20 LINE",
"827.232 -9 LINE",
"869.146 20 LINE",
"908.069 0.99 LINE",
"945.967 21.968 LINE",
"975.947 40.647 LINE",
"948 62.25 LINE",
"986 95.542 LINE",
"948 128.833 LINE",
"952.232 159.691 LINE",
"925.107 175 LINE",
"895.307 192.5 LINE",
"865.507 175 LINE",
"833.72 189.7 LINE",
"801.933 175 LINE",
"772.133 193.9 LINE",
"742.333 175 LINE",
"720.48 192.5 LINE",
"698.627 175 LINE",
"672.305 197.928 LINE",
"643 178.962 LINE",
"663 220.558 LINE",
"643 262.154 LINE",
"671.389 256.783 LINE",
"691 278 LINE",
"725 261.9 LINE",
"759 278 LINE",
"787 257.7 LINE",
"815 278 LINE",
"841 259.1 LINE",
"867 278 LINE",
"887 262.6 LINE",
"907 278 LINE",
"938.102 304.545 LINE",
"918 340.152 LINE",
"939 371.667 LINE",
"918 403.182 LINE",
"902.955 427.34 LINE",
"875 422 LINE",
"843 443.7 LINE",
"811 422 LINE",
"773 440.9 LINE",
"735 422 LINE",
"693 442.3 LINE",
"651 422 LINE",
"680.597 452.969 LINE",
"643 473.5 LINE",
"677 497.269 LINE",
"643 521.038 LINE",
"681.877 501.349 LINE",
"718.479 525 LINE",
"744.301 509.6 LINE",
"770.123 525 LINE",
"811.836 499.1 LINE",
"853.548 525 LINE",
"889.301 501.2 LINE",
"925.055 525 LINE",
"957.982 537.121 LINE",
"940 567.25 LINE",
"964 598.583 LINE",
"940 629.917 LINE",
"931.546 663.56 LINE",
"901 680 LINE",
"867 709 LINE",
"833 680 LINE",
"809 706 LINE",
"785 680 LINE",
"749 707 LINE",
"713 680 LINE",
"677 710 LINE",
"641 680 LINE",
"609 707 LINE",
"577 680 LINE",
"545 703 LINE",
"513 680 LINE",
"473 701 LINE",
"433 680 LINE",
"397 716 LINE",
"361 680 LINE",
"329 700 LINE",
"297 680 LINE",
"255.896 672.237 LINE",
"237.832 634.507 LINE",
"200.957 619.745 LINE",
"220.768 585.319 LINE",
"183.413 560.163 LINE",
"197.052 517.242 LINE",
"162.205 493.378 LINE",
"174.546 452.986 LINE",
"130.89 434.394 LINE",
"153.257 392.546 LINE",
"107.528 371.154 LINE",
"129.692 325.793 LINE",
"88.199 304.023 LINE",
"107.132 261.161 LINE",
"60.536 236.908 LINE",
"81.918 188.926 LINE",
"35.143 173.265 LINE",
"62.012 131.898 LINE",
"29.502 117.655 LINE",
"46.087 86.276 LINE",
"13.296 74.264 LINE",
"31.489 44.455 LINE"
);
},
{
closed = 1;
nodes = (
"320.626 279.957 LINE",
"309.471 304.088 LINE",
"330.689 318.469 LINE",
"320.941 342.176 LINE",
"344.506 355.851 LINE",
"332.412 380.265 LINE",
"348 396.342 LINE",
"343.882 418.353 LINE",
"366.039 432.452 LINE",
"355.353 456.441 LINE",
"375.164 471.246 LINE",
"366.824 494.529 LINE",
"389.035 502.105 LINE",
"383.882 525 LINE",
"403.588 499.1 LINE",
"423.294 525 LINE",
"420.257 502.289 LINE",
"443 505.077 LINE",
"431.73 485.154 LINE",
"443 465.231 LINE",
"424.87 445.308 LINE",
"443 425.385 LINE",
"429.28 405.462 LINE",
"443 385.538 LINE",
"429.28 365.615 LINE",
"443 345.692 LINE",
"425.36 325.769 LINE",
"443 305.846 LINE",
"426.34 285.923 LINE",
"443 266 LINE",
"423.405 280 LINE",
"403.811 266 LINE",
"384.216 284.2 LINE",
"364.622 266 LINE",
"345.027 278.74 LINE",
"325.432 266 LINE"
);
},
{
closed = 1;
nodes = (
"238.762 135.065 LINE",
"231.698 127.024 LINE",
"220.801 132.879 LINE",
"224.572 144.66 LINE",
"235.769 144.632 LINE"
);
},
{
closed = 1;
nodes = (
"100.694 150.272 LINE",
"93.645 150.026 LINE",
"91.232 156.654 LINE",
"96.791 160.996 LINE",
"103.578 157.394 LINE"
);
},
{
closed = 1;
nodes = (
"801.992 574.546 LINE",
"791.205 567.31 LINE",
"779.881 568.849 LINE",
"778.756 583.004 LINE",
"792.42 584.397 LINE"
);
},
{
closed = 1;
nodes = (
"601.353 111.282 LINE",
"576.403 105.564 LINE",
"561.049 122.605 LINE",
"567.514 157.379 LINE",
"602.449 141.998 LINE"
);
},
{
closed = 1;
nodes = (
"261.355 200.026 LINE",
"253.075 198.696 LINE",
"253.302 206.71 LINE",
"264.729 206.929 LINE"
);
},
{
closed = 1;
nodes = (
"238.94 372.85 LINE",
"230.079 364.219 LINE",
"221.938 370.5 LINE",
"219.825 381.36 LINE",
"232.881 384.963 LINE"
);
},
{
closed = 1;
nodes = (
"197.84 270.42 LINE",
"163.855 267.277 LINE",
"151.395 296.515 LINE",
"172.268 325.669 LINE",
"205.761 306.028 LINE"
);
},
{
closed = 1;
nodes = (
"760.867 116.529 LINE",
"737.679 123.144 LINE",
"742.823 142.359 LINE",
"757.113 152.495 LINE",
"769.959 137.186 LINE"
);
},
{
closed = 1;
nodes = (
"494.522 195.039 LINE",
"473.875 160.298 LINE",
"429.122 181.405 LINE",
"447.176 223.403 LINE",
"481.605 222.74 LINE"
);
},
{
closed = 1;
nodes = (
"518.397 361.302 LINE",
"474.313 354.021 LINE",
"460.007 400.67 LINE",
"499 423 LINE",
"531.336 398.507 LINE"
);
},
{
closed = 1;
nodes = (
"583.918 442.568 LINE",
"579.168 418.161 LINE",
"552.651 426.279 LINE",
"555.144 449 LINE",
"572.534 457.629 LINE"
);
},
{
closed = 1;
nodes = (
"544.064 552.244 LINE",
"535.611 548.122 LINE",
"527.097 554.608 LINE",
"533.055 564.089 LINE",
"542.035 560.863 LINE"
);
},
{
closed = 1;
nodes = (
"272.641 237.087 LINE",
"259.836 235.288 LINE",
"256.137 246.563 LINE",
"264.026 251.932 LINE",
"275.786 250.26 LINE"
);
},
{
closed = 1;
nodes = (
"471.65 287.339 LINE",
"466.868 280.904 LINE",
"459.185 278.611 LINE",
"459.272 286.628 LINE",
"464.157 293.999 LINE"
);
},
{
closed = 1;
nodes = (
"402.368 127.596 LINE",
"386.5 126.742 LINE",
"379.306 140.911 LINE",
"391.746 149.934 LINE",
"402.135 142.067 LINE"
);
},
{
closed = 1;
nodes = (
"201.769 76.025 LINE",
"198.665 64.571 LINE",
"185.783 65.698 LINE",
"178.272 80.252 LINE",
"194.307 88.943 LINE"
);
},
{
closed = 1;
nodes = (
"248.314 316.18 LINE",
"235.929 312.124 LINE",
"229.089 324.462 LINE",
"238.519 335.761 LINE",
"249.746 327.848 LINE"
);
},
{
closed = 1;
nodes = (
"298.453 429.642 LINE",
"250.448 419.175 LINE",
"242.412 470.681 LINE",
"281.221 491.979 LINE",
"333.831 472.436 LINE"
);
},
{
closed = 1;
nodes = (
"803.905 358.821 LINE",
"783.949 339.564 LINE",
"749.856 343.489 LINE",
"757.113 380.026 LINE",
"789.55 385.854 LINE"
);
},
{
closed = 1;
nodes = (
"282.145 582.204 LINE",
"275.244 575.387 LINE",
"270.005 584.721 LINE",
"275.948 590.638 LINE",
"281.94 588.078 LINE"
);
},
{
closed = 1;
nodes = (
"598.383 607.137 LINE",
"577.5 609.01 LINE",
"563.481 626.574 LINE",
"582.596 644.874 LINE",
"606.925 631.762 LINE"
);
},
{
closed = 1;
nodes = (
"884.747 89.144 LINE",
"864.946 55.092 LINE",
"814.432 50.9 LINE",
"813.391 105.847 LINE",
"856.152 111.504 LINE"
);
},
{
closed = 1;
nodes = (
"729.181 577.633 LINE",
"706.042 582.104 LINE",
"708.124 601.071 LINE",
"721.072 612.873 LINE",
"739.614 600.007 LINE"
);
},
{
closed = 1;
nodes = (
"907 623 LINE",
"887.652 596.37 LINE",
"846.639 599.489 LINE",
"845.021 647.687 LINE",
"890.125 657.238 LINE"
);
},
{
closed = 1;
nodes = (
"469.193 68.053 LINE",
"456.301 63.316 LINE",
"446.156 77.227 LINE",
"459.395 89.772 LINE",
"471.712 80.164 LINE"
);
},
{
closed = 1;
nodes = (
"378.673 622.476 LINE",
"357.302 610.012 LINE",
"330.123 622.007 LINE",
"346.816 646.581 LINE",
"375.854 652.852 LINE"
);
}
);
width = 1005;
},
{
anchors = (
{
name = bottom;
position = "{503, 0}";
},
{
name = top;
position = "{503, 700}";
}
);
associatedMasterId = "EC64484B-0978-4CB1-9EE9-C40A2D8C4059";
background = {
anchors = (
{
name = bottom;
position = "{503, 0}";
},
{
name = top;
position = "{503, 700}";
}
);
paths = (
{
closed = 1;
nodes = (
"211 0 LINE SMOOTH",
"237 0 OFFCURVE",
"246 14 OFFCURVE",
"250 25 CURVE SMOOTH",
"258 47 OFFCURVE",
"266 69 OFFCURVE",
"274 91 CURVE",
"423 91 LINE",
"423 27 LINE SMOOTH",
"423 12 OFFCURVE",
"435 0 OFFCURVE",
"450 0 CURVE SMOOTH",
"941 0 LINE SMOOTH",
"956 0 OFFCURVE",
"968 12 OFFCURVE",
"968 27 CURVE SMOOTH",
"968 168 LINE SMOOTH",
"968 183 OFFCURVE",
"956 195 OFFCURVE",
"941 195 CURVE SMOOTH",
"663 195 LINE",
"663 258 LINE",
"911 258 LINE SMOOTH",
"926 258 OFFCURVE",
"938 270 OFFCURVE",
"938 285 CURVE SMOOTH",
"938 415 LINE SMOOTH",
"938 430 OFFCURVE",
"926 442 OFFCURVE",
"911 442 CURVE SMOOTH",
"663 442 LINE",
"663 505 LINE",
"933 505 LINE SMOOTH",
"948 505 OFFCURVE",
"960 517 OFFCURVE",
"960 532 CURVE SMOOTH",
"960 673 LINE SMOOTH",
"960 688 OFFCURVE",
"948 700 OFFCURVE",
"933 700 CURVE SMOOTH",
"273 700 LINE SMOOTH",
"246 700 OFFCURVE",
"232 682 OFFCURVE",
"228 667 CURVE",
"154 454 OFFCURVE",
"79 242 OFFCURVE",
"5 29 CURVE SMOOTH",
"4 26 OFFCURVE",
"4 24 OFFCURVE",
"4 22 CURVE SMOOTH",
"4 10 OFFCURVE",
"14 0 OFFCURVE",
"26 0 CURVE SMOOTH"
);
},
{
closed = 1;
nodes = (
"391 505 LINE",
"423 505 LINE",
"423 286 LINE",
"325 286 LINE"
);
}
);
};
layerId = "599115B4-8BEB-4D49-80EA-A2BFC7890D7F";
name = "Dec 6 20, 14:56";
paths = (
{
closed = 1;
nodes = (
"211 0 LINE SMOOTH",
"237 0 OFFCURVE",
"246 14 OFFCURVE",
"250 25 CURVE SMOOTH",
"258 47 OFFCURVE",
"266 69 OFFCURVE",
"274 91 CURVE",
"423 91 LINE",
"423 27 LINE SMOOTH",
"423 12 OFFCURVE",
"435 0 OFFCURVE",
"450 0 CURVE SMOOTH",
"941 0 LINE SMOOTH",
"956 0 OFFCURVE",
"968 12 OFFCURVE",
"968 27 CURVE SMOOTH",
"968 168 LINE SMOOTH",
"968 183 OFFCURVE",
"956 195 OFFCURVE",
"941 195 CURVE SMOOTH",
"663 195 LINE",
"663 258 LINE",
"911 258 LINE SMOOTH",
"926 258 OFFCURVE",
"938 270 OFFCURVE",
"938 285 CURVE SMOOTH",
"938 415 LINE SMOOTH",
"938 430 OFFCURVE",
"926 442 OFFCURVE",
"911 442 CURVE SMOOTH",
"663 442 LINE",
"663 505 LINE",
"933 505 LINE SMOOTH",
"948 505 OFFCURVE",
"960 517 OFFCURVE",
"960 532 CURVE SMOOTH",
"960 673 LINE SMOOTH",
"960 688 OFFCURVE",
"948 700 OFFCURVE",
"933 700 CURVE SMOOTH",
"273 700 LINE SMOOTH",
"246 700 OFFCURVE",
"232 682 OFFCURVE",
"228 667 CURVE",
"154 454 OFFCURVE",
"79 242 OFFCURVE",
"5 29 CURVE SMOOTH",
"4 26 OFFCURVE",
"4 24 OFFCURVE",
"4 22 CURVE SMOOTH",
"4 10 OFFCURVE",
"14 0 OFFCURVE",
"26 0 CURVE SMOOTH"
);
},
{
closed = 1;
nodes = (
"391 505 LINE",
"423 505 LINE",
"423 286 LINE",
"325 286 LINE"
);
}
);
width = 1005;
}
);
leftKerningGroup = AE;
rightKerningGroup = E;
unicode = 00C6;
userData = {
com.typemytype.robofont.guides = (
{
angle = 0;
isGlobal = 0;
magnetic = 5;
x = 0;
y = 505;
},
{
angle = 90;
isGlobal = 0;
magnetic = 5;
x = 431;
y = 0;
}
);
};
},
{
color = 1;
glyphname = B;
layers = (
{
background = {
paths = (
{
closed = 1;
nodes = (
"424 0 LINE SMOOTH",
"605 0 OFFCURVE",
"706 70 OFFCURVE",
"706 220 CURVE SMOOTH",
"706 286 OFFCURVE",
"662 344 OFFCURVE",
"611 365 CURVE",
"643 381 OFFCURVE",
"691 426 OFFCURVE",
"691 490 CURVE SMOOTH",
"691 630 OFFCURVE",
"605 700 OFFCURVE",
"414 700 CURVE SMOOTH",
"82 700 LINE SMOOTH",
"67 700 OFFCURVE",
"55 688 OFFCURVE",
"55 673 CURVE SMOOTH",
"55 27 LINE SMOOTH",
"55 12 OFFCURVE",
"67 0 OFFCURVE",
"82 0 CURVE SMOOTH"
);
},
{
closed = 1;
nodes = (
"305 270 LINE",
"398 270 LINE SMOOTH",
"428 270 OFFCURVE",
"444 245 OFFCURVE",
"444 221 CURVE SMOOTH",
"444 199 OFFCURVE",
"431 172 OFFCURVE",
"398 172 CURVE SMOOTH",
"305 172 LINE"
);
},
{
closed = 1;
nodes = (
"305 528 LINE",
"389 528 LINE SMOOTH",
"418 528 OFFCURVE",
"430 503 OFFCURVE",
"430 482 CURVE SMOOTH",
"430 461 OFFCURVE",
"418 437 OFFCURVE",
"389 437 CURVE SMOOTH",
"305 437 LINE"
);
}
);
};
hints = (
{
horizontal = 1;
place = "{-2147483648, 0}";
type = Tag;
name = hr00;
}
);
layerId = "EC64484B-0978-4CB1-9EE9-C40A2D8C4059";
paths = (
{
closed = 1;
nodes = (
"107.849 -11 LINE",
"133.698 20 LINE",
"155.57 -6 LINE",
"177.442 20 LINE",
"217.209 -18 LINE",
"256.977 20 LINE",
"294.756 -6 LINE",
"332.535 20 LINE",
"358.384 -10 LINE",
"384.233 20 LINE",
"404.116 -3 LINE",
"424 20 LINE",
"468.697 -13.873 LINE",
"508.073 26.062 LINE",
"540.372 2.879 LINE",
"558.848 38.083 LINE",
"603.61 24.801 LINE",
"619.58 68.676 LINE",
"662.532 88.054 LINE",
"670.758 134.452 LINE",
"707.369 161.203 LINE",
"685.385 200.859 LINE",
"705.337 242.08 LINE",
"673.896 275.377 LINE",
"683.799 314.07 LINE",
"644.155 318.923 LINE",
"639.053 354.821 LINE",
"602.8 354.2 LINE",
"651.391 362.324 LINE",
"637.11 409.474 LINE",
"683.129 420.383 LINE",
"667.884 465.153 LINE",
"703.672 499.847 LINE",
"667.462 534.099 LINE",
"689.946 566.278 LINE",
"653.207 580.108 LINE",
"666.245 621.729 LINE",
"622.633 622.228 LINE",
"620.015 669.39 LINE",
"575.715 653.001 LINE",
"540.511 684.261 LINE",
"494.356 674.973 LINE",
"474.728 702.918 LINE",
"450.268 679.088 LINE",
"428.752 709.537 LINE",
"406 680 LINE",
"374 719 LINE",
"342 680 LINE",
"302 712 LINE",
"262 680 LINE",
"220 704 LINE",
"178 680 LINE",
"154 719 LINE",
"130 680 LINE",
"102.663 702 LINE",
"77.033 678.032 LINE",
"45.043 654.872 LINE",
"75 629.136 LINE",
"51 609.198 LINE",
"75 589.259 LINE",
"43 549.383 LINE",
"75 509.506 LINE",
"42 471.623 LINE",
"75 433.741 LINE",
"39 413.802 LINE",
"75 393.864 LINE",
"45 373.926 LINE",
"75 353.988 LINE",
"54 334.049 LINE",
"75 314.111 LINE",
"40 284.204 LINE",
"75 254.296 LINE",
"41 222.395 LINE",
"75 190.494 LINE",
"53 160.586 LINE",
"75 130.679 LINE",
"51 106.753 LINE",
"75 82.827 LINE"
);
},
{
closed = 1;
nodes = (
"298.23 171.714 LINE",
"285 191.429 LINE",
"303.62 211.143 LINE",
"285 230.857 LINE",
"299.7 250.571 LINE",
"285 270.286 LINE",
"302.06 272.91 LINE",
"304.483 290 LINE",
"323.966 274.81 LINE",
"343.448 290 LINE",
"362.931 272.85 LINE",
"382.414 290 LINE",
"400.353 272.207 LINE",
"421.792 285.578 LINE",
"428.847 262.699 LINE",
"452.667 260.289 LINE",
"448.918 237.929 LINE",
"464 221 LINE",
"446.924 204.783 LINE",
"453.499 182.17 LINE",
"428.4 181.006 LINE",
"422.768 156.52 LINE",
"401.118 167.408 LINE",
"382.414 152 LINE",
"362.931 171.11 LINE",
"343.448 152 LINE",
"323.966 168.66 LINE",
"304.483 152 LINE"
);
},
{
closed = 1;
nodes = (
"302.15 436.848 LINE",
"285 456.697 LINE",
"299.7 476.545 LINE",
"285 496.394 LINE",
"303.62 516.242 LINE",
"285 536.091 LINE",
"305.521 526.715 LINE",
"313 548 LINE",
"333 536.73 LINE",
"353 548 LINE",
"373.013 529.315 LINE",
"393.147 547.87 LINE",
"404.889 524.022 LINE",
"430.367 531.604 LINE",
"428.715 507.861 LINE",
"448.893 495.239 LINE",
"428.71 476.417 LINE",
"444.592 453.846 LINE",
"419.431 449.306 LINE",
"417.595 423.805 LINE",
"394.138 439.249 LINE",
"377 417 LINE",
"357 428.76 LINE",
"337 417 LINE",
"317 432.19 LINE",
"297 417 LINE"
);
},
{
closed = 1;
nodes = (
"360.847 617.455 LINE",
"357 610.804 LINE",
"348.647 610.055 LINE",
"348.519 618.44 LINE",
"354.732 622.962 LINE"
);
},
{
closed = 1;
nodes = (
"160.007 494.249 LINE",
"130.901 484.029 LINE",
"95.295 495.165 LINE",
"115.661 530.16 LINE",
"148.362 525.206 LINE"
);
},
{
closed = 1;
nodes = (
"600.343 541.321 LINE",
"576.629 555.832 LINE",
"575.82 578.756 LINE",
"597.253 583.168 LINE",
"620 567 LINE"
);
},
{
closed = 1;
nodes = (
"554.49 198.378 LINE",
"547.302 191.024 LINE",
"538.297 198.581 LINE",
"543.761 207.784 LINE",
"551.857 205.596 LINE"
);
},
{
closed = 1;
nodes = (
"328.157 47.196 LINE",
"318.903 42.067 LINE",
"312.147 49.474 LINE",
"316.606 57.122 LINE",
"328.184 59.776 LINE"
);
},
{
closed = 1;
nodes = (
"316.135 341.729 LINE",
"292.394 345.948 LINE",
"294.144 368 LINE",
"311.327 375.65 LINE",
"331.869 362.509 LINE"
);
},
{
closed = 1;
nodes = (
"532.97 168.303 LINE",
"526.35 163.154 LINE",
"517.285 164.365 LINE",
"519.717 173.592 LINE",
"528.126 176.364 LINE"
);
},
{
closed = 1;
nodes = (
"219.097 432.155 LINE",
"194.116 425.461 LINE",
"165.051 447.936 LINE",
"196.824 465.319 LINE",
"225.483 461.25 LINE"
);
},
{
closed = 1;
nodes = (
"469.462 381.276 LINE",
"450.22 372.053 LINE",
"431.51 378.576 LINE",
"440.471 395.811 LINE",
"456.211 398 LINE"
);
},
{
closed = 1;
nodes = (
"298.142 70.55 LINE",
"264.41 62.137 LINE",
"250.272 93.897 LINE",
"274.874 107.727 LINE",
"295.659 99.389 LINE"
);
},
{
closed = 1;
nodes = (
"174.299 192.52 LINE",
"160.644 191.041 LINE",
"156.947 205.87 LINE",
"169.907 213.968 LINE",
"181.614 204.145 LINE"
);
},
{
closed = 1;
nodes = (
"567.994 434.849 LINE",
"526.914 425.57 LINE",
"509 467.773 LINE",
"542.555 509.806 LINE",
"576.456 471.503 LINE"
);
},
{
closed = 1;
nodes = (
"196.148 313.891 LINE",
"162.39 280.23 LINE",
"126.026 307.764 LINE",
"131.904 350.983 LINE",
"175.5 352.311 LINE"
);
},
{
closed = 1;
nodes = (
"514.97 630.697 LINE",
"510.907 620.795 LINE",
"500.962 624.752 LINE",
"502.714 632.575 LINE",
"508.575 636.821 LINE"
);
},
{
closed = 1;
nodes = (
"288.877 602.436 LINE",
"280.408 595.111 LINE",
"274.545 601.73 LINE",
"272.636 610.364 LINE",
"281.724 609.346 LINE"
);
},
{
closed = 1;
nodes = (
"150.912 113.747 LINE",
"143.563 106.137 LINE",
"134.053 110.775 LINE",
"136.245 120.557 LINE",
"147.699 126.684 LINE"
);
},
{
closed = 1;
nodes = (
"584.319 240.824 LINE",
"565.89 229.023 LINE",
"545.395 238.474 LINE",
"552.414 261.543 LINE",
"571.536 256.064 LINE"
);
}
);
width = 734;
},
{
associatedMasterId = "EC64484B-0978-4CB1-9EE9-C40A2D8C4059";
background = {
paths = (
{
closed = 1;
nodes = (
"424 0 LINE SMOOTH",
"605 0 OFFCURVE",
"706 70 OFFCURVE",
"706 220 CURVE SMOOTH",
"706 286 OFFCURVE",
"662 344 OFFCURVE",
"611 365 CURVE",
"643 381 OFFCURVE",
"691 426 OFFCURVE",
"691 490 CURVE SMOOTH",
"691 630 OFFCURVE",
"605 700 OFFCURVE",
"414 700 CURVE SMOOTH",
"82 700 LINE SMOOTH",
"67 700 OFFCURVE",
"55 688 OFFCURVE",
"55 673 CURVE SMOOTH",
"55 27 LINE SMOOTH",
"55 12 OFFCURVE",
"67 0 OFFCURVE",
"82 0 CURVE SMOOTH"
);
},
{
closed = 1;
nodes = (
"305 270 LINE",
"398 270 LINE SMOOTH",
"428 270 OFFCURVE",
"444 245 OFFCURVE",
"444 221 CURVE SMOOTH",
"444 199 OFFCURVE",
"431 172 OFFCURVE",
"398 172 CURVE SMOOTH",
"305 172 LINE"
);
},
{
closed = 1;
nodes = (
"305 528 LINE",
"389 528 LINE SMOOTH",
"418 528 OFFCURVE",
"430 503 OFFCURVE",
"430 482 CURVE SMOOTH",
"430 461 OFFCURVE",
"418 437 OFFCURVE",
"389 437 CURVE SMOOTH",
"305 437 LINE"
);
}
);
};
hints = (
{
horizontal = 1;
place = "{-2147483648, 0}";
type = Tag;
name = hr00;
}
);
layerId = "557B9EB1-08AD-4ECA-9BBC-CCCCBDA9D7DA";
name = "Dec 6 20, 14:56";
paths = (
{
closed = 1;
nodes = (
"424 0 LINE SMOOTH",
"605 0 OFFCURVE",
"706 70 OFFCURVE",
"706 220 CURVE SMOOTH",
"706 286 OFFCURVE",
"662 344 OFFCURVE",
"611 365 CURVE",
"643 381 OFFCURVE",
"691 426 OFFCURVE",
"691 490 CURVE SMOOTH",
"691 630 OFFCURVE",
"605 700 OFFCURVE",
"414 700 CURVE SMOOTH",
"82 700 LINE SMOOTH",
"67 700 OFFCURVE",
"55 688 OFFCURVE",
"55 673 CURVE SMOOTH",
"55 27 LINE SMOOTH",
"55 12 OFFCURVE",
"67 0 OFFCURVE",
"82 0 CURVE SMOOTH"
);
},
{
closed = 1;
nodes = (
"305 270 LINE",
"398 270 LINE SMOOTH",
"428 270 OFFCURVE",
"444 245 OFFCURVE",
"444 221 CURVE SMOOTH",
"444 199 OFFCURVE",
"431 172 OFFCURVE",
"398 172 CURVE SMOOTH",
"305 172 LINE"
);
},
{
closed = 1;
nodes = (
"305 528 LINE",
"389 528 LINE SMOOTH",
"418 528 OFFCURVE",
"430 503 OFFCURVE",
"430 482 CURVE SMOOTH",
"430 461 OFFCURVE",
"418 437 OFFCURVE",
"389 437 CURVE SMOOTH",
"305 437 LINE"
);
}
);
width = 734;
}
);
leftKerningGroup = I;
unicode = 0042;
userData = {
com.typemytype.robofont.guides = (
{
angle = 0;
isGlobal = 0;
magnetic = 5;
x = 0;
y = 271;
},
{
angle = 0;
isGlobal = 0;
magnetic = 5;
x = 0;
y = 437;
},
{
angle = 0;
isGlobal = 0;
magnetic = 5;
x = 0;
y = 521;
},
{
angle = 0;
isGlobal = 0;
magnetic = 5;
x = 0;
y = 198;
},
{
angle = 0;
isGlobal = 0;
magnetic = 5;
x = 0;
y = 9;
},
{
angle = 90;
isGlobal = 0;
magnetic = 5;
x = 355;
y = 0;
},
{
angle = 90;
isGlobal = 0;
magnetic = 5;
x = 583;
y = 0;
},
{
angle = 90;
isGlobal = 0;
magnetic = 5;
x = 94;
y = 0;
}
);
};
},
{
color = 1;
glyphname = C;
layers = (
{
anchors = (
{
name = bottom;
position = "{367, 0}";
},
{
name = top;
position = "{367, 700}";
}
);
background = {
anchors = (
{
name = bottom;
position = "{367, 0}";
},
{
name = top;
position = "{367, 700}";
}
);
paths = (
{
closed = 1;
nodes = (
"542 -10 OFFCURVE",
"706 64 OFFCURVE",
"709 246 CURVE SMOOTH",
"709 258 OFFCURVE",
"699 268 OFFCURVE",
"687 268 CURVE",
"483 268 LINE",
"461 268 OFFCURVE",
"453 262 OFFCURVE",
"446 239 CURVE SMOOTH",
"433 199 OFFCURVE",
"405 185 OFFCURVE",
"371 185 CURVE SMOOTH",
"327 185 OFFCURVE",
"299 205 OFFCURVE",
"297 266 CURVE SMOOTH",
"295 323 OFFCURVE",
"295 379 OFFCURVE",
"297 434 CURVE",
"299 495 OFFCURVE",
"327 515 OFFCURVE",
"371 515 CURVE SMOOTH",
"405 515 OFFCURVE",
"431 504 OFFCURVE",
"446 461 CURVE SMOOTH",
"454 439 OFFCURVE",
"461 432 OFFCURVE",
"483 432 CURVE",
"687 432 LINE",
"699 432 OFFCURVE",
"709 442 OFFCURVE",
"709 454 CURVE SMOOTH",
"706 636 OFFCURVE",
"542 710 OFFCURVE",
"372 710 CURVE SMOOTH",
"185 710 OFFCURVE",
"45 625 OFFCURVE",
"37 439 CURVE",
"35 382 OFFCURVE",
"35 315 OFFCURVE",
"37 261 CURVE",
"45 70 OFFCURVE",
"180 -10 OFFCURVE",
"372 -10 CURVE SMOOTH"
);
}
);
};
layerId = "EC64484B-0978-4CB1-9EE9-C40A2D8C4059";
paths = (
{
closed = 1;
nodes = (
"416.154 -17.793 LINE",
"455.698 16.242 LINE",
"480.104 -3.257 LINE",
"494.878 24.267 LINE",
"530.715 12.317 LINE",
"551.526 43.843 LINE",
"601.852 43.173 LINE",
"621.646 89.447 LINE",
"669.218 89.336 LINE",
"659.344 135.873 LINE",
"693.509 149.34 LINE",
"679.956 183.471 LINE",
"706.099 207.575 LINE",
"688.796 238.641 LINE",
"664.534 271.948 LINE",
"631 248 LINE",
"603 282 LINE",
"575 248 LINE",
"543 268 LINE",
"511 248 LINE",
"470.95 243.8 LINE",
"453.447 207.533 LINE",
"406.985 212.964 LINE",
"395.942 167.508 LINE",
"371.088 199.317 LINE",
"346.729 167.128 LINE",
"336.494 197.329 LINE",
"306.733 185.88 LINE",
"324.672 224.38 LINE",
"282.301 227.346 LINE",
"309.011 268.705 LINE",
"275.922 305.162 LINE",
"300.748 337.436 LINE",
"275.575 369.442 LINE",
"297.283 401.765 LINE",
"277 435 LINE",
"316.375 463.581 LINE",
"302.767 510.294 LINE",
"352.541 490.781 LINE",
"383.34 534.481 LINE",
"394.048 498.055 LINE",
"422.588 523.095 LINE",
"421.436 482.517 LINE",
"461.611 476.697 LINE",
"479.731 451.201 LINE",
"511 452 LINE",
"551 425 LINE",
"591 452 LINE",
"631 420 LINE",
"671 452 LINE",
"695.088 458.493 LINE",
"687.057 482.112 LINE",
"705.536 509.011 LINE",
"677.218 525.232 LINE",
"687.891 561.999 LINE",
"652.063 575.492 LINE",
"635.836 619.121 LINE",
"591.747 634.05 LINE",
"584.976 667.512 LINE",
"553.027 655.477 LINE",
"528.134 695.348 LINE",
"484.342 678.272 LINE",
"454.031 707.031 LINE",
"416.676 688.309 LINE",
"386.808 710.042 LINE",
"355.918 689.787 LINE",
"322.988 722.168 LINE",
"295.862 684.789 LINE",
"265.175 703.899 LINE",
"244.748 674.073 LINE",
"200.751 680.712 LINE",
"174.391 644.866 LINE",
"118.446 645.99 LINE",
"110.308 590.629 LINE",
"72.441 575.855 LINE",
"77.553 535.53 LINE",
"43.238 523.237 LINE",
"64.215 493.427 LINE",
"39.35 455.601 LINE",
"56.278 413.619 LINE",
"17.897 377.432 LINE",
"55.512 340.449 LINE",
"16.773 317.641 LINE",
"56.029 295.734 LINE",
"33.443 265.656 LINE",
"58.802 237.876 LINE",
"29.711 200.985 LINE",
"71.108 178.77 LINE",
"56.064 145.817 LINE",
"90.484 134.528 LINE",
"94.073 81.806 LINE",
"145.844 71.209 LINE",
"156.784 34.474 LINE",
"194.275 42.449 LINE",
"211.604 -0.405 LINE",
"251.456 23.018 LINE",
"280.216 -13.986 LINE",
"319.078 12.208 LINE"
);
},
{
closed = 1;
nodes = (
"370.974 591.534 LINE",
"335.891 568.968 LINE",
"304.129 576.224 LINE",
"304.572 612.086 LINE",
"344.391 635.286 LINE"
);
},
{
closed = 1;
nodes = (
"106.298 485.874 LINE",
"92.943 488.127 LINE",
"87.428 504.756 LINE",
"104.474 506.718 LINE",
"118.935 497.482 LINE"
);
},
{
closed = 1;
nodes = (
"363.124 87.84 LINE",
"333.713 70.99 LINE",
"310.021 103.221 LINE",
"337.282 128.915 LINE",
"359.923 112.065 LINE"
);
},
{
closed = 1;
nodes = (
"130.992 147.454 LINE",
"122.446 134.784 LINE",
"108.544 139.612 LINE",
"101.419 158.184 LINE",
"122.686 163.341 LINE"
);
},
{
closed = 1;
nodes = (
"196.997 102.332 LINE",
"186.79 76.471 LINE",
"152.444 82.742 LINE",
"163.255 112.324 LINE",
"186.479 129.733 LINE"
);
},
{
closed = 1;
nodes = (
"573.82 545.92 LINE",
"552.558 533.271 LINE",
"536.246 551.871 LINE",
"546.466 573.711 LINE",
"572.971 571.971 LINE"
);
},
{
closed = 1;
nodes = (
"554.759 130.401 LINE",
"517.237 105.656 LINE",
"478.091 116 LINE",
"484.247 159.089 LINE",
"531.337 180.677 LINE"
);
},
{
closed = 1;
nodes = (
"282.103 112.819 LINE",
"267.7 109.797 LINE",
"255.023 121.89 LINE",
"266.824 140.319 LINE",
"282.903 128.08 LINE"
);
},
{
closed = 1;
nodes = (
"265.31 395.484 LINE",
"257.086 395.197 LINE",
"253.31 403.205 LINE",
"260.721 408.995 LINE",
"269.457 404.078 LINE"
);
},
{
closed = 1;
nodes = (
"265.44 270.595 LINE",
"257.133 267.531 LINE",
"254.008 275.314 LINE",
"257.671 283.693 LINE",
"264.193 277.723 LINE"
);
},
{
closed = 1;
nodes = (
"263.473 528.403 LINE",
"257.653 527.585 LINE",
"251.137 533.563 LINE",
"259.026 538.932 LINE",
"268.089 535.945 LINE"
);
},
{
closed = 1;
nodes = (
"163.608 380.528 LINE",
"156 376 LINE",
"148.392 380.528 LINE",
"150.71 390.281 LINE",
"160.114 388.663 LINE"
);
},
{
closed = 1;
nodes = (
"491.482 589.424 LINE",
"475.634 579.165 LINE",
"463.228 593.395 LINE",
"471.427 608.361 LINE",
"489.809 608.229 LINE"
);
},
{
closed = 1;
nodes = (
"122.786 318.453 LINE",
"82.75 329.463 LINE",
"80.461 359.884 LINE",
"103.093 391.945 LINE",
"136.739 361.576 LINE"
);
},
{
closed = 1;
nodes = (
"437.552 55.674 LINE",
"425.643 58.291 LINE",
"420.341 67.588 LINE",
"429.581 72.989 LINE",
"438.402 68.225 LINE"
);
},
{
closed = 1;
nodes = (
"171.148 214.931 LINE",
"138.581 202.004 LINE",
"111.267 217.521 LINE",
"120.646 252.213 LINE",
"154.647 246.765 LINE"
);
},
{
closed = 1;
nodes = (
"635.851 176.563 LINE",
"620.198 157.404 LINE",
"586.263 162.516 LINE",
"602.104 191.958 LINE",
"624.875 198.032 LINE"
);
}
);
width = 733;
},
{
anchors = (
{
name = bottom;
position = "{367, 0}";
},
{
name = top;
position = "{367, 700}";
}
);
associatedMasterId = "EC64484B-0978-4CB1-9EE9-C40A2D8C4059";
background = {
anchors = (
{
name = bottom;
position = "{367, 0}";
},
{
name = top;
position = "{367, 700}";
}
);
paths = (
{
closed = 1;
nodes = (
"542 -10 OFFCURVE",
"706 64 OFFCURVE",
"709 246 CURVE SMOOTH",
"709 258 OFFCURVE",
"699 268 OFFCURVE",
"687 268 CURVE",
"483 268 LINE",
"461 268 OFFCURVE",
"453 262 OFFCURVE",
"446 239 CURVE SMOOTH",
"433 199 OFFCURVE",
"405 185 OFFCURVE",
"371 185 CURVE SMOOTH",
"327 185 OFFCURVE",
"299 205 OFFCURVE",
"297 266 CURVE SMOOTH",
"295 323 OFFCURVE",
"295 379 OFFCURVE",
"297 434 CURVE",
"299 495 OFFCURVE",
"327 515 OFFCURVE",
"371 515 CURVE SMOOTH",
"405 515 OFFCURVE",
"431 504 OFFCURVE",
"446 461 CURVE SMOOTH",
"454 439 OFFCURVE",
"461 432 OFFCURVE",
"483 432 CURVE",
"687 432 LINE",
"699 432 OFFCURVE",
"709 442 OFFCURVE",
"709 454 CURVE SMOOTH",
"706 636 OFFCURVE",
"542 710 OFFCURVE",
"372 710 CURVE SMOOTH",
"185 710 OFFCURVE",
"45 625 OFFCURVE",
"37 439 CURVE",
"35 382 OFFCURVE",
"35 315 OFFCURVE",
"37 261 CURVE",
"45 70 OFFCURVE",
"180 -10 OFFCURVE",
"372 -10 CURVE SMOOTH"
);
}
);
};
layerId = "83ABA0CD-60CC-49E5-AC93-600572E1ADD3";
name = "Dec 6 20, 14:56";
paths = (
{
closed = 1;
nodes = (
"542 -10 OFFCURVE",
"706 64 OFFCURVE",
"709 246 CURVE SMOOTH",
"709 258 OFFCURVE",
"699 268 OFFCURVE",
"687 268 CURVE",
"483 268 LINE",
"461 268 OFFCURVE",
"453 262 OFFCURVE",
"446 239 CURVE SMOOTH",
"433 199 OFFCURVE",
"405 185 OFFCURVE",
"371 185 CURVE SMOOTH",
"327 185 OFFCURVE",
"299 205 OFFCURVE",
"297 266 CURVE SMOOTH",
"295 323 OFFCURVE",
"295 379 OFFCURVE",
"297 434 CURVE",
"299 495 OFFCURVE",
"327 515 OFFCURVE",
"371 515 CURVE SMOOTH",
"405 515 OFFCURVE",
"431 504 OFFCURVE",
"446 461 CURVE SMOOTH",
"454 439 OFFCURVE",
"461 432 OFFCURVE",
"483 432 CURVE",
"687 432 LINE",
"699 432 OFFCURVE",
"709 442 OFFCURVE",
"709 454 CURVE SMOOTH",
"706 636 OFFCURVE",
"542 710 OFFCURVE",
"372 710 CURVE SMOOTH",
"185 710 OFFCURVE",
"45 625 OFFCURVE",
"37 439 CURVE",
"35 382 OFFCURVE",
"35 315 OFFCURVE",
"37 261 CURVE",
"45 70 OFFCURVE",
"180 -10 OFFCURVE",
"372 -10 CURVE SMOOTH"
);
}
);
width = 733;
}
);
leftKerningGroup = O;
rightKerningGroup = C;
unicode = 0043;
userData = {
com.typemytype.robofont.guides = (
{
angle = 0;
isGlobal = 0;
magnetic = 5;
x = 0;
y = 434;
},
{
angle = 0;
isGlobal = 0;
magnetic = 5;
x = 0;
y = 266;
},
{
angle = 0;
isGlobal = 0;
magnetic = 5;
x = 0;
y = 710;
},
{
angle = 0;
isGlobal = 0;
magnetic = 5;
x = 0;
y = "-10";
},
{
angle = 90;
isGlobal = 0;
magnetic = 5;
x = 599;
y = 0;
},
{
angle = 90;
isGlobal = 0;
magnetic = 5;
x = 209;
y = 0;
},
{
angle = 90;
isGlobal = 0;
magnetic = 5;
x = 149;
y = 0;
},
{
angle = 90;
isGlobal = 0;
magnetic = 5;
x = 332;
y = 0;
}
);
};
},
{
color = 1;
glyphname = Ccedilla;
layers = (
{
background = {
paths = (
{
closed = 1;
nodes = (
"426 -220 OFFCURVE",
"465 -183 OFFCURVE",
"465 -130 CURVE SMOOTH",
"465 -77 OFFCURVE",
"435 -40 OFFCURVE",
"384 -40 CURVE SMOOTH",
"380 -40 OFFCURVE",
"362 -42 OFFCURVE",
"354 -45 CURVE",
"372 -10 LINE",
"542 -10 OFFCURVE",
"706 64 OFFCURVE",
"709 246 CURVE SMOOTH",
"709 258 OFFCURVE",
"699 268 OFFCURVE",
"687 268 CURVE",
"483 268 LINE",
"461 268 OFFCURVE",
"453 262 OFFCURVE",
"446 239 CURVE SMOOTH",
"433 199 OFFCURVE",
"405 185 OFFCURVE",
"371 185 CURVE SMOOTH",
"327 185 OFFCURVE",
"299 205 OFFCURVE",
"297 266 CURVE SMOOTH",
"295 323 OFFCURVE",
"295 379 OFFCURVE",
"297 434 CURVE SMOOTH",
"299 495 OFFCURVE",
"327 515 OFFCURVE",
"371 515 CURVE SMOOTH",
"405 515 OFFCURVE",
"431 504 OFFCURVE",
"446 461 CURVE SMOOTH",
"454 439 OFFCURVE",
"461 432 OFFCURVE",
"483 432 CURVE",
"687 432 LINE",
"699 432 OFFCURVE",
"709 442 OFFCURVE",
"709 454 CURVE SMOOTH",
"706 636 OFFCURVE",
"542 710 OFFCURVE",
"372 710 CURVE SMOOTH",
"185 710 OFFCURVE",
"45 625 OFFCURVE",
"37 439 CURVE SMOOTH",
"35 382 OFFCURVE",
"35 315 OFFCURVE",
"37 261 CURVE SMOOTH",
"44 91 OFFCURVE",
"151 10 OFFCURVE",
"309 -6 CURVE",
"289 -52 LINE",
"280 -71 OFFCURVE",
"282 -76 OFFCURVE",
"291 -85 CURVE",
"312 -106 LINE",
"325 -119 OFFCURVE",
"348 -106 OFFCURVE",
"366 -106 CURVE SMOOTH",
"386 -106 OFFCURVE",
"394 -118 OFFCURVE",
"394 -130 CURVE SMOOTH",
"394 -142 OFFCURVE",
"385 -154 OFFCURVE",
"366 -154 CURVE SMOOTH",
"332 -154 OFFCURVE",
"327 -136 OFFCURVE",
"310 -151 CURVE",
"289 -169 LINE",
"266 -189 OFFCURVE",
"313 -220 OFFCURVE",
"366 -220 CURVE SMOOTH"
);
}
);
};
hints = (
{
horizontal = 1;
place = "{-2147483648, 0}";
type = Tag;
name = hr00;
}
);
layerId = "EC64484B-0978-4CB1-9EE9-C40A2D8C4059";
paths = (
{
closed = 1;
nodes = (
"411.357 -210.268 LINE",
"433.702 -169.483 LINE",
"457.397 -138.129 LINE",
"441.349 -102.254 LINE",
"450.156 -68.876 LINE",
"415.653 -67.75 LINE",
"389.277 -37.63 LINE",
"353.5 -55.6 LINE",
"386.839 -29.435 LINE",
"347.077 -14.769 LINE",
"390.954 -21.877 LINE",
"419.971 11.793 LINE",
"456.056 -13.128 LINE",
"483.235 21.287 LINE",
"529.738 8.615 LINE",
"558.816 47.055 LINE",
"608.101 41.636 LINE",
"621.67 89.324 LINE",
"663.068 85.311 LINE",
"652.918 125.646 LINE",
"691.908 154.732 LINE",
"684.654 202.832 LINE",
"708.187 231.478 LINE",
"675 248 LINE",
"637 276 LINE",
"599 248 LINE",
"577 279 LINE",
"555 248 LINE",
"525 281 LINE",
"495 248 LINE",
"451.463 235.803 LINE",
"441.143 191.784 LINE",
"393.229 212.024 LINE",
"371 165 LINE",
"353.401 205.868 LINE",
"319.977 176.496 LINE",
"328.458 222.162 LINE",
"282.301 227.346 LINE",
"300.074 266.032 LINE",
"276 301.145 LINE",
"303.85 341.423 LINE",
"275.701 381.494 LINE",
"303.252 404.968 LINE",
"276.817 429.692 LINE",
"303.469 455.869 LINE",
"288.939 490.285 LINE",
"339.422 487.106 LINE",
"357.429 534.376 LINE",
"378.246 502.718 LINE",
"403.583 530.889 LINE",
"409.662 477.524 LINE",
"463.172 472.887 LINE",
"473.333 443.845 LINE",
"503 452 LINE",
"535 415 LINE",
"567 452 LINE",
"599 426 LINE",
"631 452 LINE",
"667.854 426.011 LINE",
"688.554 466.075 LINE",
"719.199 495.532 LINE",
"680.763 513.683 LINE",
"691.163 543.917 LINE",
"662.642 558.367 LINE",
"677.031 598.357 LINE",
"634.539 597.549 LINE",
"627.42 632.537 LINE",
"591.747 634.05 LINE",
"584.492 666.637 LINE",
"553.027 655.477 LINE",
"543.169 686.02 LINE",
"515.436 669.868 LINE",
"500.977 694.282 LINE",
"476.47 679.98 LINE",
"448.718 715.014 LINE",
"412.659 688.606 LINE",
"368.018 720.303 LINE",
"323.814 688 LINE",
"284.705 716.14 LINE",
"256.409 677.145 LINE",
"223.393 701.223 LINE",
"210.506 662.446 LINE",
"172.32 684.608 LINE",
"167.503 640.72 LINE",
"137.222 644.111 LINE",
"132.321 614.037 LINE",
"81.658 599.295 LINE",
"82.48 546.536 LINE",
"49.762 512.184 LINE",
"59.346 465.723 LINE",
"28.546 424.663 LINE",
"55.693 381.102 LINE",
"21.751 344.461 LINE",
"55.808 307.928 LINE",
"25.278 271.59 LINE",
"58.694 237.886 LINE",
"33.487 195.122 LINE",
"74.613 167.323 LINE",
"58.399 121.886 LINE",
"105.385 110.941 LINE",
"104.66 79.753 LINE",
"135.843 78.86 LINE",
"143.885 35.645 LINE",
"186.541 46.262 LINE",
"209.527 1.471 LINE",
"255.06 22.95 LINE",
"272.986 -3.477 LINE",
"298.723 15.428 LINE",
"306.411 -16.746 LINE",
"334.2 1.2 LINE",
"299.699 -5.022 LINE",
"318.2 -34.8 LINE",
"297.163 -59.431 LINE",
"318.125 -84.125 LINE",
"352.252 -103.549 LINE",
"389.434 -90.918 LINE",
"381.398 -123.232 LINE",
"414 -130 LINE",
"372.1 -133.189 LINE",
"361.707 -173.905 LINE",
"329.053 -162.388 LINE",
"302 -184 LINE"
);
},
{
closed = 1;
nodes = (
"148.034 284.273 LINE",
"118.966 293.718 LINE",
"123.011 321.343 LINE",
"145.253 325.168 LINE",
"162 309 LINE"
);
},
{
closed = 1;
nodes = (
"112.706 259.947 LINE",
"98.828 248.112 LINE",
"81.593 255.815 LINE",
"87.452 273.239 LINE",
"105.242 277.869 LINE"
);
},
{
closed = 1;
nodes = (
"573.761 172.519 LINE",
"562.828 160.112 LINE",
"551.937 170.774 LINE",
"551.452 185.239 LINE",
"567.303 186.37 LINE"
);
},
{
closed = 1;
nodes = (
"346.745 635.887 LINE",
"318.124 632.571 LINE",
"303.718 660.299 LINE",
"328.56 681.893 LINE",
"344.808 659.861 LINE"
);
},
{
closed = 1;
nodes = (
"310.027 559.02 LINE",
"292.396 558.713 LINE",
"292.393 573.631 LINE",
"300.791 582.998 LINE",
"309.51 573.93 LINE"
);
},
{
closed = 1;
nodes = (
"526.394 574.703 LINE",
"497.412 553.209 LINE",
"469.53 569.589 LINE",
"479.678 596.358 LINE",
"508.059 606.364 LINE"
);
},
{
closed = 1;
nodes = (
"202.271 150.366 LINE",
"163.476 123.3 LINE",
"145 168 LINE",
"169.348 194.63 LINE",
"204.698 187.397 LINE"
);
},
{
closed = 1;
nodes = (
"329.002 91.476 LINE",
"296.344 75.224 LINE",
"282.331 101.565 LINE",
"290.304 122.492 LINE",
"323.188 129.866 LINE"
);
},
{
closed = 1;
nodes = (
"250.903 467.392 LINE",
"244.945 457.911 LINE",
"235.965 461.137 LINE",
"234.819 469.286 LINE",
"242.216 472.894 LINE"
);
},
{
closed = 1;
nodes = (
"253.89 542.472 LINE",
"231.524 516.743 LINE",
"211.285 536.759 LINE",
"201.604 565.338 LINE",
"235.159 568.933 LINE"
);
},
{
closed = 1;
nodes = (
"277.103 614.127 LINE",
"246.05 587.133 LINE",
"213.544 609.497 LINE",
"222.662 645.396 LINE",
"258.451 647.715 LINE"
);
},
{
closed = 1;
nodes = (
"610.042 564.783 LINE",
"576.077 546.395 LINE",
"558.017 580.023 LINE",
"575.739 609.191 LINE",
"608.064 598.239 LINE"
);
}
);
width = 733;
},
{
associatedMasterId = "EC64484B-0978-4CB1-9EE9-C40A2D8C4059";
background = {
paths = (
{
closed = 1;
nodes = (
"426 -220 OFFCURVE",
"465 -183 OFFCURVE",
"465 -130 CURVE SMOOTH",
"465 -77 OFFCURVE",
"435 -40 OFFCURVE",
"384 -40 CURVE SMOOTH",
"380 -40 OFFCURVE",
"362 -42 OFFCURVE",
"354 -45 CURVE",
"372 -10 LINE",
"542 -10 OFFCURVE",
"706 64 OFFCURVE",
"709 246 CURVE SMOOTH",
"709 258 OFFCURVE",
"699 268 OFFCURVE",
"687 268 CURVE",
"483 268 LINE",
"461 268 OFFCURVE",
"453 262 OFFCURVE",
"446 239 CURVE SMOOTH",
"433 199 OFFCURVE",
"405 185 OFFCURVE",
"371 185 CURVE SMOOTH",
"327 185 OFFCURVE",
"299 205 OFFCURVE",
"297 266 CURVE SMOOTH",
"295 323 OFFCURVE",
"295 379 OFFCURVE",
"297 434 CURVE SMOOTH",
"299 495 OFFCURVE",
"327 515 OFFCURVE",
"371 515 CURVE SMOOTH",
"405 515 OFFCURVE",
"431 504 OFFCURVE",
"446 461 CURVE SMOOTH",
"454 439 OFFCURVE",
"461 432 OFFCURVE",
"483 432 CURVE",
"687 432 LINE",
"699 432 OFFCURVE",
"709 442 OFFCURVE",
"709 454 CURVE SMOOTH",
"706 636 OFFCURVE",
"542 710 OFFCURVE",
"372 710 CURVE SMOOTH",
"185 710 OFFCURVE",
"45 625 OFFCURVE",
"37 439 CURVE SMOOTH",
"35 382 OFFCURVE",
"35 315 OFFCURVE",
"37 261 CURVE SMOOTH",
"44 91 OFFCURVE",
"151 10 OFFCURVE",
"309 -6 CURVE",
"289 -52 LINE",
"280 -71 OFFCURVE",
"282 -76 OFFCURVE",
"291 -85 CURVE",
"312 -106 LINE",
"325 -119 OFFCURVE",
"348 -106 OFFCURVE",
"366 -106 CURVE SMOOTH",
"386 -106 OFFCURVE",
"394 -118 OFFCURVE",
"394 -130 CURVE SMOOTH",
"394 -142 OFFCURVE",
"385 -154 OFFCURVE",
"366 -154 CURVE SMOOTH",
"332 -154 OFFCURVE",
"327 -136 OFFCURVE",
"310 -151 CURVE",
"289 -169 LINE",
"266 -189 OFFCURVE",
"313 -220 OFFCURVE",
"366 -220 CURVE SMOOTH"
);
}
);
};
hints = (
{
horizontal = 1;
place = "{-2147483648, 0}";
type = Tag;
name = hr00;
}
);
layerId = "5316989A-8B30-4E49-B77D-C02FDE13DFEE";
name = "Dec 6 20, 14:56";
paths = (
{
closed = 1;
nodes = (
"426 -220 OFFCURVE",
"465 -183 OFFCURVE",
"465 -130 CURVE SMOOTH",
"465 -77 OFFCURVE",
"435 -40 OFFCURVE",
"384 -40 CURVE SMOOTH",
"380 -40 OFFCURVE",
"362 -42 OFFCURVE",
"354 -45 CURVE",
"372 -10 LINE",
"542 -10 OFFCURVE",
"706 64 OFFCURVE",
"709 246 CURVE SMOOTH",
"709 258 OFFCURVE",
"699 268 OFFCURVE",
"687 268 CURVE",
"483 268 LINE",
"461 268 OFFCURVE",
"453 262 OFFCURVE",
"446 239 CURVE SMOOTH",
"433 199 OFFCURVE",
"405 185 OFFCURVE",
"371 185 CURVE SMOOTH",
"327 185 OFFCURVE",
"299 205 OFFCURVE",
"297 266 CURVE SMOOTH",
"295 323 OFFCURVE",
"295 379 OFFCURVE",
"297 434 CURVE SMOOTH",
"299 495 OFFCURVE",
"327 515 OFFCURVE",
"371 515 CURVE SMOOTH",
"405 515 OFFCURVE",
"431 504 OFFCURVE",
"446 461 CURVE SMOOTH",
"454 439 OFFCURVE",
"461 432 OFFCURVE",
"483 432 CURVE",
"687 432 LINE",
"699 432 OFFCURVE",
"709 442 OFFCURVE",
"709 454 CURVE SMOOTH",
"706 636 OFFCURVE",
"542 710 OFFCURVE",
"372 710 CURVE SMOOTH",
"185 710 OFFCURVE",
"45 625 OFFCURVE",
"37 439 CURVE SMOOTH",
"35 382 OFFCURVE",
"35 315 OFFCURVE",
"37 261 CURVE SMOOTH",
"44 91 OFFCURVE",
"151 10 OFFCURVE",
"309 -6 CURVE",
"289 -52 LINE",
"280 -71 OFFCURVE",
"282 -76 OFFCURVE",
"291 -85 CURVE",
"312 -106 LINE",
"325 -119 OFFCURVE",
"348 -106 OFFCURVE",
"366 -106 CURVE SMOOTH",
"386 -106 OFFCURVE",
"394 -118 OFFCURVE",
"394 -130 CURVE SMOOTH",
"394 -142 OFFCURVE",
"385 -154 OFFCURVE",
"366 -154 CURVE SMOOTH",
"332 -154 OFFCURVE",
"327 -136 OFFCURVE",
"310 -151 CURVE",
"289 -169 LINE",
"266 -189 OFFCURVE",
"313 -220 OFFCURVE",
"366 -220 CURVE SMOOTH"
);
}
);
width = 733;
}
);
leftKerningGroup = O;
rightKerningGroup = C;
unicode = 00C7;
userData = {
com.typemytype.robofont.guides = (
{
angle = 0;
isGlobal = 0;
magnetic = 5;
x = 0;
y = "-174";
},
{
angle = 0;
isGlobal = 0;
magnetic = 5;
x = 0;
y = "-220";
},
{
angle = 0;
isGlobal = 0;
magnetic = 5;
x = 0;
y = "-96";
},
{
angle = 0;
isGlobal = 0;
magnetic = 5;
x = 0;
y = "-50";
},
{
angle = 0;
isGlobal = 0;
magnetic = 5;
x = 0;
y = "-135";
},
{
angle = 90;
isGlobal = 0;
magnetic = 5;
x = 331;
y = 0;
},
{
angle = 90;
isGlobal = 0;
magnetic = 5;
x = 342;
y = 0;
}
);
};
},
{
color = 1;
glyphname = D;
layers = (
{
background = {
paths = (
{
closed = 1;
nodes = (
"375 0 LINE SMOOTH",
"566 0 OFFCURVE",
"696 87 OFFCURVE",
"704 276 CURVE SMOOTH",
"706 330 OFFCURVE",
"706 368 OFFCURVE",
"704 425 CURVE SMOOTH",
"697 604 OFFCURVE",
"557 700 OFFCURVE",
"370 700 CURVE",
"82 700 LINE SMOOTH",
"67 700 OFFCURVE",
"55 688 OFFCURVE",
"55 673 CURVE SMOOTH",
"55 27 LINE SMOOTH",
"55 12 OFFCURVE",
"67 0 OFFCURVE",
"82 0 CURVE SMOOTH"
);
},
{
closed = 1;
nodes = (
"305 505 LINE",
"365 505 LINE SMOOTH",
"410 505 OFFCURVE",
"447 481 OFFCURVE",
"450 425 CURVE SMOOTH",
"453 370 OFFCURVE",
"453 333 OFFCURVE",
"450 276 CURVE SMOOTH",
"447 220 OFFCURVE",
"414 195 OFFCURVE",
"370 195 CURVE SMOOTH",
"305 195 LINE"
);
}
);
};
hints = (
{
horizontal = 1;
place = "{-2147483648, 0}";
type = Tag;
name = hr00;
}
);
layerId = "EC64484B-0978-4CB1-9EE9-C40A2D8C4059";
paths = (
{
closed = 1;
nodes = (
"109.716 -16 LINE",
"137.432 20 LINE",
"163.169 -13 LINE",
"188.905 20 LINE",
"224.541 -3 LINE",
"260.176 20 LINE",
"281.953 -14 LINE",
"303.73 20 LINE",
"329.466 -1 LINE",
"355.203 20 LINE",
"381.58 -3.564 LINE",
"407.159 20.865 LINE",
"450.679 -0.294 LINE",
"486.698 32.024 LINE",
"524.682 6.654 LINE",
"540.089 49.654 LINE",
"588.792 43.613 LINE",
"604.545 90.092 LINE",
"660.219 100.343 LINE",
"655.519 156.756 LINE",
"692.345 187.171 LINE",
"679.568 233.192 LINE",
"710.727 254.355 LINE",
"684.15 281.046 LINE",
"710.729 302.614 LINE",
"685.327 325.556 LINE",
"720.162 358.115 LINE",
"684.997 390.318 LINE",
"709.301 422.561 LINE",
"681.68 452.011 LINE",
"712.971 478.834 LINE",
"673.7 491.34 LINE",
"679.965 533.609 LINE",
"644.25 557.069 LINE",
"650.716 601.975 LINE",
"605.355 602.859 LINE",
"584.52 644.037 LINE",
"538.45 646.755 LINE",
"505.849 683.249 LINE",
"458.21 672.059 LINE",
"434.653 710.262 LINE",
"402.447 679.001 LINE",
"364.576 706.498 LINE",
"326 680 LINE",
"288 718 LINE",
"250 680 LINE",
"214 705 LINE",
"178 680 LINE",
"148 701 LINE",
"118 680 LINE",
"82.195 684.427 LINE",
"75 649.074 LINE",
"47 611.191 LINE",
"75 573.309 LINE",
"38 549.383 LINE",
"75 525.457 LINE",
"49 501.531 LINE",
"75 477.605 LINE",
"41 445.704 LINE",
"75 413.802 LINE",
"39 371.932 LINE",
"75 330.062 LINE",
"42 288.191 LINE",
"75 246.321 LINE",
"44 226.383 LINE",
"75 206.444 LINE",
"46 166.568 LINE",
"75 126.691 LINE",
"44 88.809 LINE",
"75 50.926 LINE"
);
},
{
closed = 1;
nodes = (
"303.13 194.886 LINE",
"285 214.773 LINE",
"302.64 234.659 LINE",
"285 254.545 LINE",
"300.19 274.432 LINE",
"285 294.318 LINE",
"301.66 314.205 LINE",
"285 334.091 LINE",
"298.23 353.977 LINE",
"285 373.864 LINE",
"295.29 393.75 LINE",
"285 413.636 LINE",
"299.7 433.523 LINE",
"285 453.409 LINE",
"303.13 473.295 LINE",
"285 493.182 LINE",
"301.355 505.984 LINE",
"293 525 LINE",
"313 502.6 LINE",
"333 525 LINE",
"352.882 503.889 LINE",
"373 524.777 LINE",
"388.304 501.99 LINE",
"411.854 516.092 LINE",
"413.165 483.487 LINE",
"444.308 493.229 LINE",
"437.815 466.592 LINE",
"464.098 458.788 LINE",
"452.25 436.028 LINE",
"470.425 417.916 LINE",
"453.561 397.029 LINE",
"471.952 377.474 LINE",
"461.764 357.188 LINE",
"472.155 337.004 LINE",
"457.869 317.165 LINE",
"471.012 296.55 LINE",
"454.203 276.99 LINE",
"467.677 255 LINE",
"444.546 242.331 LINE",
"453.495 217.523 LINE",
"423.538 219.277 LINE",
"425.222 189.316 LINE",
"398.509 205.227 LINE",
"387.425 176.177 LINE",
"366.574 194.481 LINE",
"346.818 175 LINE",
"327.5 197.4 LINE",
"308.182 175 LINE"
);
},
{
closed = 1;
nodes = (
"624.825 357.448 LINE",
"575.029 354.111 LINE",
"561.016 387.907 LINE",
"578.731 415.838 LINE",
"612.7 404.335 LINE"
);
},
{
closed = 1;
nodes = (
"588.784 194.381 LINE",
"559.162 188.255 LINE",
"548.772 218.29 LINE",
"572.396 234.944 LINE",
"598.107 221.74 LINE"
);
},
{
closed = 1;
nodes = (
"241.956 70.434 LINE",
"158.342 54.998 LINE",
"154.153 131.123 LINE",
"193.468 172.802 LINE",
"244.946 140.927 LINE"
);
},
{
closed = 1;
nodes = (
"539.063 548.269 LINE",
"495.947 501.425 LINE",
"451.841 540.673 LINE",
"466.494 582.135 LINE",
"515.18 605.229 LINE"
);
},
{
closed = 1;
nodes = (
"563.499 451.913 LINE",
"537.812 448.495 LINE",
"532.535 472.355 LINE",
"548.535 488.949 LINE",
"570.398 476.241 LINE"
);
},
{
closed = 1;
nodes = (
"400.252 145.526 LINE",
"387.897 140.522 LINE",
"382.182 154.084 LINE",
"391.773 167.844 LINE",
"408.381 159.014 LINE"
);
},
{
closed = 1;
nodes = (
"528.326 194.771 LINE",
"512.674 189.685 LINE",
"505 203 LINE",
"514.219 211.56 LINE",
"525.09 208.878 LINE"
);
},
{
closed = 1;
nodes = (
"353.786 564.74 LINE",
"340.912 555.146 LINE",
"333.152 568.264 LINE",
"335.488 584.127 LINE",
"353.42 580.79 LINE"
);
},
{
closed = 1;
nodes = (
"109.751 606.074 LINE",
"90.973 608.02 LINE",
"88.654 623.907 LINE",
"100.349 639.997 LINE",
"113.388 624.093 LINE"
);
},
{
closed = 1;
nodes = (
"572.725 80.929 LINE",
"557.366 80.405 LINE",
"542.319 94.647 LINE",
"561.191 103.873 LINE",
"579.178 98.891 LINE"
);
},
{
closed = 1;
nodes = (
"201.368 542.407 LINE",
"154.503 529.464 LINE",
"136.859 586.854 LINE",
"189.488 616.878 LINE",
"237.426 579.822 LINE"
);
},
{
closed = 1;
nodes = (
"148.777 403.151 LINE",
"125.729 403.571 LINE",
"117.461 423.049 LINE",
"133.431 436.932 LINE",
"147.887 424.47 LINE"
);
},
{
closed = 1;
nodes = (
"202.733 277.521 LINE",
"175.436 261.004 LINE",
"159.872 280.791 LINE",
"163.566 301.174 LINE",
"189.913 307.298 LINE"
);
},
{
closed = 1;
nodes = (
"523.967 270.256 LINE",
"506.451 252.196 LINE",
"485.234 257.043 LINE",
"482.388 280.437 LINE",
"507.247 296.046 LINE"
);
},
{
closed = 1;
nodes = (
"232.878 468.611 LINE",
"225.974 463.068 LINE",
"217.81 466.493 LINE",
"216.664 478.632 LINE",
"231.573 482.361 LINE"
);
},
{
closed = 1;
nodes = (
"545.574 315.032 LINE",
"541.151 302.881 LINE",
"528.228 303.332 LINE",
"525.603 315.42 LINE",
"535.314 320.995 LINE"
);
}
);
width = 740;
},
{
associatedMasterId = "EC64484B-0978-4CB1-9EE9-C40A2D8C4059";
background = {
paths = (
{
closed = 1;
nodes = (
"375 0 LINE SMOOTH",
"566 0 OFFCURVE",
"696 87 OFFCURVE",
"704 276 CURVE SMOOTH",
"706 330 OFFCURVE",
"706 368 OFFCURVE",
"704 425 CURVE SMOOTH",
"697 604 OFFCURVE",
"557 700 OFFCURVE",
"370 700 CURVE",
"82 700 LINE SMOOTH",
"67 700 OFFCURVE",
"55 688 OFFCURVE",
"55 673 CURVE SMOOTH",
"55 27 LINE SMOOTH",
"55 12 OFFCURVE",
"67 0 OFFCURVE",
"82 0 CURVE SMOOTH"
);
},
{
closed = 1;
nodes = (
"305 505 LINE",
"365 505 LINE SMOOTH",
"410 505 OFFCURVE",
"447 481 OFFCURVE",
"450 425 CURVE SMOOTH",
"453 370 OFFCURVE",
"453 333 OFFCURVE",
"450 276 CURVE SMOOTH",
"447 220 OFFCURVE",
"414 195 OFFCURVE",
"370 195 CURVE SMOOTH",
"305 195 LINE"
);
}
);
};
hints = (
{
horizontal = 1;
place = "{-2147483648, 0}";
type = Tag;
name = hr00;
}
);
layerId = "7DFBDE95-4B72-4A0C-A2EE-95F85299D254";
name = "Dec 6 20, 14:56";
paths = (
{
closed = 1;
nodes = (
"375 0 LINE SMOOTH",
"566 0 OFFCURVE",
"696 87 OFFCURVE",
"704 276 CURVE SMOOTH",
"706 330 OFFCURVE",
"706 368 OFFCURVE",
"704 425 CURVE SMOOTH",
"697 604 OFFCURVE",
"557 700 OFFCURVE",
"370 700 CURVE",
"82 700 LINE SMOOTH",
"67 700 OFFCURVE",
"55 688 OFFCURVE",
"55 673 CURVE SMOOTH",
"55 27 LINE SMOOTH",
"55 12 OFFCURVE",
"67 0 OFFCURVE",
"82 0 CURVE SMOOTH"
);
},
{
closed = 1;
nodes = (
"305 505 LINE",
"365 505 LINE SMOOTH",
"410 505 OFFCURVE",
"447 481 OFFCURVE",
"450 425 CURVE SMOOTH",
"453 370 OFFCURVE",
"453 333 OFFCURVE",
"450 276 CURVE SMOOTH",
"447 220 OFFCURVE",
"414 195 OFFCURVE",
"370 195 CURVE SMOOTH",
"305 195 LINE"
);
}
);
width = 740;
}
);
leftKerningGroup = I;
rightKerningGroup = D;
unicode = 0044;
userData = {
com.typemytype.robofont.guides = (
{
angle = 0;
isGlobal = 0;
magnetic = 5;
x = 0;
y = 425;
},
{
angle = 0;
isGlobal = 0;
magnetic = 5;
x = 0;
y = 276;
},
{
angle = 0;
isGlobal = 0;
magnetic = 5;
x = 0;
y = 9;
},
{
angle = 90;
isGlobal = 0;
magnetic = 5;
x = 320;
y = 0;
},
{
angle = 90;
isGlobal = 0;
magnetic = 5;
x = 603;
y = 0;
},
{
angle = 90;
isGlobal = 0;
magnetic = 5;
x = 94;
y = 0;
}
);
};
},
{
color = 1;
glyphname = Eth;
layers = (
{
background = {
paths = (
{
closed = 1;
nodes = (
"395 0 LINE SMOOTH",
"586 0 OFFCURVE",
"729 87 OFFCURVE",
"729 276 CURVE SMOOTH",
"729 326 OFFCURVE",
"729 375 OFFCURVE",
"729 425 CURVE SMOOTH",
"729 604 OFFCURVE",
"581 700 OFFCURVE",
"394 700 CURVE SMOOTH",
"106 700 LINE SMOOTH",
"91 700 OFFCURVE",
"79 688 OFFCURVE",
"79 673 CURVE SMOOTH",
"79 429 LINE",
"41 429 LINE",
"26 429 OFFCURVE",
"14 417 OFFCURVE",
"14 402 CURVE SMOOTH",
"14 301 LINE SMOOTH",
"14 286 OFFCURVE",
"26 274 OFFCURVE",
"41 274 CURVE SMOOTH",
"79 274 LINE",
"79 27 LINE SMOOTH",
"79 12 OFFCURVE",
"91 0 OFFCURVE",
"106 0 CURVE SMOOTH"
);
},
{
closed = 1;
nodes = (
"329 274 LINE",
"385 274 LINE SMOOTH",
"400 274 OFFCURVE",
"412 286 OFFCURVE",
"412 301 CURVE SMOOTH",
"412 402 LINE SMOOTH",
"412 417 OFFCURVE",
"400 429 OFFCURVE",
"385 429 CURVE SMOOTH",
"329 429 LINE",
"329 505 LINE",
"394 505 LINE SMOOTH",
"439 505 OFFCURVE",
"469 481 OFFCURVE",
"469 425 CURVE SMOOTH",
"469 375 OFFCURVE",
"469 326 OFFCURVE",
"469 276 CURVE SMOOTH",
"469 220 OFFCURVE",
"438 195 OFFCURVE",
"394 195 CURVE SMOOTH",
"329 195 LINE"
);
}
);
};
hints = (
{
horizontal = 1;
place = "{-2147483648, 0}";
type = Tag;
name = hr00;
}
);
layerId = "EC64484B-0978-4CB1-9EE9-C40A2D8C4059";
paths = (
{
closed = 1;
nodes = (
"133.712 -18 LINE",
"161.425 20 LINE",
"191.116 -5 LINE",
"220.808 20 LINE",
"260.397 -13 LINE",
"299.986 20 LINE",
"335.616 -19 LINE",
"371.247 20 LINE",
"410.477 -17.819 LINE",
"447.323 22.325 LINE",
"495.302 -4.279 LINE",
"530.366 37.915 LINE",
"578.229 18.237 LINE",
"596.833 66.528 LINE",
"639.374 49.382 LINE",
"635.745 95.104 LINE",
"674.222 102.317 LINE",
"674.225 141.465 LINE",
"712.547 150.114 LINE",
"694.76 185.143 LINE",
"729.438 221.993 LINE",
"708.911 268.243 LINE",
"747.955 294.647 LINE",
"709 321.182 LINE",
"738 354.042 LINE",
"709 386.902 LINE",
"733.07 422.7 LINE",
"707.157 457.188 LINE",
"723.846 487.761 LINE",
"695.661 508.225 LINE",
"719.498 548.68 LINE",
"673.022 555.369 LINE",
"670.298 595.396 LINE",
"631.148 604.163 LINE",
"612.817 650.193 LINE",
"563.357 647.284 LINE",
"540.854 681.285 LINE",
"502.333 667.921 LINE",
"479.959 692.117 LINE",
"450.725 676.906 LINE",
"411.78 715.426 LINE",
"370 680 LINE",
"344 712 LINE",
"318 680 LINE",
"296 703 LINE",
"274 680 LINE",
"252 715 LINE",
"230 680 LINE",
"192 708 LINE",
"154 680 LINE",
"132 710 LINE",
"110 680 LINE",
"74.926 671.795 LINE",
"99 645 LINE",
"69 623 LINE",
"99 601 LINE",
"65 577 LINE",
"99 553 LINE",
"69 515 LINE",
"99 477 LINE",
"75 449 LINE",
"99 421 LINE",
"57.534 435.025 LINE",
"34 398.115 LINE",
"4 368.981 LINE",
"34 339.846 LINE",
"34.09 301.305 LINE",
"71.933 294 LINE",
"65.968 257.909 LINE",
"99 242.194 LINE",
"75 202.343 LINE",
"99 162.493 LINE",
"65 126.627 LINE",
"99 90.761 LINE",
"76 70.836 LINE",
"99 50.91 LINE"
);
},
{
closed = 1;
nodes = (
"328.11 194.833 LINE",
"309 214.667 LINE",
"320.76 234.5 LINE",
"309 254.333 LINE",
"318.8 274.167 LINE",
"309 294 LINE",
"329 281.75 LINE",
"349 294 LINE",
"370 284.216 LINE",
"389.967 295.968 LINE",
"408.601 315.069 LINE",
"392 335.962 LINE",
"409.64 355.385 LINE",
"392 374.808 LINE",
"395.829 394.905 LINE",
"381 409 LINE",
"361 423.21 LINE",
"341 409 LINE",
"328.803 428.212 LINE",
"309 417 LINE",
"321.25 437 LINE",
"309 457 LINE",
"325.17 477 LINE",
"309 497 LINE",
"332 503.878 LINE",
"320.591 525 LINE",
"339.909 511.77 LINE",
"359.227 525 LINE",
"378.631 508.801 LINE",
"398.083 524.942 LINE",
"414.992 506.444 LINE",
"437.84 516.74 LINE",
"445.024 493.119 LINE",
"469.683 491.912 LINE",
"467.982 469.027 LINE",
"486.013 454.831 LINE",
"471.377 432.613 LINE",
"489 412.681 LINE",
"472.34 392.15 LINE",
"489 371.619 LINE",
"475.77 351.088 LINE",
"489 330.557 LINE",
"479.2 310.026 LINE",
"489 289.495 LINE",
"477.323 269.212 LINE",
"486.179 247.548 LINE",
"465.119 234.476 LINE",
"470.182 210.212 LINE",
"448.033 205.206 LINE",
"439.026 184.362 LINE",
"416.003 193.575 LINE",
"399.448 175.113 LINE",
"379.295 190.246 LINE",
"359.227 175 LINE",
"339.909 186.27 LINE",
"320.591 175 LINE"
);
},
{
closed = 1;
nodes = (
"224.002 198.404 LINE",
"165.027 201.149 LINE",
"141.409 243.845 LINE",
"175.012 283.301 LINE",
"212.137 253.493 LINE"
);
},
{
closed = 1;
nodes = (
"615.211 320.302 LINE",
"595.908 315.129 LINE",
"589.018 331.68 LINE",
"597.082 349.353 LINE",
"611.225 336.991 LINE"
);
},
{
closed = 1;
nodes = (
"267.994 590.302 LINE",
"240.864 548.923 LINE",
"203.425 573.793 LINE",
"197.652 613.869 LINE",
"242 631.657 LINE"
);
},
{
closed = 1;
nodes = (
"630.231 166.251 LINE",
"603.789 141.122 LINE",
"569.703 159.715 LINE",
"584.599 191.868 LINE",
"620.571 205.572 LINE"
);
},
{
closed = 1;
nodes = (
"596.601 443.594 LINE",
"552.251 437.051 LINE",
"565.356 480.705 LINE",
"596.023 495.944 LINE",
"612.966 467.308 LINE"
);
},
{
closed = 1;
nodes = (
"538.908 248.381 LINE",
"523.744 236.044 LINE",
"502.683 248.436 LINE",
"513.342 272.657 LINE",
"534.642 265.491 LINE"
);
},
{
closed = 1;
nodes = (
"247.325 418.933 LINE",
"177.27 415.641 LINE",
"134.151 466.325 LINE",
"185.839 502.752 LINE",
"232.466 484.787 LINE"
);
},
{
closed = 1;
nodes = (
"564.274 544.834 LINE",
"528.262 547.076 LINE",
"517.565 588.309 LINE",
"559.814 614.316 LINE",
"589.63 575.289 LINE"
);
},
{
closed = 1;
nodes = (
"321.821 608.575 LINE",
"320.665 597.571 LINE",
"307.127 597.943 LINE",
"307.636 610.126 LINE",
"315.784 615.966 LINE"
);
},
{
closed = 1;
nodes = (
"149.257 47.97 LINE",
"143.898 27.436 LINE",
"121.566 27.826 LINE",
"117.872 48.209 LINE",
"133.279 58.998 LINE"
);
},
{
closed = 1;
nodes = (
"427.012 94.506 LINE",
"420.241 54.292 LINE",
"378.232 61.354 LINE",
"354.188 104.202 LINE",
"400.936 123.949 LINE"
);
},
{
closed = 1;
nodes = (
"246.66 76.572 LINE",
"233.381 69.092 LINE",
"223.039 84.116 LINE",
"236.097 94.644 LINE",
"249.177 89.359 LINE"
);
},
{
closed = 1;
nodes = (
"184.023 84.746 LINE",
"149.55 92.858 LINE",
"148.328 123.083 LINE",
"173.036 141.718 LINE",
"187.711 116.299 LINE"
);
},
{
closed = 1;
nodes = (
"533.727 388.257 LINE",
"512.042 390.104 LINE",
"506.874 412.452 LINE",
"526.95 419.881 LINE",
"539.724 406.862 LINE"
);
},
{
closed = 1;
nodes = (
"291.738 98.495 LINE",
"283 90.804 LINE",
"275.316 90.798 LINE",
"272.692 99.254 LINE",
"281.045 105.945 LINE"
);
},
{
closed = 1;
nodes = (
"249.718 351.526 LINE",
"239.697 346.03 LINE",
"229.795 350.093 LINE",
"235.064 358.528 LINE",
"244.665 363.429 LINE"
);
},
{
closed = 1;
nodes = (
"693.712 355.836 LINE",
"680.353 340.319 LINE",
"671.127 359.191 LINE",
"678.301 372.684 LINE",
"696.229 372.809 LINE"
);
},
{
closed = 1;
nodes = (
"297.457 240.922 LINE",
"288.721 236.005 LINE",
"278.426 240.968 LINE",
"281.73 254.777 LINE",
"297.004 254.244 LINE"
);
}
);
width = 766;
},
{
associatedMasterId = "EC64484B-0978-4CB1-9EE9-C40A2D8C4059";
background = {
paths = (
{
closed = 1;
nodes = (
"395 0 LINE SMOOTH",
"586 0 OFFCURVE",
"729 87 OFFCURVE",
"729 276 CURVE SMOOTH",
"729 326 OFFCURVE",
"729 375 OFFCURVE",
"729 425 CURVE SMOOTH",
"729 604 OFFCURVE",
"581 700 OFFCURVE",
"394 700 CURVE SMOOTH",
"106 700 LINE SMOOTH",
"91 700 OFFCURVE",
"79 688 OFFCURVE",
"79 673 CURVE SMOOTH",
"79 429 LINE",
"41 429 LINE",
"26 429 OFFCURVE",
"14 417 OFFCURVE",
"14 402 CURVE SMOOTH",
"14 301 LINE SMOOTH",
"14 286 OFFCURVE",
"26 274 OFFCURVE",
"41 274 CURVE SMOOTH",
"79 274 LINE",
"79 27 LINE SMOOTH",
"79 12 OFFCURVE",
"91 0 OFFCURVE",
"106 0 CURVE SMOOTH"
);
},
{
closed = 1;
nodes = (
"329 274 LINE",
"385 274 LINE SMOOTH",
"400 274 OFFCURVE",
"412 286 OFFCURVE",
"412 301 CURVE SMOOTH",
"412 402 LINE SMOOTH",
"412 417 OFFCURVE",
"400 429 OFFCURVE",
"385 429 CURVE SMOOTH",
"329 429 LINE",
"329 505 LINE",
"394 505 LINE SMOOTH",
"439 505 OFFCURVE",
"469 481 OFFCURVE",
"469 425 CURVE SMOOTH",
"469 375 OFFCURVE",
"469 326 OFFCURVE",
"469 276 CURVE SMOOTH",
"469 220 OFFCURVE",
"438 195 OFFCURVE",
"394 195 CURVE SMOOTH",
"329 195 LINE"
);
}
);
};
hints = (
{
horizontal = 1;
place = "{-2147483648, 0}";
type = Tag;
name = hr00;
}
);
layerId = "CD0242A6-29AC-4D05-B69A-5CFD858D4DA1";
name = "Dec 6 20, 14:56";
paths = (
{
closed = 1;
nodes = (
"395 0 LINE SMOOTH",
"586 0 OFFCURVE",
"729 87 OFFCURVE",
"729 276 CURVE SMOOTH",
"729 326 OFFCURVE",
"729 375 OFFCURVE",
"729 425 CURVE SMOOTH",
"729 604 OFFCURVE",
"581 700 OFFCURVE",
"394 700 CURVE SMOOTH",
"106 700 LINE SMOOTH",
"91 700 OFFCURVE",
"79 688 OFFCURVE",
"79 673 CURVE SMOOTH",
"79 429 LINE",
"41 429 LINE",
"26 429 OFFCURVE",
"14 417 OFFCURVE",
"14 402 CURVE SMOOTH",
"14 301 LINE SMOOTH",
"14 286 OFFCURVE",
"26 274 OFFCURVE",
"41 274 CURVE SMOOTH",
"79 274 LINE",
"79 27 LINE SMOOTH",
"79 12 OFFCURVE",
"91 0 OFFCURVE",
"106 0 CURVE SMOOTH"
);
},
{
closed = 1;
nodes = (
"329 274 LINE",
"385 274 LINE SMOOTH",
"400 274 OFFCURVE",
"412 286 OFFCURVE",
"412 301 CURVE SMOOTH",
"412 402 LINE SMOOTH",
"412 417 OFFCURVE",
"400 429 OFFCURVE",
"385 429 CURVE SMOOTH",
"329 429 LINE",
"329 505 LINE",
"394 505 LINE SMOOTH",
"439 505 OFFCURVE",
"469 481 OFFCURVE",
"469 425 CURVE SMOOTH",
"469 375 OFFCURVE",
"469 326 OFFCURVE",
"469 276 CURVE SMOOTH",
"469 220 OFFCURVE",
"438 195 OFFCURVE",
"394 195 CURVE SMOOTH",
"329 195 LINE"
);
}
);
width = 766;
}
);
leftKerningGroup = I;
rightKerningGroup = D;
unicode = 00D0;
userData = {
com.typemytype.robofont.guides = (
{
angle = 0;
isGlobal = 0;
magnetic = 5;
x = 0;
y = 350;
}
);
};
},
{
color = 1;
glyphname = Dcroat;
layers = (
{
background = {
paths = (
{
closed = 1;
nodes = (
"395 0 LINE SMOOTH",
"586 0 OFFCURVE",
"720 87 OFFCURVE",
"728 276 CURVE SMOOTH",
"730 330 OFFCURVE",
"730 368 OFFCURVE",
"728 425 CURVE SMOOTH",
"721 604 OFFCURVE",
"581 700 OFFCURVE",
"394 700 CURVE",
"106 700 LINE SMOOTH",
"91 700 OFFCURVE",
"79 688 OFFCURVE",
"79 673 CURVE SMOOTH",
"79 430 LINE",
"41 430 LINE SMOOTH",
"26 430 OFFCURVE",
"14 418 OFFCURVE",
"14 403 CURVE SMOOTH",
"14 302 LINE SMOOTH",
"14 287 OFFCURVE",
"26 275 OFFCURVE",
"41 275 CURVE SMOOTH",
"79 275 LINE",
"79 27 LINE SMOOTH",
"79 12 OFFCURVE",
"91 0 OFFCURVE",
"106 0 CURVE SMOOTH"
);
},
{
closed = 1;
nodes = (
"329 275 LINE",
"385 275 LINE SMOOTH",
"400 275 OFFCURVE",
"412 287 OFFCURVE",
"412 302 CURVE SMOOTH",
"412 403 LINE SMOOTH",
"412 418 OFFCURVE",
"400 430 OFFCURVE",
"385 430 CURVE SMOOTH",
"329 430 LINE",
"329 505 LINE",
"394 505 LINE SMOOTH",
"439 505 OFFCURVE",
"471 481 OFFCURVE",
"474 425 CURVE SMOOTH",
"477 370 OFFCURVE",
"477 333 OFFCURVE",
"474 276 CURVE SMOOTH",
"471 220 OFFCURVE",
"438 195 OFFCURVE",
"394 195 CURVE SMOOTH",
"329 195 LINE"
);
}
);
};
hints = (
{
horizontal = 1;
place = "{-2147483648, 0}";
type = Tag;
name = hr00;
}
);
layerId = "EC64484B-0978-4CB1-9EE9-C40A2D8C4059";
paths = (
{
closed = 1;
nodes = (
"135.692 -18 LINE",
"165.384 20 LINE",
"197.055 -1 LINE",
"228.726 20 LINE",
"268.315 -3 LINE",
"307.904 20 LINE",
"339.575 -9 LINE",
"371.247 20 LINE",
"405.721 -2.167 LINE",
"439.076 21.652 LINE",
"471.086 -5.245 LINE",
"494.667 29.281 LINE",
"534.506 15.279 LINE",
"559.78 49.109 LINE",
"594.485 25.318 LINE",
"595.439 67.383 LINE",
"639.253 78.011 LINE",
"655.294 120.146 LINE",
"693.465 124.595 LINE",
"680.77 160.866 LINE",
"715.028 189.922 LINE",
"703.483 233.334 LINE",
"745.289 274.87 LINE",
"709.263 321.509 LINE",
"745.336 343.652 LINE",
"709.41 366.035 LINE",
"743.695 395.869 LINE",
"708 424 LINE",
"743.939 452.442 LINE",
"702.406 471.822 LINE",
"712.109 506.593 LINE",
"683.78 528.968 LINE",
"692.844 557.326 LINE",
"663.772 563.738 LINE",
"667.035 592.593 LINE",
"638.06 594.528 LINE",
"635.28 625.56 LINE",
"604.241 622.867 LINE",
"592.747 660.078 LINE",
"555.118 650.035 LINE",
"521.96 686.733 LINE",
"474.306 673.492 LINE",
"433.846 698.681 LINE",
"390 680 LINE",
"354 700 LINE",
"318 680 LINE",
"294 716 LINE",
"270 680 LINE",
"238 711 LINE",
"206 680 LINE",
"164 709 LINE",
"122 680 LINE",
"92.426 660.174 LINE",
"99 625.182 LINE",
"72 587.326 LINE",
"99 549.47 LINE",
"70 511.614 LINE",
"99 473.758 LINE",
"61 449.848 LINE",
"99 425.939 LINE",
"64.194 448.473 LINE",
"48.733 410 LINE",
"10.901 396.867 LINE",
"34 364.154 LINE",
"8 336.962 LINE",
"34 309.769 LINE",
"41.907 265.612 LINE",
"75.8 295 LINE",
"57.139 257.499 LINE",
"99 259 LINE",
"62 239 LINE",
"99 219 LINE",
"63 197 LINE",
"99 175 LINE",
"65 149 LINE",
"99 123 LINE",
"64 81 LINE",
"99 39 LINE"
);
},
{
closed = 1;
nodes = (
"327.13 195 LINE",
"309 215 LINE",
"326.64 235 LINE",
"309 255 LINE",
"320.76 275 LINE",
"309 295 LINE",
"329 282.26 LINE",
"349 295 LINE",
"370.142 282.28 LINE",
"389.967 296.968 LINE",
"400.771 316.467 LINE",
"392 336.962 LINE",
"406.7 356.385 LINE",
"392 375.808 LINE",
"403.759 398.456 LINE",
"381 410 LINE",
"361 422.25 LINE",
"341 410 LINE",
"327.358 423.478 LINE",
"309 417.931 LINE",
"318.8 437.759 LINE",
"309 457.586 LINE",
"322.72 477.414 LINE",
"309 497.241 LINE",
"326.1 506.401 LINE",
"320.591 525 LINE",
"339.909 512.75 LINE",
"359.227 525 LINE",
"378.6 509.782 LINE",
"398.017 524.944 LINE",
"414.483 505.209 LINE",
"437.217 517.2 LINE",
"443.227 491.297 LINE",
"469.664 494.159 LINE",
"467.879 470.566 LINE",
"488.538 459.033 LINE",
"474.505 436.044 LINE",
"494.425 417.916 LINE",
"484.417 397.288 LINE",
"495.952 377.474 LINE",
"479.394 357.156 LINE",
"496.155 337.004 LINE",
"481.379 317.178 LINE",
"495.012 296.55 LINE",
"482.111 276.676 LINE",
"491.677 255 LINE",
"474.504 240.077 LINE",
"477.495 217.523 LINE",
"451.938 214.867 LINE",
"449.222 189.316 LINE",
"424.37 199.871 LINE",
"411.425 176.177 LINE",
"390.639 192.242 LINE",
"370.818 175 LINE",
"351.5 190.68 LINE",
"332.182 175 LINE"
);
},
{
closed = 1;
nodes = (
"232.432 96.406 LINE",
"221 66.751 LINE",
"185.588 67.219 LINE",
"174.112 105.643 LINE",
"211.704 135.753 LINE"
);
},
{
closed = 1;
nodes = (
"597.986 382.038 LINE",
"559.125 390.968 LINE",
"534.253 414.144 LINE",
"560.94 446.32 LINE",
"594.239 424.544 LINE"
);
},
{
closed = 1;
nodes = (
"340.195 359.203 LINE",
"303.962 319.98 LINE",
"254.656 315.472 LINE",
"250.251 368.412 LINE",
"293.01 385.65 LINE"
);
},
{
closed = 1;
nodes = (
"621.351 480.321 LINE",
"556.404 486.998 LINE",
"568.137 541.59 LINE",
"601.845 569.591 LINE",
"631.453 534.251 LINE"
);
},
{
closed = 1;
nodes = (
"248.314 439.686 LINE",
"228.374 434.071 LINE",
"219.222 453.816 LINE",
"233.871 470.754 LINE",
"247.692 456.448 LINE"
);
},
{
closed = 1;
nodes = (
"202.361 266.489 LINE",
"161.039 262.419 LINE",
"149 290 LINE",
"159.802 321.385 LINE",
"199.125 311.16 LINE"
);
},
{
closed = 1;
nodes = (
"673.248 359.799 LINE",
"645.216 363.381 LINE",
"638.675 389.616 LINE",
"661.744 405.939 LINE",
"690.079 388.5 LINE"
);
},
{
closed = 1;
nodes = (
"471.778 612.371 LINE",
"455.744 612.545 LINE",
"439.003 622.349 LINE",
"454.03 638.257 LINE",
"468.83 628.883 LINE"
);
},
{
closed = 1;
nodes = (
"267.634 523.147 LINE",
"218.858 550.328 LINE",
"195.591 593.708 LINE",
"245.119 614.687 LINE",
"279.265 580.632 LINE"
);
},
{
closed = 1;
nodes = (
"255.151 212.881 LINE",
"240.996 211.756 LINE",
"240.543 225.078 LINE",
"249.349 231.994 LINE",
"262.458 225.859 LINE"
);
},
{
closed = 1;
nodes = (
"612.829 296.197 LINE",
"595.915 268.57 LINE",
"564.636 284.941 LINE",
"568.059 319.46 LINE",
"600.988 322.564 LINE"
);
},
{
closed = 1;
nodes = (
"496.951 142.867 LINE",
"488.049 126.461 LINE",
"473.714 137.82 LINE",
"467.396 158.433 LINE",
"491.424 161.49 LINE"
);
},
{
closed = 1;
nodes = (
"438.709 38.064 LINE",
"430.5 38.638 LINE",
"425.728 47.746 LINE",
"435.628 52.978 LINE",
"442.762 45.935 LINE"
);
},
{
closed = 1;
nodes = (
"405.755 49.443 LINE",
"397.808 50.506 LINE",
"394.058 55.835 LINE",
"398.264 64.848 LINE",
"406.181 58.286 LINE"
);
},
{
closed = 1;
nodes = (
"524.65 642.327 LINE",
"515.5 627.742 LINE",
"501.64 630.825 LINE",
"491.643 646.728 LINE",
"510.882 656.901 LINE"
);
},
{
closed = 1;
nodes = (
"567.706 169.053 LINE",
"562.666 146.758 LINE",
"543.816 157.224 LINE",
"532.968 174.875 LINE",
"554.437 185.851 LINE"
);
},
{
closed = 1;
nodes = (
"125.632 347.872 LINE",
"117.05 350.05 LINE",
"115.763 358.178 LINE",
"123.251 362.902 LINE",
"126.938 355.782 LINE"
);
},
{
closed = 1;
nodes = (
"98.326 318.685 LINE",
"82.674 323.771 LINE",
"85.101 338.466 LINE",
"96.781 340.56 LINE",
"104 332 LINE"
);
},
{
closed = 1;
nodes = (
"169.345 351.629 LINE",
"160.093 342.032 LINE",
"154.208 353.307 LINE",
"156.761 361.784 LINE",
"167.428 362.66 LINE"
);
}
);
width = 764;
},
{
associatedMasterId = "EC64484B-0978-4CB1-9EE9-C40A2D8C4059";
background = {
paths = (
{
closed = 1;
nodes = (
"395 0 LINE SMOOTH",
"586 0 OFFCURVE",
"720 87 OFFCURVE",
"728 276 CURVE SMOOTH",
"730 330 OFFCURVE",
"730 368 OFFCURVE",
"728 425 CURVE SMOOTH",
"721 604 OFFCURVE",
"581 700 OFFCURVE",
"394 700 CURVE",
"106 700 LINE SMOOTH",
"91 700 OFFCURVE",
"79 688 OFFCURVE",
"79 673 CURVE SMOOTH",
"79 430 LINE",
"41 430 LINE SMOOTH",
"26 430 OFFCURVE",
"14 418 OFFCURVE",
"14 403 CURVE SMOOTH",
"14 302 LINE SMOOTH",
"14 287 OFFCURVE",
"26 275 OFFCURVE",
"41 275 CURVE SMOOTH",
"79 275 LINE",
"79 27 LINE SMOOTH",
"79 12 OFFCURVE",
"91 0 OFFCURVE",
"106 0 CURVE SMOOTH"
);
},
{
closed = 1;
nodes = (
"329 275 LINE",
"385 275 LINE SMOOTH",
"400 275 OFFCURVE",
"412 287 OFFCURVE",
"412 302 CURVE SMOOTH",
"412 403 LINE SMOOTH",
"412 418 OFFCURVE",
"400 430 OFFCURVE",
"385 430 CURVE SMOOTH",
"329 430 LINE",
"329 505 LINE",
"394 505 LINE SMOOTH",
"439 505 OFFCURVE",
"471 481 OFFCURVE",
"474 425 CURVE SMOOTH",
"477 370 OFFCURVE",
"477 333 OFFCURVE",
"474 276 CURVE SMOOTH",
"471 220 OFFCURVE",
"438 195 OFFCURVE",
"394 195 CURVE SMOOTH",
"329 195 LINE"
);
}
);
};
hints = (
{
horizontal = 1;
place = "{-2147483648, 0}";
type = Tag;
name = hr00;
}
);
layerId = "64B36BEF-4DB3-428B-B648-48D3B3A70964";
name = "Dec 6 20, 14:56";
paths = (
{
closed = 1;
nodes = (
"395 0 LINE SMOOTH",
"586 0 OFFCURVE",
"720 87 OFFCURVE",
"728 276 CURVE SMOOTH",
"730 330 OFFCURVE",
"730 368 OFFCURVE",
"728 425 CURVE SMOOTH",
"721 604 OFFCURVE",
"581 700 OFFCURVE",
"394 700 CURVE",
"106 700 LINE SMOOTH",
"91 700 OFFCURVE",
"79 688 OFFCURVE",
"79 673 CURVE SMOOTH",
"79 430 LINE",
"41 430 LINE SMOOTH",
"26 430 OFFCURVE",
"14 418 OFFCURVE",
"14 403 CURVE SMOOTH",
"14 302 LINE SMOOTH",
"14 287 OFFCURVE",
"26 275 OFFCURVE",
"41 275 CURVE SMOOTH",
"79 275 LINE",
"79 27 LINE SMOOTH",
"79 12 OFFCURVE",
"91 0 OFFCURVE",
"106 0 CURVE SMOOTH"
);
},
{
closed = 1;
nodes = (
"329 275 LINE",
"385 275 LINE SMOOTH",
"400 275 OFFCURVE",
"412 287 OFFCURVE",
"412 302 CURVE SMOOTH",
"412 403 LINE SMOOTH",
"412 418 OFFCURVE",
"400 430 OFFCURVE",
"385 430 CURVE SMOOTH",
"329 430 LINE",
"329 505 LINE",
"394 505 LINE SMOOTH",
"439 505 OFFCURVE",
"471 481 OFFCURVE",
"474 425 CURVE SMOOTH",
"477 370 OFFCURVE",
"477 333 OFFCURVE",
"474 276 CURVE SMOOTH",
"471 220 OFFCURVE",
"438 195 OFFCURVE",
"394 195 CURVE SMOOTH",
"329 195 LINE"
);
}
);
width = 764;
}
);
leftKerningGroup = I;
rightKerningGroup = D;
unicode = 0110;
userData = {
com.typemytype.robofont.guides = (
{
angle = 0;
isGlobal = 0;
magnetic = 5;
x = 0;
y = 352;
},
{
angle = 90;
isGlobal = 0;
magnetic = 5;
x = 340;
y = 0;
},
{
angle = 90;
isGlobal = 0;
magnetic = 5;
x = 105;
y = 0;
}
);
};
},
{
color = 1;
glyphname = E;
layers = (
{
anchors = (
{
name = bottom;
position = "{334, 0}";
},
{
name = ogonek;
position = "{600, 10}";
},
{
name = top;
position = "{334, 700}";
},
{
name = topleft;
position = "{20, 700}";
}
);
background = {
anchors = (
{
name = bottom;
position = "{334, 0}";
},
{
name = ogonek;
position = "{600, 10}";
},
{
name = top;
position = "{334, 700}";
},
{
name = topleft;
position = "{20, 700}";
}
);
paths = (
{
closed = 1;
nodes = (
"603 0 LINE SMOOTH",
"618 0 OFFCURVE",
"630 12 OFFCURVE",
"630 27 CURVE SMOOTH",
"630 168 LINE SMOOTH",
"630 183 OFFCURVE",
"618 195 OFFCURVE",
"603 195 CURVE SMOOTH",
"295 195 LINE",
"295 258 LINE",
"573 258 LINE SMOOTH",
"588 258 OFFCURVE",
"600 270 OFFCURVE",
"600 285 CURVE SMOOTH",
"600 415 LINE SMOOTH",
"600 430 OFFCURVE",
"588 442 OFFCURVE",
"573 442 CURVE SMOOTH",
"295 442 LINE",
"295 505 LINE",
"595 505 LINE SMOOTH",
"610 505 OFFCURVE",
"622 517 OFFCURVE",
"622 532 CURVE SMOOTH",
"622 673 LINE SMOOTH",
"622 688 OFFCURVE",
"610 700 OFFCURVE",
"595 700 CURVE SMOOTH",
"82 700 LINE SMOOTH",
"67 700 OFFCURVE",
"55 688 OFFCURVE",
"55 673 CURVE SMOOTH",
"55 27 LINE SMOOTH",
"55 12 OFFCURVE",
"67 0 OFFCURVE",
"82 0 CURVE SMOOTH"
);
}
);
};
layerId = "EC64484B-0978-4CB1-9EE9-C40A2D8C4059";
paths = (
{
closed = 1;
nodes = (
"117.794 -9 LINE",
"153.588 20 LINE",
"193.359 -19 LINE",
"233.13 20 LINE",
"264.947 -2 LINE",
"296.763 20 LINE",
"338.523 -1 LINE",
"380.282 20 LINE",
"408.122 -14 LINE",
"435.962 20 LINE",
"473.744 -4 LINE",
"511.527 20 LINE",
"551.298 0 LINE",
"591.069 20 LINE",
"625.448 29.962 LINE",
"610 62.25 LINE",
"643 81.833 LINE",
"610 101.417 LINE",
"632 128.833 LINE",
"610 156.25 LINE",
"586.471 201.256 LINE",
"543 175 LINE",
"501 199.5 LINE",
"459 175 LINE",
"437 200.2 LINE",
"415 175 LINE",
"389 201.6 LINE",
"363 175 LINE",
"343 201.6 LINE",
"323 175 LINE",
"299 200.2 LINE",
"275 175 LINE",
"310 200.75 LINE",
"275 226.5 LINE",
"308 250.269 LINE",
"275 274.038 LINE",
"308.397 250.169 LINE",
"338.573 278 LINE",
"376.32 257 LINE",
"414.067 278 LINE",
"435.92 258.4 LINE",
"457.773 278 LINE",
"483.6 260.5 LINE",
"509.427 278 LINE",
"547.746 271.056 LINE",
"580 292.879 LINE",
"613 326.364 LINE",
"580 359.848 LINE",
"599.133 395.271 LINE",
"569.027 422 LINE",
"537.24 446.5 LINE",
"505.453 422 LINE",
"467.707 448.6 LINE",
"429.96 422 LINE",
"402.147 436.7 LINE",
"374.333 422 LINE",
"334.6 447.2 LINE",
"294.867 422 LINE",
"319.286 464.459 LINE",
"275 485.385 LINE",
"304.362 494.674 LINE",
"299 525 LINE",
"337 499.8 LINE",
"375 525 LINE",
"417 506.8 LINE",
"459 525 LINE",
"489 508.2 LINE",
"519 525 LINE",
"547 498.4 LINE",
"575 525 LINE",
"602.056 542.734 LINE",
"602 575.083 LINE",
"631 616.208 LINE",
"602 657.333 LINE",
"600.244 687.284 LINE",
"571.14 680 LINE",
"545.291 712 LINE",
"519.442 680 LINE",
"487.628 716 LINE",
"455.814 680 LINE",
"427.977 717 LINE",
"400.14 680 LINE",
"370.314 707 LINE",
"340.488 680 LINE",
"312.651 714 LINE",
"284.814 680 LINE",
"245.047 709 LINE",
"205.279 680 LINE",
"175.453 714 LINE",
"145.628 680 LINE",
"107.24 694.268 LINE",
"75 669.012 LINE",
"39 629.136 LINE",
"75 589.259 LINE",
"49 565.333 LINE",
"75 541.407 LINE",
"51 509.506 LINE",
"75 477.605 LINE",
"42 439.722 LINE",
"75 401.84 LINE",
"52 369.938 LINE",
"75 338.037 LINE",
"49 308.13 LINE",
"75 278.222 LINE",
"36 258.284 LINE",
"75 238.346 LINE",
"50 198.469 LINE",
"75 158.593 LINE",
"46 128.685 LINE",
"75 98.778 LINE",
"39 64.883 LINE",
"75 30.988 LINE"
);
},
{
closed = 1;
nodes = (
"589.967 618.92 LINE",
"576.606 608.061 LINE",
"562.41 620.401 LINE",
"567.699 641.143 LINE",
"587.185 634.566 LINE"
);
},
{
closed = 1;
nodes = (
"356.471 594.767 LINE",
"323.384 583.003 LINE",
"293.689 594.907 LINE",
"308.556 624.167 LINE",
"337.913 626.298 LINE"
);
},
{
closed = 1;
nodes = (
"507.937 93.814 LINE",
"491.74 67.893 LINE",
"464.381 77.216 LINE",
"467.583 101.009 LINE",
"488.048 116.257 LINE"
);
},
{
closed = 1;
nodes = (
"156.922 139.113 LINE",
"153.822 128.113 LINE",
"143.245 132.443 LINE",
"139.288 143.164 LINE",
"150.91 148.833 LINE"
);
},
{
closed = 1;
nodes = (
"173.308 578.103 LINE",
"137.788 575.721 LINE",
"139.529 608.867 LINE",
"160.674 624.942 LINE",
"179.376 606.08 LINE"
);
},
{
closed = 1;
nodes = (
"435.914 342.905 LINE",
"429.782 339.062 LINE",
"422.763 340.822 LINE",
"424.757 348.243 LINE",
"432.632 351.128 LINE"
);
},
{
closed = 1;
nodes = (
"510.434 360.826 LINE",
"486.955 358.798 LINE",
"480.83 381.555 LINE",
"498.616 397.997 LINE",
"514.128 381.209 LINE"
);
},
{
closed = 1;
nodes = (
"149.065 399.287 LINE",
"119.938 390.214 LINE",
"100.349 408.006 LINE",
"108.446 439.371 LINE",
"144.534 434.3 LINE"
);
},
{
closed = 1;
nodes = (
"170.954 279.325 LINE",
"159.118 260.384 LINE",
"137.445 265.787 LINE",
"140.127 285.419 LINE",
"156.838 297.406 LINE"
);
},
{
closed = 1;
nodes = (
"583.792 138.307 LINE",
"577.419 134.015 LINE",
"566.801 135.879 LINE",
"569.929 148.426 LINE",
"580.18 145.088 LINE"
);
},
{
closed = 1;
nodes = (
"224.798 490.692 LINE",
"191.771 487.981 LINE",
"189.733 522.836 LINE",
"219.706 551.601 LINE",
"257.332 518.641 LINE"
);
},
{
closed = 1;
nodes = (
"505.918 563.97 LINE",
"493.746 564.692 LINE",
"483.077 573.463 LINE",
"495.337 579.825 LINE",
"509.124 579 LINE"
);
},
{
closed = 1;
nodes = (
"162.009 337.583 LINE",
"146.572 344.34 LINE",
"138.165 357.994 LINE",
"153.837 363.971 LINE",
"162.703 354.419 LINE"
);
},
{
closed = 1;
nodes = (
"140.951 93.605 LINE",
"124.145 82.386 LINE",
"106.583 85.991 LINE",
"107.211 106.57 LINE",
"128.118 112.616 LINE"
);
},
{
closed = 1;
nodes = (
"563.635 72.734 LINE",
"547.674 78.771 LINE",
"548.483 94.641 LINE",
"563.635 101.266 LINE",
"574 87 LINE"
);
},
{
closed = 1;
nodes = (
"365.178 327.109 LINE",
"347.052 321.136 LINE",
"332.258 332.048 LINE",
"336.794 357.957 LINE",
"361.504 347.948 LINE"
);
},
{
closed = 1;
nodes = (
"253.249 104.437 LINE",
"224.381 107.979 LINE",
"211.18 133.894 LINE",
"236.546 151.996 LINE",
"250.237 130.558 LINE"
);
}
);
width = 667;
},
{
anchors = (
{
name = bottom;
position = "{334, 0}";
},
{
name = ogonek;
position = "{600, 10}";
},
{
name = top;
position = "{334, 700}";
},
{
name = topleft;
position = "{20, 700}";
}
);
associatedMasterId = "EC64484B-0978-4CB1-9EE9-C40A2D8C4059";
background = {
anchors = (
{
name = bottom;
position = "{334, 0}";
},
{
name = ogonek;
position = "{600, 10}";
},
{
name = top;
position = "{334, 700}";
},
{
name = topleft;
position = "{20, 700}";
}
);
paths = (
{
closed = 1;
nodes = (
"603 0 LINE SMOOTH",
"618 0 OFFCURVE",
"630 12 OFFCURVE",
"630 27 CURVE SMOOTH",
"630 168 LINE SMOOTH",
"630 183 OFFCURVE",
"618 195 OFFCURVE",
"603 195 CURVE SMOOTH",
"295 195 LINE",
"295 258 LINE",
"573 258 LINE SMOOTH",
"588 258 OFFCURVE",
"600 270 OFFCURVE",
"600 285 CURVE SMOOTH",
"600 415 LINE SMOOTH",
"600 430 OFFCURVE",
"588 442 OFFCURVE",
"573 442 CURVE SMOOTH",
"295 442 LINE",
"295 505 LINE",
"595 505 LINE SMOOTH",
"610 505 OFFCURVE",
"622 517 OFFCURVE",
"622 532 CURVE SMOOTH",
"622 673 LINE SMOOTH",
"622 688 OFFCURVE",
"610 700 OFFCURVE",
"595 700 CURVE SMOOTH",
"82 700 LINE SMOOTH",
"67 700 OFFCURVE",
"55 688 OFFCURVE",
"55 673 CURVE SMOOTH",
"55 27 LINE SMOOTH",
"55 12 OFFCURVE",
"67 0 OFFCURVE",
"82 0 CURVE SMOOTH"
);
}
);
};
layerId = "4F01BD80-9A82-4C60-8149-D41429807A0B";
name = "Dec 6 20, 14:56";
paths = (
{
closed = 1;
nodes = (
"603 0 LINE SMOOTH",
"618 0 OFFCURVE",
"630 12 OFFCURVE",
"630 27 CURVE SMOOTH",
"630 168 LINE SMOOTH",
"630 183 OFFCURVE",
"618 195 OFFCURVE",
"603 195 CURVE SMOOTH",
"295 195 LINE",
"295 258 LINE",
"573 258 LINE SMOOTH",
"588 258 OFFCURVE",
"600 270 OFFCURVE",
"600 285 CURVE SMOOTH",
"600 415 LINE SMOOTH",
"600 430 OFFCURVE",
"588 442 OFFCURVE",
"573 442 CURVE SMOOTH",
"295 442 LINE",
"295 505 LINE",
"595 505 LINE SMOOTH",
"610 505 OFFCURVE",
"622 517 OFFCURVE",
"622 532 CURVE SMOOTH",
"622 673 LINE SMOOTH",
"622 688 OFFCURVE",
"610 700 OFFCURVE",
"595 700 CURVE SMOOTH",
"82 700 LINE SMOOTH",
"67 700 OFFCURVE",
"55 688 OFFCURVE",
"55 673 CURVE SMOOTH",
"55 27 LINE SMOOTH",
"55 12 OFFCURVE",
"67 0 OFFCURVE",
"82 0 CURVE SMOOTH"
);
}
);
width = 667;
}
);
leftKerningGroup = I;
rightKerningGroup = E;
unicode = 0045;
userData = {
com.typemytype.robofont.guides = (
{
angle = 0;
isGlobal = 0;
magnetic = 5;
x = 0;
y = 334;
},
{
angle = 0;
isGlobal = 0;
magnetic = 5;
x = 0;
y = 9;
},
{
angle = 0;
isGlobal = 0;
magnetic = 5;
x = 0;
y = 376;
},
{
angle = 0;
isGlobal = 0;
magnetic = 5;
x = 0;
y = 691;
},
{
angle = 0;
isGlobal = 0;
magnetic = 5;
x = 0;
y = 649;
},
{
angle = 90;
isGlobal = 0;
magnetic = 5;
x = 664;
y = 0;
},
{
angle = 90;
isGlobal = 0;
magnetic = 5;
x = 94;
y = 0;
},
{
angle = 90;
isGlobal = 0;
magnetic = 5;
x = 511;
y = 0;
}
);
};
},
{
color = 1;
glyphname = Eogonek;
layers = (
{
background = {
paths = (
{
closed = 1;
nodes = (
"603 -220 LINE SMOOTH",
"618 -220 OFFCURVE",
"630 -208 OFFCURVE",
"630 -193 CURVE SMOOTH",
"630 -125 LINE SMOOTH",
"630 -110 OFFCURVE",
"618 -98 OFFCURVE",
"603 -98 CURVE SMOOTH",
"593 -98 LINE SMOOTH",
"554 -98 OFFCURVE",
"543 -70 OFFCURVE",
"543 -49 CURVE SMOOTH",
"543 -28 OFFCURVE",
"554 0 OFFCURVE",
"593 0 CURVE SMOOTH",
"603 0 LINE SMOOTH",
"618 0 OFFCURVE",
"630 12 OFFCURVE",
"630 27 CURVE SMOOTH",
"630 168 LINE SMOOTH",
"630 183 OFFCURVE",
"618 195 OFFCURVE",
"603 195 CURVE SMOOTH",
"295 195 LINE",
"295 258 LINE",
"573 258 LINE SMOOTH",
"588 258 OFFCURVE",
"600 270 OFFCURVE",
"600 285 CURVE SMOOTH",
"600 415 LINE SMOOTH",
"600 430 OFFCURVE",
"588 442 OFFCURVE",
"573 442 CURVE SMOOTH",
"295 442 LINE",
"295 505 LINE",
"595 505 LINE SMOOTH",
"610 505 OFFCURVE",
"622 517 OFFCURVE",
"622 532 CURVE SMOOTH",
"622 673 LINE SMOOTH",
"622 688 OFFCURVE",
"610 700 OFFCURVE",
"595 700 CURVE SMOOTH",
"82 700 LINE SMOOTH",
"67 700 OFFCURVE",
"55 688 OFFCURVE",
"55 673 CURVE SMOOTH",
"55 27 LINE SMOOTH",
"55 12 OFFCURVE",
"67 0 OFFCURVE",
"82 0 CURVE SMOOTH",
"422 0 LINE",
"419 -16 OFFCURVE",
"417 -31 OFFCURVE",
"417 -49 CURVE SMOOTH",
"417 -144 OFFCURVE",
"468 -220 OFFCURVE",
"589 -220 CURVE SMOOTH"
);
}
);
};
hints = (
{
horizontal = 1;
place = "{-2147483648, 0}";
type = Tag;
name = hr01;
}
);
layerId = "EC64484B-0978-4CB1-9EE9-C40A2D8C4059";
paths = (
{
closed = 1;
nodes = (
"616.867 -171.943 LINE",
"610 -133 LINE",
"604.556 -102.373 LINE",
"576.851 -116.518 LINE",
"569.549 -77.345 LINE",
"529.91 -81.422 LINE",
"552.08 -54.4 LINE",
"524.552 -32.864 LINE",
"558.688 -28.714 LINE",
"543.637 2.205 LINE",
"571.69 -7.494 LINE",
"583.929 19.548 LINE",
"616.616 14.115 LINE",
"610 46.583 LINE",
"645 72.042 LINE",
"610 97.5 LINE",
"643 126.875 LINE",
"610 156.25 LINE",
"595.197 194.721 LINE",
"559 175 LINE",
"527 193.2 LINE",
"495 175 LINE",
"457 189 LINE",
"419 175 LINE",
"383 189.7 LINE",
"347 175 LINE",
"323 200.9 LINE",
"299 175 LINE",
"299.775 201.426 LINE",
"275 210.654 LINE",
"298 240.365 LINE",
"275 270.077 LINE",
"311.954 246.924 LINE",
"342.547 278 LINE",
"362.413 257.7 LINE",
"382.28 278 LINE",
"424 261.2 LINE",
"465.72 278 LINE",
"495.52 250.7 LINE",
"525.32 278 LINE",
"547.173 254.2 LINE",
"569.027 278 LINE",
"596.298 313.886 LINE",
"580 355.909 LINE",
"605 383.485 LINE",
"580 411.061 LINE",
"557.741 441.927 LINE",
"525.32 422 LINE",
"483.6 439.5 LINE",
"441.88 422 LINE",
"418.04 444.4 LINE",
"394.2 422 LINE",
"366.387 441.6 LINE",
"338.573 422 LINE",
"307.875 441.447 LINE",
"275 425.962 LINE",
"304 447.75 LINE",
"275 469.538 LINE",
"302.418 490.597 LINE",
"299 525 LINE",
"327 508.2 LINE",
"355 525 LINE",
"385 506.1 LINE",
"415 525 LINE",
"447 499.8 LINE",
"479 525 LINE",
"517 506.8 LINE",
"555 525 LINE",
"586.626 506.669 LINE",
"602 539.833 LINE",
"635 563.333 LINE",
"602 586.833 LINE",
"640 620.125 LINE",
"602 653.417 LINE",
"605.785 684.13 LINE",
"575.116 680 LINE",
"547.279 707 LINE",
"519.442 680 LINE",
"483.651 702 LINE",
"447.86 680 LINE",
"416.047 702 LINE",
"384.233 680 LINE",
"364.349 713 LINE",
"344.465 680 LINE",
"310.663 709 LINE",
"276.86 680 LINE",
"256.977 712 LINE",
"237.093 680 LINE",
"209.256 700 LINE",
"181.419 680 LINE",
"145.628 707 LINE",
"109.837 680 LINE",
"79.701 693.882 LINE",
"75 661.037 LINE",
"42 627.142 LINE",
"75 593.247 LINE",
"37 573.309 LINE",
"75 553.37 LINE",
"50 531.438 LINE",
"75 509.506 LINE",
"52 469.63 LINE",
"75 429.753 LINE",
"36 403.833 LINE",
"75 377.914 LINE",
"37 353.988 LINE",
"75 330.062 LINE",
"36 306.136 LINE",
"75 282.21 LINE",
"41 250.309 LINE",
"75 218.407 LINE",
"43 190.494 LINE",
"75 162.58 LINE",
"52 142.642 LINE",
"75 122.704 LINE",
"37 96.784 LINE",
"75 70.864 LINE",
"78.22 33.132 LINE",
"113.739 20 LINE",
"143.495 -16 LINE",
"173.25 20 LINE",
"210.94 -11 LINE",
"248.63 20 LINE",
"288.304 -5 LINE",
"327.978 20 LINE",
"367.652 -11 LINE",
"407.326 20 LINE",
"413.816 -23.083 LINE",
"444.29 8.055 LINE",
"408.046 -25.495 LINE",
"437.522 -65.124 LINE",
"405.357 -90.943 LINE",
"444.196 -104.825 LINE",
"433.907 -153.11 LINE",
"481.599 -165.869 LINE",
"507.74 -211.502 LINE",
"558.593 -198.097 LINE"
);
},
{
closed = 1;
nodes = (
"468.523 125.623 LINE",
"461.536 111.936 LINE",
"449.965 115.783 LINE",
"440.063 127.734 LINE",
"455.628 133.984 LINE"
);
},
{
closed = 1;
nodes = (
"207.745 502.162 LINE",
"174.807 480.129 LINE",
"142.102 514.07 LINE",
"171.263 548.524 LINE",
"204.683 534.355 LINE"
);
},
{
closed = 1;
nodes = (
"181.852 600.877 LINE",
"176.81 585.635 LINE",
"162.222 591.222 LINE",
"158.417 604.902 LINE",
"171.408 607.889 LINE"
);
},
{
closed = 1;
nodes = (
"219.881 646.95 LINE",
"209.917 632.312 LINE",
"193.03 634.77 LINE",
"194.379 650.333 LINE",
"206.862 659.724 LINE"
);
},
{
closed = 1;
nodes = (
"246.989 403.672 LINE",
"225.833 396.328 LINE",
"213.027 416.047 LINE",
"227.565 435.284 LINE",
"246.419 423.714 LINE"
);
},
{
closed = 1;
nodes = (
"547.512 302.472 LINE",
"515.871 297.246 LINE",
"493.32 312.933 LINE",
"510.828 333.038 LINE",
"542.335 340.335 LINE"
);
},
{
closed = 1;
nodes = (
"388.896 557.616 LINE",
"363.151 564.151 LINE",
"358.398 588.988 LINE",
"381.129 598.754 LINE",
"401.705 582.754 LINE"
);
},
{
closed = 1;
nodes = (
"545.128 72.791 LINE",
"529.651 58.003 LINE",
"510.874 72.153 LINE",
"518.528 94.383 LINE",
"540.833 92.375 LINE"
);
},
{
closed = 1;
nodes = (
"393.45 292.107 LINE",
"373.191 295.771 LINE",
"369.721 315.452 LINE",
"388.34 331.766 LINE",
"398.787 310.431 LINE"
);
},
{
closed = 1;
nodes = (
"489.968 602.093 LINE",
"479.661 592.327 LINE",
"462.583 593.991 LINE",
"468.574 610.071 LINE",
"482.619 616.908 LINE"
);
},
{
closed = 1;
nodes = (
"213.296 248.941 LINE",
"182.973 208.324 LINE",
"137.939 202.583 LINE",
"134.192 247.826 LINE",
"167.093 275.945 LINE"
);
},
{
closed = 1;
nodes = (
"531.864 655.948 LINE",
"525.452 638.721 LINE",
"502.894 639.412 LINE",
"505.639 660.573 LINE",
"522.341 678.62 LINE"
);
}
);
width = 667;
},
{
associatedMasterId = "EC64484B-0978-4CB1-9EE9-C40A2D8C4059";
background = {
paths = (
{
closed = 1;
nodes = (
"603 -220 LINE SMOOTH",
"618 -220 OFFCURVE",
"630 -208 OFFCURVE",
"630 -193 CURVE SMOOTH",
"630 -125 LINE SMOOTH",
"630 -110 OFFCURVE",
"618 -98 OFFCURVE",
"603 -98 CURVE SMOOTH",
"593 -98 LINE SMOOTH",
"554 -98 OFFCURVE",
"543 -70 OFFCURVE",
"543 -49 CURVE SMOOTH",
"543 -28 OFFCURVE",
"554 0 OFFCURVE",
"593 0 CURVE SMOOTH",
"603 0 LINE SMOOTH",
"618 0 OFFCURVE",
"630 12 OFFCURVE",
"630 27 CURVE SMOOTH",
"630 168 LINE SMOOTH",
"630 183 OFFCURVE",
"618 195 OFFCURVE",
"603 195 CURVE SMOOTH",
"295 195 LINE",
"295 258 LINE",
"573 258 LINE SMOOTH",
"588 258 OFFCURVE",
"600 270 OFFCURVE",
"600 285 CURVE SMOOTH",
"600 415 LINE SMOOTH",
"600 430 OFFCURVE",
"588 442 OFFCURVE",
"573 442 CURVE SMOOTH",
"295 442 LINE",
"295 505 LINE",
"595 505 LINE SMOOTH",
"610 505 OFFCURVE",
"622 517 OFFCURVE",
"622 532 CURVE SMOOTH",
"622 673 LINE SMOOTH",
"622 688 OFFCURVE",
"610 700 OFFCURVE",
"595 700 CURVE SMOOTH",
"82 700 LINE SMOOTH",
"67 700 OFFCURVE",
"55 688 OFFCURVE",
"55 673 CURVE SMOOTH",
"55 27 LINE SMOOTH",
"55 12 OFFCURVE",
"67 0 OFFCURVE",
"82 0 CURVE SMOOTH",
"422 0 LINE",
"419 -16 OFFCURVE",
"417 -31 OFFCURVE",
"417 -49 CURVE SMOOTH",
"417 -144 OFFCURVE",
"468 -220 OFFCURVE",
"589 -220 CURVE SMOOTH"
);
}
);
};
hints = (
{
horizontal = 1;
place = "{-2147483648, 0}";
type = Tag;
name = hr01;
}
);
layerId = "59C49397-D12F-4BF9-84DB-D392806D3910";
name = "Dec 6 20, 14:56";
paths = (
{
closed = 1;
nodes = (
"603 -220 LINE SMOOTH",
"618 -220 OFFCURVE",
"630 -208 OFFCURVE",
"630 -193 CURVE SMOOTH",
"630 -125 LINE SMOOTH",
"630 -110 OFFCURVE",
"618 -98 OFFCURVE",
"603 -98 CURVE SMOOTH",
"593 -98 LINE SMOOTH",
"554 -98 OFFCURVE",
"543 -70 OFFCURVE",
"543 -49 CURVE SMOOTH",
"543 -28 OFFCURVE",
"554 0 OFFCURVE",
"593 0 CURVE SMOOTH",
"603 0 LINE SMOOTH",
"618 0 OFFCURVE",
"630 12 OFFCURVE",
"630 27 CURVE SMOOTH",
"630 168 LINE SMOOTH",
"630 183 OFFCURVE",
"618 195 OFFCURVE",
"603 195 CURVE SMOOTH",
"295 195 LINE",
"295 258 LINE",
"573 258 LINE SMOOTH",
"588 258 OFFCURVE",
"600 270 OFFCURVE",
"600 285 CURVE SMOOTH",
"600 415 LINE SMOOTH",
"600 430 OFFCURVE",
"588 442 OFFCURVE",
"573 442 CURVE SMOOTH",
"295 442 LINE",
"295 505 LINE",
"595 505 LINE SMOOTH",
"610 505 OFFCURVE",
"622 517 OFFCURVE",
"622 532 CURVE SMOOTH",
"622 673 LINE SMOOTH",
"622 688 OFFCURVE",
"610 700 OFFCURVE",
"595 700 CURVE SMOOTH",
"82 700 LINE SMOOTH",
"67 700 OFFCURVE",
"55 688 OFFCURVE",
"55 673 CURVE SMOOTH",
"55 27 LINE SMOOTH",
"55 12 OFFCURVE",
"67 0 OFFCURVE",
"82 0 CURVE SMOOTH",
"422 0 LINE",
"419 -16 OFFCURVE",
"417 -31 OFFCURVE",
"417 -49 CURVE SMOOTH",
"417 -144 OFFCURVE",
"468 -220 OFFCURVE",
"589 -220 CURVE SMOOTH"
);
}
);
width = 667;
}
);
leftKerningGroup = I;
rightKerningGroup = E;
unicode = 0118;
userData = {
com.typemytype.robofont.guides = (
{
angle = 90;
isGlobal = 0;
magnetic = 5;
x = 355;
y = 0;
}
);
};
},
{
color = 1;
glyphname = F;
layers = (
{
background = {
paths = (
{
closed = 1;
nodes = (
"273 0 LINE SMOOTH",
"288 0 OFFCURVE",
"300 12 OFFCURVE",
"300 27 CURVE SMOOTH",
"300 215 LINE",
"566 215 LINE SMOOTH",
"581 215 OFFCURVE",
"593 227 OFFCURVE",
"593 242 CURVE SMOOTH",
"593 393 LINE SMOOTH",
"593 408 OFFCURVE",
"581 420 OFFCURVE",
"566 420 CURVE SMOOTH",
"300 420 LINE",
"300 494 LINE",
"586 494 LINE SMOOTH",
"601 494 OFFCURVE",
"613 506 OFFCURVE",
"613 521 CURVE SMOOTH",
"613 673 LINE SMOOTH",
"613 688 OFFCURVE",
"601 700 OFFCURVE",
"586 700 CURVE SMOOTH",
"82 700 LINE SMOOTH",
"67 700 OFFCURVE",
"55 688 OFFCURVE",
"55 673 CURVE SMOOTH",
"55 27 LINE SMOOTH",
"55 12 OFFCURVE",
"67 0 OFFCURVE",
"82 0 CURVE SMOOTH"
);
}
);
};
hints = (
{
horizontal = 1;
place = "{-2147483648, 0}";
type = Tag;
name = hr00;
}
);
layerId = "EC64484B-0978-4CB1-9EE9-C40A2D8C4059";
paths = (
{
closed = 1;
nodes = (
"117.812 -6 LINE",
"153.625 20 LINE",
"179.49 -4 LINE",
"205.354 20 LINE",
"244.918 -0.395 LINE",
"280 27 LINE",
"308 59 LINE",
"280 91 LINE",
"305 115 LINE",
"280 139 LINE",
"303 177 LINE",
"280 215 LINE",
"313.987 196.2 LINE",
"315.75 235 LINE",
"353.486 215 LINE",
"391.222 235 LINE",
"423 210 LINE",
"454.778 235 LINE",
"486.556 200 LINE",
"518.333 235 LINE",
"556.165 227.075 LINE",
"573 261.868 LINE",
"600 297.632 LINE",
"573 333.395 LINE",
"597.005 366.442 LINE",
"571.032 397.967 LINE",
"543.575 423.468 LINE",
"514.361 400 LINE",
"484.569 418.2 LINE",
"454.778 400 LINE",
"413.069 420.3 LINE",
"371.361 400 LINE",
"335.611 425.9 LINE",
"299.861 400 LINE",
"301.748 421.769 LINE",
"280 419.655 LINE",
"319 443.241 LINE",
"280 466.828 LINE",
"320.46 484.266 LINE",
"287.948 514 LINE",
"321.727 486.7 LINE",
"355.506 514 LINE",
"383.325 497.9 LINE",
"411.143 514 LINE",
"448.896 500 LINE",
"486.649 514 LINE",
"524.403 491.6 LINE",
"562.156 514 LINE",
"592.465 514.688 LINE",
"593 545 LINE",
"624 565 LINE",
"593 585 LINE",
"621 625 LINE",
"593 665 LINE",
"576.811 704.159 LINE",
"542 680 LINE",
"512 719 LINE",
"482 680 LINE",
"448 711 LINE",
"414 680 LINE",
"374 719 LINE",
"334 680 LINE",
"312 704 LINE",
"290 680 LINE",
"262 719 LINE",
"234 680 LINE",
"198 704 LINE",
"162 680 LINE",
"132 709 LINE",
"102 680 LINE",
"71.958 658.171 LINE",
"75 621.16 LINE",
"40 583.278 LINE",
"75 545.395 LINE",
"46 521.469 LINE",
"75 497.543 LINE",
"51 469.63 LINE",
"75 441.716 LINE",
"55 421.778 LINE",
"75 401.84 LINE",
"54 381.901 LINE",
"75 361.963 LINE",
"49 326.074 LINE",
"75 290.185 LINE",
"55 248.315 LINE",
"75 206.444 LINE",
"43 170.556 LINE",
"75 134.667 LINE",
"54 102.765 LINE",
"75 70.864 LINE"
);
},
{
closed = 1;
nodes = (
"388.659 279.611 LINE",
"367.527 269.304 LINE",
"353.175 286.495 LINE",
"363.986 303.381 LINE",
"383.229 300.809 LINE"
);
},
{
closed = 1;
nodes = (
"222.791 409.084 LINE",
"176.827 396.029 LINE",
"169.194 438.169 LINE",
"188.512 468.375 LINE",
"217.74 447.605 LINE"
);
},
{
closed = 1;
nodes = (
"157.844 148.773 LINE",
"144.257 138.197 LINE",
"127.873 143.488 LINE",
"132.649 160.031 LINE",
"147.699 162.684 LINE"
);
},
{
closed = 1;
nodes = (
"461.966 564.784 LINE",
"456.907 554.795 LINE",
"446.962 558.752 LINE",
"445.285 568.635 LINE",
"455.924 576.667 LINE"
);
},
{
closed = 1;
nodes = (
"473.616 333.626 LINE",
"460.133 324.049 LINE",
"446.113 331.53 LINE",
"453.095 343.792 LINE",
"463.12 343.857 LINE"
);
},
{
closed = 1;
nodes = (
"553.47 543.36 LINE",
"518.783 542.958 LINE",
"505.201 575.545 LINE",
"534.267 587.987 LINE",
"566.01 578.287 LINE"
);
},
{
closed = 1;
nodes = (
"262.846 586.35 LINE",
"259.575 580.714 LINE",
"251.095 578.208 LINE",
"250.556 587.735 LINE",
"257.784 593.966 LINE"
);
},
{
closed = 1;
nodes = (
"543.64 285.373 LINE",
"512.062 267.639 LINE",
"493.68 307.06 LINE",
"527.197 322.829 LINE",
"555.377 311.833 LINE"
);
},
{
closed = 1;
nodes = (
"327.903 588.92 LINE",
"313.377 582.477 LINE",
"306.015 595.424 LINE",
"312.341 608.137 LINE",
"326.326 603.552 LINE"
);
},
{
closed = 1;
nodes = (
"114.496 438.417 LINE",
"102.419 430.007 LINE",
"87.905 436.87 LINE",
"95.228 450.668 LINE",
"106.474 448.632 LINE"
);
},
{
closed = 1;
nodes = (
"171.422 42.853 LINE",
"136.449 53.595 LINE",
"132.885 87.5 LINE",
"164.861 105.279 LINE",
"189.825 76.345 LINE"
);
},
{
closed = 1;
nodes = (
"224.754 562.978 LINE",
"196.198 545.404 LINE",
"173.633 556.819 LINE",
"176.642 581.322 LINE",
"201.72 587.845 LINE"
);
},
{
closed = 1;
nodes = (
"217.271 230.468 LINE",
"180.493 239.015 LINE",
"176.448 281.924 LINE",
"217.271 287.532 LINE",
"256 259 LINE"
);
}
);
width = 646;
},
{
associatedMasterId = "EC64484B-0978-4CB1-9EE9-C40A2D8C4059";
background = {
paths = (
{
closed = 1;
nodes = (
"273 0 LINE SMOOTH",
"288 0 OFFCURVE",
"300 12 OFFCURVE",
"300 27 CURVE SMOOTH",
"300 215 LINE",
"566 215 LINE SMOOTH",
"581 215 OFFCURVE",
"593 227 OFFCURVE",
"593 242 CURVE SMOOTH",
"593 393 LINE SMOOTH",
"593 408 OFFCURVE",
"581 420 OFFCURVE",
"566 420 CURVE SMOOTH",
"300 420 LINE",
"300 494 LINE",
"586 494 LINE SMOOTH",
"601 494 OFFCURVE",
"613 506 OFFCURVE",
"613 521 CURVE SMOOTH",
"613 673 LINE SMOOTH",
"613 688 OFFCURVE",
"601 700 OFFCURVE",
"586 700 CURVE SMOOTH",
"82 700 LINE SMOOTH",
"67 700 OFFCURVE",
"55 688 OFFCURVE",
"55 673 CURVE SMOOTH",
"55 27 LINE SMOOTH",
"55 12 OFFCURVE",
"67 0 OFFCURVE",
"82 0 CURVE SMOOTH"
);
}
);
};
hints = (
{
horizontal = 1;
place = "{-2147483648, 0}";
type = Tag;
name = hr00;
}
);
layerId = "E590FED2-D4AA-46B5-A9B4-80D0D2EC27BB";
name = "Dec 6 20, 14:56";
paths = (
{
closed = 1;
nodes = (
"273 0 LINE SMOOTH",
"288 0 OFFCURVE",
"300 12 OFFCURVE",
"300 27 CURVE SMOOTH",
"300 215 LINE",
"566 215 LINE SMOOTH",
"581 215 OFFCURVE",
"593 227 OFFCURVE",
"593 242 CURVE SMOOTH",
"593 393 LINE SMOOTH",
"593 408 OFFCURVE",
"581 420 OFFCURVE",
"566 420 CURVE SMOOTH",
"300 420 LINE",
"300 494 LINE",
"586 494 LINE SMOOTH",
"601 494 OFFCURVE",
"613 506 OFFCURVE",
"613 521 CURVE SMOOTH",
"613 673 LINE SMOOTH",
"613 688 OFFCURVE",
"601 700 OFFCURVE",
"586 700 CURVE SMOOTH",
"82 700 LINE SMOOTH",
"67 700 OFFCURVE",
"55 688 OFFCURVE",
"55 673 CURVE SMOOTH",
"55 27 LINE SMOOTH",
"55 12 OFFCURVE",
"67 0 OFFCURVE",
"82 0 CURVE SMOOTH"
);
}
);
width = 646;
}
);
leftKerningGroup = I;
unicode = 0046;
userData = {
com.typemytype.robofont.guides = (
{
angle = 0;
isGlobal = 0;
magnetic = 5;
x = 0;
y = 320;
},
{
angle = 0;
isGlobal = 0;
magnetic = 5;
x = 0;
y = 691;
},
{
angle = 0;
isGlobal = 0;
magnetic = 5;
x = 0;
y = 649;
},
{
angle = 0;
isGlobal = 0;
magnetic = 5;
x = 0;
y = 362;
},
{
angle = 0;
isGlobal = 0;
magnetic = 5;
x = 0;
y = 9;
},
{
angle = 90;
isGlobal = 0;
magnetic = 5;
x = 761;
y = 0;
},
{
angle = 90;
isGlobal = 0;
magnetic = 5;
x = 94;
y = 0;
},
{
angle = 90;
isGlobal = 0;
magnetic = 5;
x = 487;
y = 0;
},
{
angle = 90;
isGlobal = 0;
magnetic = 5;
x = 139;
y = 0;
}
);
};
},
{
color = 1;
glyphname = G;
layers = (
{
background = {
paths = (
{
closed = 1;
nodes = (
"576 -10 OFFCURVE",
"718 85 OFFCURVE",
"718 265 CURVE SMOOTH",
"718 395 LINE SMOOTH",
"718 410 OFFCURVE",
"706 422 OFFCURVE",
"691 422 CURVE SMOOTH",
"416 422 LINE SMOOTH",
"401 422 OFFCURVE",
"389 410 OFFCURVE",
"389 395 CURVE SMOOTH",
"389 284 LINE SMOOTH",
"389 269 OFFCURVE",
"401 257 OFFCURVE",
"416 257 CURVE SMOOTH",
"463 257 LINE",
"463 256 LINE",
"463 205 OFFCURVE",
"428 185 OFFCURVE",
"378 185 CURVE SMOOTH",
"329 185 OFFCURVE",
"299 210 OFFCURVE",
"297 270 CURVE",
"295 327 OFFCURVE",
"295 385 OFFCURVE",
"297 440 CURVE",
"299 490 OFFCURVE",
"325 515 OFFCURVE",
"374 515 CURVE SMOOTH",
"423 515 OFFCURVE",
"438 486 OFFCURVE",
"446 476 CURVE SMOOTH",
"452 469 OFFCURVE",
"460 465 OFFCURVE",
"475 465 CURVE SMOOTH",
"696 465 LINE SMOOTH",
"708 465 OFFCURVE",
"718 475 OFFCURVE",
"718 487 CURVE SMOOTH",
"715 608 OFFCURVE",
"585 710 OFFCURVE",
"374 710 CURVE SMOOTH",
"177 710 OFFCURVE",
"44 622 OFFCURVE",
"37 445 CURVE",
"35 388 OFFCURVE",
"35 319 OFFCURVE",
"37 265 CURVE SMOOTH",
"45 79 OFFCURVE",
"172 -10 OFFCURVE",
"374 -10 CURVE SMOOTH"
);
}
);
};
hints = (
{
horizontal = 1;
place = "{-2147483648, 0}";
type = Tag;
name = hr01;
}
);
layerId = "EC64484B-0978-4CB1-9EE9-C40A2D8C4059";
paths = (
{
closed = 1;
nodes = (
"401.204 -14.849 LINE",
"426.165 12.253 LINE",
"463.973 -8.009 LINE",
"493.536 23.071 LINE",
"538.129 11.315 LINE",
"565.323 48.561 LINE",
"600.675 32.393 LINE",
"603.229 71.183 LINE",
"656.195 75.242 LINE",
"659.151 128.282 LINE",
"699.422 156.789 LINE",
"691.794 205.536 LINE",
"730.797 244.405 LINE",
"698 288.636 LINE",
"733 324.091 LINE",
"698 359.545 LINE",
"697.658 398.266 LINE",
"659.116 402 LINE",
"617.268 426.5 LINE",
"575.42 402 LINE",
"555.493 425.1 LINE",
"535.565 402 LINE",
"503.681 422.3 LINE",
"471.797 402 LINE",
"447.884 427.9 LINE",
"423.971 402 LINE",
"396.556 393.211 LINE",
"409 367.25 LINE",
"383.1 329.589 LINE",
"409 291.929 LINE",
"425.361 270.596 LINE",
"451.471 277 LINE",
"450.972 244.236 LINE",
"479.58 228.258 LINE",
"437.029 220.493 LINE",
"437.802 177.246 LINE",
"404.538 198.484 LINE",
"383.523 165.079 LINE",
"359.423 206.53 LINE",
"319.644 179.76 LINE",
"319.404 215.131 LINE",
"285.072 223.645 LINE",
"296.849 250.993 LINE",
"276.861 273.063 LINE",
"302.886 298.067 LINE",
"275.725 321.832 LINE",
"302.442 362.406 LINE",
"275.96 403.134 LINE",
"314.479 430.229 LINE",
"279.106 461.32 LINE",
"314.47 469.134 LINE",
"294.052 499.047 LINE",
"323.18 498.159 LINE",
"328.682 526.777 LINE",
"364.518 501.251 LINE",
"394.522 533.43 LINE",
"409.907 500.305 LINE",
"445.499 508.504 LINE",
"461.619 473.062 LINE",
"498.679 485 LINE",
"540.116 463.3 LINE",
"581.554 485 LINE",
"615.098 463.3 LINE",
"648.643 485 LINE",
"674.398 459.422 LINE",
"698 487 LINE",
"720.566 520.317 LINE",
"686.399 541.576 LINE",
"696.087 580.658 LINE",
"656.67 588.875 LINE",
"642.356 638.357 LINE",
"590.899 640.719 LINE",
"569.499 671.82 LINE",
"532.163 666.232 LINE",
"505.14 707.754 LINE",
"462.12 683.185 LINE",
"442.688 706.617 LINE",
"418.347 688.337 LINE",
"372.116 721.229 LINE",
"326.04 688.121 LINE",
"280.139 707.654 LINE",
"243.353 673.961 LINE",
"201.83 681.069 LINE",
"176.625 647.314 LINE",
"126.739 657.504 LINE",
"122.303 606.782 LINE",
"78.622 590.961 LINE",
"79.413 544.509 LINE",
"45.23 514.675 LINE",
"59.241 471.521 LINE",
"23.597 437.259 LINE",
"55.879 399.813 LINE",
"29.718 367.797 LINE",
"55.557 335.521 LINE",
"19.846 314.921 LINE",
"56.127 295.342 LINE",
"24.248 260.608 LINE",
"60.235 230.149 LINE",
"47.16 184.945 LINE",
"82.158 153.489 LINE",
"76.594 106.428 LINE",
"122.361 94.137 LINE",
"126.549 47.702 LINE",
"172.623 54.836 LINE",
"181.193 11.283 LINE",
"219.819 33.156 LINE",
"234.61 -11.312 LINE",
"269.95 19.465 LINE",
"305.72 -19.814 LINE",
"349.375 10.462 LINE"
);
},
{
closed = 1;
nodes = (
"162.895 293.712 LINE",
"122 271 LINE",
"73.496 291.24 LINE",
"100.252 336.934 LINE",
"141.397 333.698 LINE"
);
},
{
closed = 1;
nodes = (
"471.25 543.619 LINE",
"462.294 533.104 LINE",
"450.257 544.329 LINE",
"459.152 555.746 LINE",
"470.138 553.582 LINE"
);
},
{
closed = 1;
nodes = (
"164.126 452.684 LINE",
"127.927 433.153 LINE",
"102.161 450.832 LINE",
"98.235 490.726 LINE",
"148.5 501.703 LINE"
);
},
{
closed = 1;
nodes = (
"690.563 332.076 LINE",
"681.175 325.002 LINE",
"670.599 331.419 LINE",
"673.176 345.382 LINE",
"686.736 343.192 LINE"
);
},
{
closed = 1;
nodes = (
"249.17 519.901 LINE",
"205.184 510.713 LINE",
"170 544 LINE",
"200.858 590.602 LINE",
"249.17 568.099 LINE"
);
},
{
closed = 1;
nodes = (
"273.435 110.565 LINE",
"251.374 107.071 LINE",
"239.259 127.285 LINE",
"256.558 145.729 LINE",
"280.493 134.442 LINE"
);
},
{
closed = 1;
nodes = (
"601.131 502.685 LINE",
"552.209 522.084 LINE",
"552.012 563.514 LINE",
"585.915 578.43 LINE",
"630.62 554.215 LINE"
);
},
{
closed = 1;
nodes = (
"236.265 173.461 LINE",
"215.92 162.624 LINE",
"194.066 181.117 LINE",
"215.756 195.981 LINE",
"234.023 193.927 LINE"
);
},
{
closed = 1;
nodes = (
"523.16 299.876 LINE",
"497.257 300.59 LINE",
"473.433 328.199 LINE",
"508.267 338.987 LINE",
"543.769 330.655 LINE"
);
},
{
closed = 1;
nodes = (
"631.013 305.813 LINE",
"596.608 314.3 LINE",
"574.412 347.681 LINE",
"613.012 362.982 LINE",
"638.915 341.718 LINE"
);
},
{
closed = 1;
nodes = (
"191.456 232.351 LINE",
"170.76 225.43 LINE",
"165.09 249.511 LINE",
"184.279 258.998 LINE",
"204.082 249.14 LINE"
);
},
{
closed = 1;
nodes = (
"667.5 211.957 LINE",
"627.588 220.219 LINE",
"615.199 259.049 LINE",
"651.404 266.874 LINE",
"672.476 248.99 LINE"
);
},
{
closed = 1;
nodes = (
"467.933 150.097 LINE",
"462.804 140.843 LINE",
"448.03 138.77 LINE",
"448.505 154.818 LINE",
"462.244 165.688 LINE"
);
}
);
width = 753;
},
{
associatedMasterId = "EC64484B-0978-4CB1-9EE9-C40A2D8C4059";
background = {
paths = (
{
closed = 1;
nodes = (
"576 -10 OFFCURVE",
"718 85 OFFCURVE",
"718 265 CURVE SMOOTH",
"718 395 LINE SMOOTH",
"718 410 OFFCURVE",
"706 422 OFFCURVE",
"691 422 CURVE SMOOTH",
"416 422 LINE SMOOTH",
"401 422 OFFCURVE",
"389 410 OFFCURVE",
"389 395 CURVE SMOOTH",
"389 284 LINE SMOOTH",
"389 269 OFFCURVE",
"401 257 OFFCURVE",
"416 257 CURVE SMOOTH",
"463 257 LINE",
"463 256 LINE",
"463 205 OFFCURVE",
"428 185 OFFCURVE",
"378 185 CURVE SMOOTH",
"329 185 OFFCURVE",
"299 210 OFFCURVE",
"297 270 CURVE",
"295 327 OFFCURVE",
"295 385 OFFCURVE",
"297 440 CURVE",
"299 490 OFFCURVE",
"325 515 OFFCURVE",
"374 515 CURVE SMOOTH",
"423 515 OFFCURVE",
"438 486 OFFCURVE",
"446 476 CURVE SMOOTH",
"452 469 OFFCURVE",
"460 465 OFFCURVE",
"475 465 CURVE SMOOTH",
"696 465 LINE SMOOTH",
"708 465 OFFCURVE",
"718 475 OFFCURVE",
"718 487 CURVE SMOOTH",
"715 608 OFFCURVE",
"585 710 OFFCURVE",
"374 710 CURVE SMOOTH",
"177 710 OFFCURVE",
"44 622 OFFCURVE",
"37 445 CURVE",
"35 388 OFFCURVE",
"35 319 OFFCURVE",
"37 265 CURVE SMOOTH",
"45 79 OFFCURVE",
"172 -10 OFFCURVE",
"374 -10 CURVE SMOOTH"
);
}
);
};
hints = (
{
horizontal = 1;
place = "{-2147483648, 0}";
type = Tag;
name = hr01;
}
);
layerId = "9AC13148-3F86-4605-A514-6B78B9EC711E";
name = "Dec 6 20, 14:56";
paths = (
{
closed = 1;
nodes = (
"576 -10 OFFCURVE",
"718 85 OFFCURVE",
"718 265 CURVE SMOOTH",
"718 395 LINE SMOOTH",
"718 410 OFFCURVE",
"706 422 OFFCURVE",
"691 422 CURVE SMOOTH",
"416 422 LINE SMOOTH",
"401 422 OFFCURVE",
"389 410 OFFCURVE",
"389 395 CURVE SMOOTH",
"389 284 LINE SMOOTH",
"389 269 OFFCURVE",
"401 257 OFFCURVE",
"416 257 CURVE SMOOTH",
"463 257 LINE",
"463 256 LINE",
"463 205 OFFCURVE",
"428 185 OFFCURVE",
"378 185 CURVE SMOOTH",
"329 185 OFFCURVE",
"299 210 OFFCURVE",
"297 270 CURVE",
"295 327 OFFCURVE",
"295 385 OFFCURVE",
"297 440 CURVE",
"299 490 OFFCURVE",
"325 515 OFFCURVE",
"374 515 CURVE SMOOTH",
"423 515 OFFCURVE",
"438 486 OFFCURVE",
"446 476 CURVE SMOOTH",
"452 469 OFFCURVE",
"460 465 OFFCURVE",
"475 465 CURVE SMOOTH",
"696 465 LINE SMOOTH",
"708 465 OFFCURVE",
"718 475 OFFCURVE",
"718 487 CURVE SMOOTH",
"715 608 OFFCURVE",
"585 710 OFFCURVE",
"374 710 CURVE SMOOTH",
"177 710 OFFCURVE",
"44 622 OFFCURVE",
"37 445 CURVE",
"35 388 OFFCURVE",
"35 319 OFFCURVE",
"37 265 CURVE SMOOTH",
"45 79 OFFCURVE",
"172 -10 OFFCURVE",
"374 -10 CURVE SMOOTH"
);
}
);
width = 753;
}
);
leftKerningGroup = O;
rightKerningGroup = G;
unicode = 0047;
userData = {
com.typemytype.robofont.guides = (
{
angle = 0;
isGlobal = 0;
magnetic = 5;
x = 0;
y = "-10";
},
{
angle = 0;
isGlobal = 0;
magnetic = 5;
x = 0;
y = 260;
},
{
angle = 0;
isGlobal = 0;
magnetic = 5;
x = 0;
y = 440;
},
{
angle = 90;
isGlobal = 0;
magnetic = 5;
x = 334;
y = 0;
},
{
angle = 90;
isGlobal = 0;
magnetic = 5;
x = 133;
y = 0;
},
{
angle = 90;
isGlobal = 0;
magnetic = 5;
x = 604;
y = 0;
},
{
angle = 90;
isGlobal = 0;
magnetic = 5;
x = 67;
y = 0;
}
);
};
},
{
color = 1;
glyphname = H;
layers = (
{
background = {
paths = (
{
closed = 1;
nodes = (
"278 0 LINE SMOOTH",
"293 0 OFFCURVE",
"305 12 OFFCURVE",
"305 27 CURVE SMOOTH",
"305 243 LINE",
"467 243 LINE",
"467 27 LINE SMOOTH",
"467 12 OFFCURVE",
"479 0 OFFCURVE",
"494 0 CURVE SMOOTH",
"690 0 LINE SMOOTH",
"705 0 OFFCURVE",
"717 12 OFFCURVE",
"717 27 CURVE SMOOTH",
"717 673 LINE SMOOTH",
"717 688 OFFCURVE",
"705 700 OFFCURVE",
"690 700 CURVE SMOOTH",
"494 700 LINE SMOOTH",
"479 700 OFFCURVE",
"467 688 OFFCURVE",
"467 673 CURVE SMOOTH",
"467 463 LINE",
"305 463 LINE",
"305 673 LINE SMOOTH",
"305 688 OFFCURVE",
"293 700 OFFCURVE",
"278 700 CURVE SMOOTH",
"82 700 LINE SMOOTH",
"67 700 OFFCURVE",
"55 688 OFFCURVE",
"55 673 CURVE SMOOTH",
"55 27 LINE SMOOTH",
"55 11 OFFCURVE",
"67 0 OFFCURVE",
"82 0 CURVE SMOOTH"
);
}
);
};
layerId = "EC64484B-0978-4CB1-9EE9-C40A2D8C4059";
paths = (
{
closed = 1;
nodes = (
"124 -14 LINE",
"166 20 LINE",
"192 -16 LINE",
"218 20 LINE",
"255.449 -14.294 LINE",
"285 27 LINE",
"309 65 LINE",
"285 103 LINE",
"322 133 LINE",
"285 163 LINE",
"308 205 LINE",
"285 247 LINE",
"324.52 223.974 LINE",
"348.373 263 LINE",
"387.98 231 LINE",
"427.588 263 LINE",
"455.01 227.077 LINE",
"487 259 LINE",
"455 223 LINE",
"487 187 LINE",
"449 145 LINE",
"487 103 LINE",
"451 65 LINE",
"487 27 LINE",
"519.262 -9.341 LINE",
"558 20 LINE",
"598 -2 LINE",
"638 20 LINE",
"670.799 -4.305 LINE",
"697 27 LINE",
"731 64.883 LINE",
"697 102.765 LINE",
"735 142.642 LINE",
"697 182.519 LINE",
"732 214.42 LINE",
"697 246.321 LINE",
"724 270.247 LINE",
"697 294.173 LINE",
"725 334.049 LINE",
"697 373.926 LINE",
"719 407.821 LINE",
"697 441.716 LINE",
"728 467.636 LINE",
"697 493.556 LINE",
"719 535.426 LINE",
"697 577.296 LINE",
"721 603.216 LINE",
"697 629.136 LINE",
"720.193 663.619 LINE",
"682 680 LINE",
"658 714 LINE",
"634 680 LINE",
"602 703 LINE",
"570 680 LINE",
"525.222 715.362 LINE",
"487 673 LINE",
"449 637.31 LINE",
"487 601.621 LINE",
"451 579.81 LINE",
"487 558 LINE",
"456 526.276 LINE",
"487 494.552 LINE",
"448 468.776 LINE",
"487 443 LINE",
"457.294 463 LINE",
"427.588 443 LINE",
"399.863 473 LINE",
"372.137 443 LINE",
"330.549 471 LINE",
"288.961 443 LINE",
"323.924 480.74 LINE",
"285 514.379 LINE",
"306 536.19 LINE",
"285 558 LINE",
"311 593.69 LINE",
"285 629.379 LINE",
"314.189 659.21 LINE",
"278 680 LINE",
"254 705 LINE",
"230 680 LINE",
"192 708 LINE",
"154 680 LINE",
"111.146 714.352 LINE",
"75 673 LINE",
"45 637.111 LINE",
"75 601.222 LINE",
"46 581.284 LINE",
"75 561.346 LINE",
"36 529.444 LINE",
"75 497.543 LINE",
"49 467.636 LINE",
"75 437.728 LINE",
"50 403.833 LINE",
"75 369.938 LINE",
"36 338.037 LINE",
"75 306.136 LINE",
"37 284.204 LINE",
"75 262.272 LINE",
"53 230.37 LINE",
"75 198.469 LINE",
"53 172.549 LINE",
"75 146.63 LINE",
"40 104.759 LINE",
"75 62.889 LINE"
);
},
{
closed = 1;
nodes = (
"658.474 283.853 LINE",
"599.572 291.314 LINE",
"589.162 350.357 LINE",
"640.706 368.601 LINE",
"677.347 335.467 LINE"
);
},
{
closed = 1;
nodes = (
"673.89 515.909 LINE",
"658.366 497.459 LINE",
"636.679 508 LINE",
"642.853 528.037 LINE",
"662.541 537.184 LINE"
);
},
{
closed = 1;
nodes = (
"139.851 156.563 LINE",
"126.678 124.643 LINE",
"104.257 150.273 LINE",
"106.836 171.276 LINE",
"129.298 178.939 LINE"
);
},
{
closed = 1;
nodes = (
"546.962 455.732 LINE",
"542.847 448.605 LINE",
"534.055 449.647 LINE",
"534.804 458 LINE",
"541.455 461.847 LINE"
);
},
{
closed = 1;
nodes = (
"154.572 459.85 LINE",
"143.526 454.282 LINE",
"136.038 464.128 LINE",
"142.093 474.205 LINE",
"154.302 472.217 LINE"
);
},
{
closed = 1;
nodes = (
"260.852 454.822 LINE",
"242.135 433.729 LINE",
"213.192 433.264 LINE",
"208.019 467 LINE",
"239.198 476.454 LINE"
);
},
{
closed = 1;
nodes = (
"257.843 630.559 LINE",
"244.185 612.593 LINE",
"215.059 607.54 LINE",
"210.761 642.544 LINE",
"240.435 645.669 LINE"
);
},
{
closed = 1;
nodes = (
"237.762 231.663 LINE",
"225.332 235.228 LINE",
"229.026 245.355 LINE",
"236.205 249.69 LINE",
"240.996 242.244 LINE"
);
},
{
closed = 1;
nodes = (
"177.327 320.841 LINE",
"124.164 324.582 LINE",
"110.147 385.634 LINE",
"167.442 396.283 LINE",
"217.568 365.068 LINE"
);
},
{
closed = 1;
nodes = (
"421.434 310.931 LINE",
"403.266 306.063 LINE",
"389.027 322.047 LINE",
"404.082 339.353 LINE",
"419.903 328.08 LINE"
);
},
{
closed = 1;
nodes = (
"646.387 99.107 LINE",
"621.917 92.328 LINE",
"610.214 116.062 LINE",
"628.006 135.651 LINE",
"651.425 123.328 LINE"
);
},
{
closed = 1;
nodes = (
"594.584 79.778 LINE",
"581.419 76.599 LINE",
"569.002 87.279 LINE",
"580.614 101.345 LINE",
"595.649 94.456 LINE"
);
},
{
closed = 1;
nodes = (
"238.004 123.624 LINE",
"223.424 118.015 LINE",
"208.545 124.859 LINE",
"214.741 143.257 LINE",
"234.698 142.211 LINE"
);
},
{
closed = 1;
nodes = (
"416.975 394.186 LINE",
"400.162 376.015 LINE",
"376.968 393.109 LINE",
"387.579 419.897 LINE",
"414.545 417.336 LINE"
);
},
{
closed = 1;
nodes = (
"571.366 189.017 LINE",
"541.794 184.043 LINE",
"524.456 212.209 LINE",
"550.381 232.747 LINE",
"577.369 218.398 LINE"
);
},
{
closed = 1;
nodes = (
"377.239 270.452 LINE",
"361.083 267.312 LINE",
"355.089 281.462 LINE",
"364.71 291.78 LINE",
"373.997 283.878 LINE"
);
},
{
closed = 1;
nodes = (
"197.651 202.375 LINE",
"180.95 190.119 LINE",
"159.968 197.125 LINE",
"170.134 215.508 LINE",
"187.727 221.743 LINE"
);
},
{
closed = 1;
nodes = (
"615.818 611.505 LINE",
"597.724 608.836 LINE",
"595.499 628.762 LINE",
"611.097 630.933 LINE",
"622.761 624.481 LINE"
);
}
);
width = 772;
},
{
associatedMasterId = "EC64484B-0978-4CB1-9EE9-C40A2D8C4059";
background = {
paths = (
{
closed = 1;
nodes = (
"278 0 LINE SMOOTH",
"293 0 OFFCURVE",
"305 12 OFFCURVE",
"305 27 CURVE SMOOTH",
"305 243 LINE",
"467 243 LINE",
"467 27 LINE SMOOTH",
"467 12 OFFCURVE",
"479 0 OFFCURVE",
"494 0 CURVE SMOOTH",
"690 0 LINE SMOOTH",
"705 0 OFFCURVE",
"717 12 OFFCURVE",
"717 27 CURVE SMOOTH",
"717 673 LINE SMOOTH",
"717 688 OFFCURVE",
"705 700 OFFCURVE",
"690 700 CURVE SMOOTH",
"494 700 LINE SMOOTH",
"479 700 OFFCURVE",
"467 688 OFFCURVE",
"467 673 CURVE SMOOTH",
"467 463 LINE",
"305 463 LINE",
"305 673 LINE SMOOTH",
"305 688 OFFCURVE",
"293 700 OFFCURVE",
"278 700 CURVE SMOOTH",
"82 700 LINE SMOOTH",
"67 700 OFFCURVE",
"55 688 OFFCURVE",
"55 673 CURVE SMOOTH",
"55 27 LINE SMOOTH",
"55 11 OFFCURVE",
"67 0 OFFCURVE",
"82 0 CURVE SMOOTH"
);
}
);
};
layerId = "D9B11C4D-1D2A-4F8A-BF95-02B4826CCA80";
name = "Dec 6 20, 14:56";
paths = (
{
closed = 1;
nodes = (
"278 0 LINE SMOOTH",
"293 0 OFFCURVE",
"305 12 OFFCURVE",
"305 27 CURVE SMOOTH",
"305 243 LINE",
"467 243 LINE",
"467 27 LINE SMOOTH",
"467 12 OFFCURVE",
"479 0 OFFCURVE",
"494 0 CURVE SMOOTH",
"690 0 LINE SMOOTH",
"705 0 OFFCURVE",
"717 12 OFFCURVE",
"717 27 CURVE SMOOTH",
"717 673 LINE SMOOTH",
"717 688 OFFCURVE",
"705 700 OFFCURVE",
"690 700 CURVE SMOOTH",
"494 700 LINE SMOOTH",
"479 700 OFFCURVE",
"467 688 OFFCURVE",
"467 673 CURVE SMOOTH",
"467 463 LINE",
"305 463 LINE",
"305 673 LINE SMOOTH",
"305 688 OFFCURVE",
"293 700 OFFCURVE",
"278 700 CURVE SMOOTH",
"82 700 LINE SMOOTH",
"67 700 OFFCURVE",
"55 688 OFFCURVE",
"55 673 CURVE SMOOTH",
"55 27 LINE SMOOTH",
"55 11 OFFCURVE",
"67 0 OFFCURVE",
"82 0 CURVE SMOOTH"
);
}
);
width = 772;
}
);
leftKerningGroup = I;
rightKerningGroup = I;
unicode = 0048;
userData = {
com.typemytype.robofont.guides = (
{
angle = 0;
isGlobal = 0;
magnetic = 5;
x = 0;
y = 350;
},
{
angle = 0;
isGlobal = 0;
magnetic = 5;
x = 0;
y = 9;
},
{
angle = 0;
isGlobal = 0;
magnetic = 5;
x = 0;
y = 691;
},
{
angle = 90;
isGlobal = 0;
magnetic = 5;
x = 94;
y = 0;
},
{
angle = 90;
isGlobal = 0;
magnetic = 5;
x = 139;
y = 0;
},
{
angle = 90;
isGlobal = 0;
magnetic = 5;
x = 543;
y = 0;
},
{
angle = 90;
isGlobal = 0;
magnetic = 5;
x = 588;
y = 0;
}
);
};
},
{
color = 1;
glyphname = Hbar;
layers = (
{
background = {
paths = (
{
closed = 1;
nodes = (
"479 700 OFFCURVE",
"467 688 OFFCURVE",
"467 673 CURVE SMOOTH",
"467 643 LINE",
"305 643 LINE",
"305 673 LINE SMOOTH",
"305 688 OFFCURVE",
"293 700 OFFCURVE",
"278 700 CURVE SMOOTH",
"82 700 LINE SMOOTH",
"67 700 OFFCURVE",
"55 688 OFFCURVE",
"55 673 CURVE SMOOTH",
"55 27 LINE SMOOTH",
"55 11 OFFCURVE",
"67 0 OFFCURVE",
"82 0 CURVE SMOOTH",
"278 0 LINE SMOOTH",
"293 0 OFFCURVE",
"305 12 OFFCURVE",
"305 27 CURVE SMOOTH",
"305 243 LINE",
"467 243 LINE",
"467 27 LINE SMOOTH",
"467 12 OFFCURVE",
"479 0 OFFCURVE",
"494 0 CURVE SMOOTH",
"690 0 LINE SMOOTH",
"705 0 OFFCURVE",
"717 12 OFFCURVE",
"717 27 CURVE SMOOTH",
"717 673 LINE SMOOTH",
"717 688 OFFCURVE",
"705 700 OFFCURVE",
"690 700 CURVE SMOOTH",
"494 700 LINE SMOOTH"
);
},
{
closed = 1;
nodes = (
"467 521 LINE",
"467 463 LINE",
"305 463 LINE",
"305 521 LINE"
);
}
);
};
hints = (
{
horizontal = 1;
place = "{-2147483648, 0}";
type = Tag;
name = hr00;
}
);
layerId = "EC64484B-0978-4CB1-9EE9-C40A2D8C4059";
paths = (
{
closed = 1;
nodes = (
"454.182 661.563 LINE",
"475.118 623 LINE",
"447.392 652 LINE",
"419.667 623 LINE",
"384.02 651 LINE",
"348.373 623 LINE",
"328.569 659 LINE",
"308.765 623 LINE",
"327.386 661.249 LINE",
"285 657.615 LINE",
"265.68 688.907 LINE",
"230 680 LINE",
"208 717 LINE",
"186 680 LINE",
"166 703 LINE",
"146 680 LINE",
"106.524 700.2 LINE",
"75 669.012 LINE",
"46 631.13 LINE",
"75 593.247 LINE",
"55 565.333 LINE",
"75 537.42 LINE",
"43 497.543 LINE",
"75 457.667 LINE",
"55 429.753 LINE",
"75 401.84 LINE",
"44 373.926 LINE",
"75 346.012 LINE",
"41 316.105 LINE",
"75 286.198 LINE",
"42 260.278 LINE",
"75 234.358 LINE",
"42 200.463 LINE",
"75 166.568 LINE",
"44 126.691 LINE",
"75 86.815 LINE",
"36 64.883 LINE",
"75 42.951 LINE",
"84.305 8.626 LINE",
"118 20 LINE",
"152 -15 LINE",
"186 20 LINE",
"212 -3 LINE",
"238 20 LINE",
"270.387 -12.474 LINE",
"285 31 LINE",
"307 51 LINE",
"285 71 LINE",
"321 95 LINE",
"285 119 LINE",
"314 145 LINE",
"285 171 LINE",
"314 191 LINE",
"285 211 LINE",
"331.585 218.267 LINE",
"316.686 263 LINE",
"344.412 231 LINE",
"372.137 263 LINE",
"397.882 240 LINE",
"423.627 263 LINE",
"447.392 226 LINE",
"471.157 263 LINE",
"456.196 234.93 LINE",
"487 227 LINE",
"451 199 LINE",
"487 171 LINE",
"463 135 LINE",
"487 99 LINE",
"462 75 LINE",
"487 51 LINE",
"485.671 18.671 LINE",
"518 20 LINE",
"542 -3 LINE",
"566 20 LINE",
"604 -15 LINE",
"642 20 LINE",
"678.17 4.334 LINE",
"697 38.963 LINE",
"720 78.84 LINE",
"697 118.716 LINE",
"721 158.593 LINE",
"697 198.469 LINE",
"736 238.346 LINE",
"697 278.222 LINE",
"736 318.099 LINE",
"697 357.975 LINE",
"731 377.914 LINE",
"697 397.852 LINE",
"723 439.722 LINE",
"697 481.593 LINE",
"735 505.519 LINE",
"697 529.444 LINE",
"733 563.34 LINE",
"697 597.235 LINE",
"735 627.142 LINE",
"697 657.049 LINE",
"685.31 681.797 LINE",
"658 680 LINE",
"624 713 LINE",
"590 680 LINE",
"562 706 LINE",
"534 680 LINE"
);
},
{
closed = 1;
nodes = (
"304.804 528.26 LINE",
"324.608 541 LINE",
"344.412 530.71 LINE",
"364.216 541 LINE",
"384.02 523.36 LINE",
"403.824 541 LINE",
"423.627 525.32 LINE",
"443.431 541 LINE",
"463.235 524.34 LINE",
"483.039 541 LINE",
"463.455 520.939 LINE",
"487 505.72 LINE",
"470.2 486.12 LINE",
"487 466.52 LINE",
"463.229 465.436 LINE",
"471.157 443 LINE",
"451.353 455.25 LINE",
"431.549 443 LINE",
"411.745 460.15 LINE",
"391.941 443 LINE",
"372.137 461.13 LINE",
"352.333 443 LINE",
"332.529 453.78 LINE",
"312.725 443 LINE",
"306.325 466.473 LINE",
"285 454.76 LINE",
"303.9 474.36 LINE",
"285 493.96 LINE",
"299 513.56 LINE",
"285 533.16 LINE"
);
},
{
closed = 1;
nodes = (
"189.468 59.97 LINE",
"174.492 56.524 LINE",
"158.003 67.651 LINE",
"174.744 77.455 LINE",
"190.778 77.629 LINE"
);
},
{
closed = 1;
nodes = (
"120.519 158.393 LINE",
"92.893 157.584 LINE",
"90.832 182.253 LINE",
"107 194 LINE",
"126.021 183.18 LINE"
);
},
{
closed = 1;
nodes = (
"153.641 435.318 LINE",
"119.669 428.305 LINE",
"80.194 459.445 LINE",
"124.476 483.257 LINE",
"167.858 477.147 LINE"
);
},
{
closed = 1;
nodes = (
"354.884 359.461 LINE",
"333.011 368.672 LINE",
"327.711 392.527 LINE",
"353.212 403.182 LINE",
"363.977 380.89 LINE"
);
},
{
closed = 1;
nodes = (
"638.336 572.493 LINE",
"606 555 LINE",
"587.93 577.129 LINE",
"595.42 597.562 LINE",
"620.695 603.225 LINE"
);
},
{
closed = 1;
nodes = (
"653.896 113.706 LINE",
"650.565 89.342 LINE",
"629.03 101.77 LINE",
"626.006 119.757 LINE",
"643.625 130.651 LINE"
);
},
{
closed = 1;
nodes = (
"549.929 120.359 LINE",
"540.254 111.692 LINE",
"531.798 114.316 LINE",
"529.206 123.5 LINE",
"538.663 126.825 LINE"
);
},
{
closed = 1;
nodes = (
"666.469 410.133 LINE",
"658.477 403.014 LINE",
"645.477 409.377 LINE",
"651.375 424.741 LINE",
"665.923 421.549 LINE"
);
},
{
closed = 1;
nodes = (
"603.501 435.238 LINE",
"587.172 427.112 LINE",
"578.202 439.901 LINE",
"583.667 451.621 LINE",
"597.184 450.776 LINE"
);
},
{
closed = 1;
nodes = (
"303.564 427.395 LINE",
"295.913 425 LINE",
"288.35 427.661 LINE",
"293.132 434.096 LINE",
"299.611 434.792 LINE"
);
},
{
closed = 1;
nodes = (
"689.476 57.99 LINE",
"673.5 40.01 LINE",
"652.617 38.137 LINE",
"649.556 60.321 LINE",
"668.091 72.89 LINE"
);
},
{
closed = 1;
nodes = (
"204.104 274.348 LINE",
"174.295 270.356 LINE",
"160.022 300.765 LINE",
"187.325 324.956 LINE",
"210.472 301.242 LINE"
);
},
{
closed = 1;
nodes = (
"612.185 223.11 LINE",
"574.899 200.48 LINE",
"560.259 235.715 LINE",
"566.472 267.512 LINE",
"605.749 263.749 LINE"
);
},
{
closed = 1;
nodes = (
"244.829 596.197 LINE",
"230.586 554.827 LINE",
"196.636 584.941 LINE",
"202.985 616.732 LINE",
"238.905 635.252 LINE"
);
},
{
closed = 1;
nodes = (
"570.023 42.073 LINE",
"545.762 25.184 LINE",
"535.054 54.535 LINE",
"552.887 69.495 LINE",
"582.441 68.898 LINE"
);
},
{
closed = 1;
nodes = (
"295.564 309.102 LINE",
"272.691 296.092 LINE",
"247.005 319.424 LINE",
"273.489 338.91 LINE",
"299.167 334.444 LINE"
);
},
{
closed = 1;
nodes = (
"223.563 444.076 LINE",
"214.175 437.002 LINE",
"203.599 443.419 LINE",
"206.176 457.382 LINE",
"221.456 457.649 LINE"
);
}
);
width = 772;
},
{
associatedMasterId = "EC64484B-0978-4CB1-9EE9-C40A2D8C4059";
background = {
paths = (
{
closed = 1;
nodes = (
"479 700 OFFCURVE",
"467 688 OFFCURVE",
"467 673 CURVE SMOOTH",
"467 643 LINE",
"305 643 LINE",
"305 673 LINE SMOOTH",
"305 688 OFFCURVE",
"293 700 OFFCURVE",
"278 700 CURVE SMOOTH",
"82 700 LINE SMOOTH",
"67 700 OFFCURVE",
"55 688 OFFCURVE",
"55 673 CURVE SMOOTH",
"55 27 LINE SMOOTH",
"55 11 OFFCURVE",
"67 0 OFFCURVE",
"82 0 CURVE SMOOTH",
"278 0 LINE SMOOTH",
"293 0 OFFCURVE",
"305 12 OFFCURVE",
"305 27 CURVE SMOOTH",
"305 243 LINE",
"467 243 LINE",
"467 27 LINE SMOOTH",
"467 12 OFFCURVE",
"479 0 OFFCURVE",
"494 0 CURVE SMOOTH",
"690 0 LINE SMOOTH",
"705 0 OFFCURVE",
"717 12 OFFCURVE",
"717 27 CURVE SMOOTH",
"717 673 LINE SMOOTH",
"717 688 OFFCURVE",
"705 700 OFFCURVE",
"690 700 CURVE SMOOTH",
"494 700 LINE SMOOTH"
);
},
{
closed = 1;
nodes = (
"467 521 LINE",
"467 463 LINE",
"305 463 LINE",
"305 521 LINE"
);
}
);
};
hints = (
{
horizontal = 1;
place = "{-2147483648, 0}";
type = Tag;
name = hr00;
}
);
layerId = "61F5E40F-3B76-47CA-8E7B-E94EF918BE35";
name = "Dec 6 20, 14:56";
paths = (
{
closed = 1;
nodes = (
"479 700 OFFCURVE",
"467 688 OFFCURVE",
"467 673 CURVE SMOOTH",
"467 643 LINE",
"305 643 LINE",
"305 673 LINE SMOOTH",
"305 688 OFFCURVE",
"293 700 OFFCURVE",
"278 700 CURVE SMOOTH",
"82 700 LINE SMOOTH",
"67 700 OFFCURVE",
"55 688 OFFCURVE",
"55 673 CURVE SMOOTH",
"55 27 LINE SMOOTH",
"55 11 OFFCURVE",
"67 0 OFFCURVE",
"82 0 CURVE SMOOTH",
"278 0 LINE SMOOTH",
"293 0 OFFCURVE",
"305 12 OFFCURVE",
"305 27 CURVE SMOOTH",
"305 243 LINE",
"467 243 LINE",
"467 27 LINE SMOOTH",
"467 12 OFFCURVE",
"479 0 OFFCURVE",
"494 0 CURVE SMOOTH",
"690 0 LINE SMOOTH",
"705 0 OFFCURVE",
"717 12 OFFCURVE",
"717 27 CURVE SMOOTH",
"717 673 LINE SMOOTH",
"717 688 OFFCURVE",
"705 700 OFFCURVE",
"690 700 CURVE SMOOTH",
"494 700 LINE SMOOTH"
);
},
{
closed = 1;
nodes = (
"467 521 LINE",
"467 463 LINE",
"305 463 LINE",
"305 521 LINE"
);
}
);
width = 772;
}
);
leftKerningGroup = I;
rightKerningGroup = I;
unicode = 0126;
},
{
color = 1;
glyphname = I;
layers = (
{
anchors = (
{
name = bottom;
position = "{184, 0}";
},
{
name = ogonek;
position = "{331, 10}";
},
{
name = top;
position = "{184, 700}";
},
{
name = topleft;
position = "{20, 700}";
}
);
background = {
anchors = (
{
name = bottom;
position = "{184, 0}";
},
{
name = ogonek;
position = "{331, 10}";
},
{
name = top;
position = "{184, 700}";
},
{
name = topleft;
position = "{20, 700}";
}
);
paths = (
{
closed = 1;
nodes = (
"286 0 LINE SMOOTH",
"301 0 OFFCURVE",
"313 12 OFFCURVE",
"313 27 CURVE SMOOTH",
"313 673 LINE SMOOTH",
"313 688 OFFCURVE",
"301 700 OFFCURVE",
"286 700 CURVE SMOOTH",
"82 700 LINE SMOOTH",
"67 700 OFFCURVE",
"55 688 OFFCURVE",
"55 673 CURVE SMOOTH",
"55 27 LINE SMOOTH",
"55 12 OFFCURVE",
"67 0 OFFCURVE",
"82 0 CURVE SMOOTH"
);
}
);
};
layerId = "EC64484B-0978-4CB1-9EE9-C40A2D8C4059";
paths = (
{
closed = 1;
nodes = (
"114 -12 LINE",
"146 20 LINE",
"172 -1 LINE",
"198 20 LINE",
"238 -16 LINE",
"278 20 LINE",
"313.707 44.679 LINE",
"293 82.827 LINE",
"322 104.759 LINE",
"293 126.691 LINE",
"323 148.623 LINE",
"293 170.556 LINE",
"319 190.494 LINE",
"293 210.432 LINE",
"315 230.37 LINE",
"293 250.309 LINE",
"326 276.228 LINE",
"293 302.148 LINE",
"321 338.037 LINE",
"293 373.926 LINE",
"322 409.815 LINE",
"293 445.704 LINE",
"318 477.605 LINE",
"293 509.506 LINE",
"330 551.377 LINE",
"293 593.247 LINE",
"322 629.136 LINE",
"293 665.025 LINE",
"270.635 700.621 LINE",
"234 680 LINE",
"202 717 LINE",
"170 680 LINE",
"148 718 LINE",
"126 680 LINE",
"95.235 698.945 LINE",
"75 669.012 LINE",
"42 631.13 LINE",
"75 593.247 LINE",
"39 573.309 LINE",
"75 553.37 LINE",
"51 533.432 LINE",
"75 513.494 LINE",
"49 489.568 LINE",
"75 465.642 LINE",
"36 427.759 LINE",
"75 389.877 LINE",
"47 363.957 LINE",
"75 338.037 LINE",
"54 310.123 LINE",
"75 282.21 LINE",
"46 246.321 LINE",
"75 210.432 LINE",
"38 182.519 LINE",
"75 154.605 LINE",
"50 124.698 LINE",
"75 94.79 LINE"
);
},
{
closed = 1;
nodes = (
"184.543 202.414 LINE",
"161.116 194.461 LINE",
"153.022 215.837 LINE",
"165.635 227.557 LINE",
"182.419 223.714 LINE"
);
},
{
closed = 1;
nodes = (
"168.324 72.255 LINE",
"147.167 72.625 LINE",
"145.708 91.232 LINE",
"158.332 105.997 LINE",
"170.432 90.801 LINE"
);
},
{
closed = 1;
nodes = (
"272.394 397.878 LINE",
"264.226 398.881 LINE",
"263.562 406.536 LINE",
"269.731 409.955 LINE",
"277.835 405.717 LINE"
);
},
{
closed = 1;
nodes = (
"227.3 644.797 LINE",
"206.68 642.784 LINE",
"205.388 667.437 LINE",
"226.106 667.591 LINE",
"238.978 656.837 LINE"
);
},
{
closed = 1;
nodes = (
"235.412 483.275 LINE",
"179.232 474.922 LINE",
"162.045 517.727 LINE",
"183.871 557.535 LINE",
"237.772 543.777 LINE"
);
},
{
closed = 1;
nodes = (
"275.201 45.752 LINE",
"246.017 26.98 LINE",
"229.061 57.256 LINE",
"244.26 83.107 LINE",
"276.215 77.641 LINE"
);
},
{
closed = 1;
nodes = (
"116.933 514.903 LINE",
"108.954 511.092 LINE",
"102.752 513.091 LINE",
"102.881 520.774 LINE",
"111.381 523.25 LINE"
);
},
{
closed = 1;
nodes = (
"282.353 551.055 LINE",
"272 548.34 LINE",
"269.175 558.663 LINE",
"275.955 566.945 LINE",
"286.135 561.067 LINE"
);
},
{
closed = 1;
nodes = (
"124.695 372.775 LINE",
"99.42 378.438 LINE",
"93.832 398.253 LINE",
"110 421 LINE",
"125.217 397.944 LINE"
);
},
{
closed = 1;
nodes = (
"108.956 54.164 LINE",
"102.871 46.197 LINE",
"94.072 51 LINE",
"91.339 63.699 LINE",
"104.254 62.308 LINE"
);
},
{
closed = 1;
nodes = (
"265.18 329.244 LINE",
"244.983 328.636 LINE",
"234 341 LINE",
"242.511 360.972 LINE",
"261.135 349.817 LINE"
);
},
{
closed = 1;
nodes = (
"281.548 170.098 LINE",
"270.635 162.443 LINE",
"263.015 174.424 LINE",
"269.341 187.137 LINE",
"281.771 181.293 LINE"
);
},
{
closed = 1;
nodes = (
"157.733 632.823 LINE",
"149.558 627.019 LINE",
"141.583 632.003 LINE",
"145.143 639.596 LINE",
"154.299 643.48 LINE"
);
},
{
closed = 1;
nodes = (
"194.977 278.523 LINE",
"191.735 271.556 LINE",
"183.717 273.408 LINE",
"181.285 282.635 LINE",
"190.35 283.846 LINE"
);
},
{
closed = 1;
nodes = (
"206.614 380.855 LINE",
"194.907 371.032 LINE",
"184.728 380.254 LINE",
"188.858 390.128 LINE",
"198.769 391.632 LINE"
);
}
);
width = 368;
},
{
anchors = (
{
name = bottom;
position = "{184, 0}";
},
{
name = ogonek;
position = "{331, 10}";
},
{
name = top;
position = "{184, 700}";
},
{
name = topleft;
position = "{20, 700}";
}
);
associatedMasterId = "EC64484B-0978-4CB1-9EE9-C40A2D8C4059";
background = {
anchors = (
{
name = bottom;
position = "{184, 0}";
},
{
name = ogonek;
position = "{331, 10}";
},
{
name = top;
position = "{184, 700}";
},
{
name = topleft;
position = "{20, 700}";
}
);
paths = (
{
closed = 1;
nodes = (
"286 0 LINE SMOOTH",
"301 0 OFFCURVE",
"313 12 OFFCURVE",
"313 27 CURVE SMOOTH",
"313 673 LINE SMOOTH",
"313 688 OFFCURVE",
"301 700 OFFCURVE",
"286 700 CURVE SMOOTH",
"82 700 LINE SMOOTH",
"67 700 OFFCURVE",
"55 688 OFFCURVE",
"55 673 CURVE SMOOTH",
"55 27 LINE SMOOTH",
"55 12 OFFCURVE",
"67 0 OFFCURVE",
"82 0 CURVE SMOOTH"
);
}
);
};
layerId = "C4E575F1-AC77-4B9B-96F2-28EDD94352D3";
name = "Dec 6 20, 14:56";
paths = (
{
closed = 1;
nodes = (
"286 0 LINE SMOOTH",
"301 0 OFFCURVE",
"313 12 OFFCURVE",
"313 27 CURVE SMOOTH",
"313 673 LINE SMOOTH",
"313 688 OFFCURVE",
"301 700 OFFCURVE",
"286 700 CURVE SMOOTH",
"82 700 LINE SMOOTH",
"67 700 OFFCURVE",
"55 688 OFFCURVE",
"55 673 CURVE SMOOTH",
"55 27 LINE SMOOTH",
"55 12 OFFCURVE",
"67 0 OFFCURVE",
"82 0 CURVE SMOOTH"
);
}
);
width = 368;
}
);
leftKerningGroup = I;
rightKerningGroup = I;
unicode = 0049;
userData = {
com.typemytype.robofont.guides = (
{
angle = 90;
isGlobal = 0;
magnetic = 5;
x = 85;
y = 0;
},
{
angle = 90;
isGlobal = 0;
magnetic = 5;
x = 148;
y = 0;
}
);
};
},
{
color = 1;
glyphname = IJ;
layers = (
{
background = {
paths = (
{
closed = 1;
nodes = (
"628 -10 OFFCURVE",
"758 45 OFFCURVE",
"758 258 CURVE SMOOTH",
"758 673 LINE SMOOTH",
"758 688 OFFCURVE",
"746 700 OFFCURVE",
"731 700 CURVE SMOOTH",
"526 700 LINE SMOOTH",
"511 700 OFFCURVE",
"499 688 OFFCURVE",
"499 673 CURVE",
"499 298 LINE SMOOTH",
"499 227 OFFCURVE",
"476 205 OFFCURVE",
"420 205 CURVE SMOOTH",
"405 205 OFFCURVE",
"393 193 OFFCURVE",
"393 178 CURVE SMOOTH",
"393 17 LINE SMOOTH",
"393 2 OFFCURVE",
"405 -10 OFFCURVE",
"420 -10 CURVE SMOOTH"
);
},
{
closed = 1;
nodes = (
"286 0 LINE SMOOTH",
"301 0 OFFCURVE",
"313 12 OFFCURVE",
"313 27 CURVE SMOOTH",
"313 673 LINE SMOOTH",
"313 688 OFFCURVE",
"301 700 OFFCURVE",
"286 700 CURVE SMOOTH",
"82 700 LINE SMOOTH",
"67 700 OFFCURVE",
"55 688 OFFCURVE",
"55 673 CURVE SMOOTH",
"55 27 LINE SMOOTH",
"55 12 OFFCURVE",
"67 0 OFFCURVE",
"82 0 CURVE SMOOTH"
);
}
);
};
hints = (
{
horizontal = 1;
place = "{-2147483648, 0}";
type = Tag;
name = hr01;
}
);
layerId = "EC64484B-0978-4CB1-9EE9-C40A2D8C4059";
paths = (
{
closed = 1;
nodes = (
"457.654 -25.588 LINE",
"492.481 12.77 LINE",
"521.24 -22.984 LINE",
"540.469 18.678 LINE",
"580.501 -8.351 LINE",
"602.92 34.433 LINE",
"639.648 23.52 LINE",
"653.432 59.27 LINE",
"692.651 43.934 LINE",
"684.185 85.185 LINE",
"731.752 93.018 LINE",
"718.487 139.365 LINE",
"755.932 153.672 LINE",
"731.894 185.75 LINE",
"758.758 213.432 LINE",
"737.856 245.851 LINE",
"768.928 269.789 LINE",
"738 293.913 LINE",
"775 317.856 LINE",
"738 341.798 LINE",
"762 383.697 LINE",
"738 425.596 LINE",
"758 459.514 LINE",
"738 493.433 LINE",
"773 531.341 LINE",
"738 569.25 LINE",
"767 611.149 LINE",
"738 653.048 LINE",
"735.615 681.244 LINE",
"707.346 680 LINE",
"677.779 714 LINE",
"648.212 680 LINE",
"614.702 708 LINE",
"581.192 680 LINE",
"538.719 707.82 LINE",
"519 661.032 LINE",
"491 639.09 LINE",
"519 617.149 LINE",
"487 579.25 LINE",
"519 541.351 LINE",
"490 499.463 LINE",
"519 457.574 LINE",
"481 423.665 LINE",
"519 389.755 LINE",
"489 363.824 LINE",
"519 337.894 LINE",
"494.434 298.894 LINE",
"515.832 258.07 LINE",
"471.853 241.55 LINE",
"472.466 194.575 LINE",
"430.985 191.913 LINE",
"413 154.439 LINE",
"391.3 126.951 LINE",
"413 99.463 LINE",
"387.1 71.976 LINE",
"413 44.488 LINE"
);
},
{
closed = 1;
nodes = (
"102 -15 LINE",
"122 20 LINE",
"144 -3 LINE",
"166 20 LINE",
"200 -11 LINE",
"234 20 LINE",
"254 -14 LINE",
"274 20 LINE",
"299.517 22.172 LINE",
"293 46.938 LINE",
"308.4 78.84 LINE",
"293 110.741 LINE",
"318.2 132.673 LINE",
"293 154.605 LINE",
"308.4 192.488 LINE",
"293 230.37 LINE",
"317 250.309 LINE",
"293 270.247 LINE",
"320 306.136 LINE",
"293 342.025 LINE",
"331 379.907 LINE",
"293 417.79 LINE",
"314 447.698 LINE",
"293 477.605 LINE",
"313 503.525 LINE",
"293 529.444 LINE",
"324 571.315 LINE",
"293 613.185 LINE",
"314.771 653.164 LINE",
"278 680 LINE",
"236 719 LINE",
"194 680 LINE",
"156 703 LINE",
"118 680 LINE",
"89.067 678.395 LINE",
"75 653.062 LINE",
"53 611.191 LINE",
"75 569.321 LINE",
"54 543.401 LINE",
"75 517.481 LINE",
"54 493.556 LINE",
"75 469.63 LINE",
"53 447.698 LINE",
"75 425.765 LINE",
"50 401.84 LINE",
"75 377.914 LINE",
"51 338.037 LINE",
"75 298.16 LINE",
"50 262.272 LINE",
"75 226.383 LINE",
"51 206.444 LINE",
"75 186.506 LINE",
"48 148.623 LINE",
"75 110.741 LINE",
"55 86.815 LINE",
"75 62.889 LINE"
);
},
{
closed = 1;
nodes = (
"707.781 500.921 LINE",
"699.15 492.06 LINE",
"689.778 499.339 LINE",
"691.978 509.688 LINE",
"702 509.928 LINE"
);
},
{
closed = 1;
nodes = (
"572.596 104.137 LINE",
"524.394 78.343 LINE",
"477.974 113.887 LINE",
"508.184 163.358 LINE",
"549.778 145.209 LINE"
);
},
{
closed = 1;
nodes = (
"715.243 633.757 LINE",
"706.46 629.09 LINE",
"701.123 639.564 LINE",
"710.061 643.926 LINE",
"717.237 641.178 LINE"
);
},
{
closed = 1;
nodes = (
"623.529 261.383 LINE",
"616.943 210.97 LINE",
"558.267 220.033 LINE",
"545.364 279.234 LINE",
"599.263 300.562 LINE"
);
},
{
closed = 1;
nodes = (
"273.359 268.624 LINE",
"264.451 237.285 LINE",
"222.758 232.812 LINE",
"215.862 277.066 LINE",
"251.876 295.874 LINE"
);
},
{
closed = 1;
nodes = (
"675.706 177.053 LINE",
"670.181 155.633 LINE",
"640.904 153.522 LINE",
"640.061 183.298 LINE",
"662.559 194.843 LINE"
);
},
{
closed = 1;
nodes = (
"562.924 382.257 LINE",
"546.599 368.41 LINE",
"527.571 374.729 LINE",
"533.189 392.529 LINE",
"549.252 398.728 LINE"
);
},
{
closed = 1;
nodes = (
"176.747 391.074 LINE",
"141.013 381.33 LINE",
"127.063 412.814 LINE",
"145.984 439.139 LINE",
"170.809 422.128 LINE"
);
},
{
closed = 1;
nodes = (
"231.397 527.58 LINE",
"221.616 520.007 LINE",
"212.387 528.244 LINE",
"216.408 539.29 LINE",
"228.157 538.88 LINE"
);
},
{
closed = 1;
nodes = (
"275.226 557.937 LINE",
"263.686 560.18 LINE",
"262.254 571.848 LINE",
"273.671 580.743 LINE",
"287.873 569.072 LINE"
);
},
{
closed = 1;
nodes = (
"659.256 427.545 LINE",
"644.819 428.575 LINE",
"642.074 446.751 LINE",
"659.801 449.432 LINE",
"665.998 437.175 LINE"
);
},
{
closed = 1;
nodes = (
"207.137 91.341 LINE",
"194.32 83.018 LINE",
"182.443 92.635 LINE",
"191.188 101.871 LINE",
"199.405 101.44 LINE"
);
},
{
closed = 1;
nodes = (
"158.581 232.816 LINE",
"132.353 210.356 LINE",
"120.013 243.232 LINE",
"130.029 276.889 LINE",
"160.912 258.776 LINE"
);
},
{
closed = 1;
nodes = (
"271.92 432.224 LINE",
"243.55 428.858 LINE",
"236.935 461.713 LINE",
"265.366 465.835 LINE",
"289.59 453.689 LINE"
);
},
{
closed = 1;
nodes = (
"110.963 633.391 LINE",
"107.145 628.11 LINE",
"100.752 631.091 LINE",
"102.343 637.41 LINE",
"108.536 639.438 LINE"
);
},
{
closed = 1;
nodes = (
"591.202 582.594 LINE",
"564.137 596.617 LINE",
"555.617 623.5 LINE",
"582.119 624.672 LINE",
"596.901 611.882 LINE"
);
},
{
closed = 1;
nodes = (
"166.666 588.82 LINE",
"156.267 563.809 LINE",
"132.496 572.052 LINE",
"127.024 593.767 LINE",
"147.783 604.805 LINE"
);
}
);
width = 807;
},
{
associatedMasterId = "EC64484B-0978-4CB1-9EE9-C40A2D8C4059";
background = {
paths = (
{
closed = 1;
nodes = (
"628 -10 OFFCURVE",
"758 45 OFFCURVE",
"758 258 CURVE SMOOTH",
"758 673 LINE SMOOTH",
"758 688 OFFCURVE",
"746 700 OFFCURVE",
"731 700 CURVE SMOOTH",
"526 700 LINE SMOOTH",
"511 700 OFFCURVE",
"499 688 OFFCURVE",
"499 673 CURVE",
"499 298 LINE SMOOTH",
"499 227 OFFCURVE",
"476 205 OFFCURVE",
"420 205 CURVE SMOOTH",
"405 205 OFFCURVE",
"393 193 OFFCURVE",
"393 178 CURVE SMOOTH",
"393 17 LINE SMOOTH",
"393 2 OFFCURVE",
"405 -10 OFFCURVE",
"420 -10 CURVE SMOOTH"
);
},
{
closed = 1;
nodes = (
"286 0 LINE SMOOTH",
"301 0 OFFCURVE",
"313 12 OFFCURVE",
"313 27 CURVE SMOOTH",
"313 673 LINE SMOOTH",
"313 688 OFFCURVE",
"301 700 OFFCURVE",
"286 700 CURVE SMOOTH",
"82 700 LINE SMOOTH",
"67 700 OFFCURVE",
"55 688 OFFCURVE",
"55 673 CURVE SMOOTH",
"55 27 LINE SMOOTH",
"55 12 OFFCURVE",
"67 0 OFFCURVE",
"82 0 CURVE SMOOTH"
);
}
);
};
hints = (
{
horizontal = 1;
place = "{-2147483648, 0}";
type = Tag;
name = hr01;
}
);
layerId = "714EC926-97E5-4672-9504-249BFB039572";
name = "Dec 6 20, 14:56";
paths = (
{
closed = 1;
nodes = (
"628 -10 OFFCURVE",
"758 45 OFFCURVE",
"758 258 CURVE SMOOTH",
"758 673 LINE SMOOTH",
"758 688 OFFCURVE",
"746 700 OFFCURVE",
"731 700 CURVE SMOOTH",
"526 700 LINE SMOOTH",
"511 700 OFFCURVE",
"499 688 OFFCURVE",
"499 673 CURVE",
"499 298 LINE SMOOTH",
"499 227 OFFCURVE",
"476 205 OFFCURVE",
"420 205 CURVE SMOOTH",
"405 205 OFFCURVE",
"393 193 OFFCURVE",
"393 178 CURVE SMOOTH",
"393 17 LINE SMOOTH",
"393 2 OFFCURVE",
"405 -10 OFFCURVE",
"420 -10 CURVE SMOOTH"
);
},
{
closed = 1;
nodes = (
"286 0 LINE SMOOTH",
"301 0 OFFCURVE",
"313 12 OFFCURVE",
"313 27 CURVE SMOOTH",
"313 673 LINE SMOOTH",
"313 688 OFFCURVE",
"301 700 OFFCURVE",
"286 700 CURVE SMOOTH",
"82 700 LINE SMOOTH",
"67 700 OFFCURVE",
"55 688 OFFCURVE",
"55 673 CURVE SMOOTH",
"55 27 LINE SMOOTH",
"55 12 OFFCURVE",
"67 0 OFFCURVE",
"82 0 CURVE SMOOTH"
);
}
);
width = 807;
}
);
leftKerningGroup = I;
unicode = 0132;
userData = {
com.typemytype.robofont.guides = (
{
angle = 90;
isGlobal = 0;
magnetic = 5;
x = 642;
y = 0;
}
);
};
},
{
color = 1;
glyphname = Iogonek;
layers = (
{
background = {
paths = (
{
closed = 1;
nodes = (
"286 -222 LINE SMOOTH",
"301 -222 OFFCURVE",
"313 -210 OFFCURVE",
"313 -195 CURVE SMOOTH",
"313 -127 LINE SMOOTH",
"313 -112 OFFCURVE",
"301 -100 OFFCURVE",
"286 -100 CURVE SMOOTH",
"276 -100 LINE",
"237 -100 OFFCURVE",
"226 -71 OFFCURVE",
"226 -50 CURVE SMOOTH",
"226 -29 OFFCURVE",
"237 0 OFFCURVE",
"276 0 CURVE SMOOTH",
"286 0 LINE SMOOTH",
"301 0 OFFCURVE",
"313 12 OFFCURVE",
"313 27 CURVE SMOOTH",
"313 673 LINE SMOOTH",
"313 688 OFFCURVE",
"301 700 OFFCURVE",
"286 700 CURVE SMOOTH",
"82 700 LINE SMOOTH",
"67 700 OFFCURVE",
"55 688 OFFCURVE",
"55 673 CURVE SMOOTH",
"55 27 LINE SMOOTH",
"55 12 OFFCURVE",
"67 0 OFFCURVE",
"82 0 CURVE SMOOTH",
"105 0 LINE",
"102 -16 OFFCURVE",
"100 -32 OFFCURVE",
"100 -50 CURVE SMOOTH",
"100 -145 OFFCURVE",
"151 -222 OFFCURVE",
"272 -222 CURVE SMOOTH"
);
}
);
};
hints = (
{
horizontal = 1;
place = "{-2147483648, 0}";
type = Tag;
name = hr01;
}
);
layerId = "EC64484B-0978-4CB1-9EE9-C40A2D8C4059";
paths = (
{
closed = 1;
nodes = (
"296.306 -192.783 LINE",
"293 -167 LINE",
"289.749 -127.591 LINE",
"251.79 -116.509 LINE",
"254.646 -71.598 LINE",
"209.783 -75.132 LINE",
"252.618 -43.426 LINE",
"229.429 4.557 LINE",
"261.255 -17.815 LINE",
"270.943 19.862 LINE",
"304.397 29.88 LINE",
"293 62.889 LINE",
"319 92.796 LINE",
"293 122.704 LINE",
"331 150.617 LINE",
"293 178.531 LINE",
"324 204.451 LINE",
"293 230.37 LINE",
"318 254.296 LINE",
"293 278.222 LINE",
"332 300.154 LINE",
"293 322.086 LINE",
"322 355.981 LINE",
"293 389.877 LINE",
"322 427.759 LINE",
"293 465.642 LINE",
"328 485.58 LINE",
"293 505.519 LINE",
"327 539.414 LINE",
"293 573.309 LINE",
"328 599.228 LINE",
"293 625.148 LINE",
"317 645.086 LINE",
"293 665.025 LINE",
"287.695 701.013 LINE",
"258 680 LINE",
"234 703 LINE",
"210 680 LINE",
"168 716 LINE",
"126 680 LINE",
"100.713 699 LINE",
"77.033 678.032 LINE",
"42.033 646.674 LINE",
"75 613.185 LINE",
"38 593.247 LINE",
"75 573.309 LINE",
"51 551.377 LINE",
"75 529.444 LINE",
"52 503.525 LINE",
"75 477.605 LINE",
"46 437.728 LINE",
"75 397.852 LINE",
"49 359.969 LINE",
"75 322.086 LINE",
"51 290.185 LINE",
"75 258.284 LINE",
"51 226.383 LINE",
"75 194.481 LINE",
"54 152.611 LINE",
"75 110.741 LINE",
"51 82.827 LINE",
"75 54.914 LINE",
"70.356 20.577 LINE",
"105 20 LINE",
"91.09 -17.668 LINE",
"120.06 -45.473 LINE",
"89.34 -77.428 LINE",
"126.22 -102.018 LINE",
"121.677 -140.589 LINE",
"156.06 -158.65 LINE",
"156.643 -190.728 LINE",
"187.851 -183.283 LINE",
"195.729 -220.265 LINE",
"225.666 -197.168 LINE"
);
},
{
closed = 1;
nodes = (
"203.571 -10.521 LINE",
"177.964 -28.718 LINE",
"164.273 -3.126 LINE",
"167.916 26.488 LINE",
"196.588 15.106 LINE"
);
},
{
closed = 1;
nodes = (
"273.282 98 LINE",
"189.862 71.486 LINE",
"136.373 130.892 LINE",
"177.562 197.38 LINE",
"238.928 169.449 LINE"
);
},
{
closed = 1;
nodes = (
"227.526 244.5 LINE",
"214.881 235.328 LINE",
"208.055 248.955 LINE",
"212.712 261.876 LINE",
"225.431 256.691 LINE"
);
},
{
closed = 1;
nodes = (
"198.771 455.707 LINE",
"186.341 449.863 LINE",
"177.019 462.733 LINE",
"187.377 475.523 LINE",
"203.58 470.17 LINE"
);
},
{
closed = 1;
nodes = (
"252.067 513.935 LINE",
"222.5 514.081 LINE",
"209.546 539.198 LINE",
"232.223 550.907 LINE",
"252.271 542.135 LINE"
);
},
{
closed = 1;
nodes = (
"150.27 643.223 LINE",
"133.765 642.18 LINE",
"130.784 658.446 LINE",
"143.419 665.993 LINE",
"158.38 658.41 LINE"
);
},
{
closed = 1;
nodes = (
"203.256 364.717 LINE",
"175.642 376.678 LINE",
"168.26 403.605 LINE",
"195.77 415.541 LINE",
"214.821 393.925 LINE"
);
},
{
closed = 1;
nodes = (
"231.88 -173.81 LINE",
"214.191 -182.738 LINE",
"207.019 -164.267 LINE",
"216.6 -148.579 LINE",
"239.451 -153.018 LINE"
);
},
{
closed = 1;
nodes = (
"118.33 519.5 LINE",
"112.753 516.131 LINE",
"108.033 521.373 LINE",
"110.746 529.308 LINE",
"119.202 526.684 LINE"
);
},
{
closed = 1;
nodes = (
"253.584 435.387 LINE",
"246.359 421.823 LINE",
"233.572 424.34 LINE",
"229.801 436.121 LINE",
"240.698 441.976 LINE"
);
},
{
closed = 1;
nodes = (
"252.898 605.436 LINE",
"231.769 607.423 LINE",
"224.035 627.186 LINE",
"242.384 642.997 LINE",
"271.645 630.064 LINE"
);
}
);
width = 368;
},
{
associatedMasterId = "EC64484B-0978-4CB1-9EE9-C40A2D8C4059";
background = {
paths = (
{
closed = 1;
nodes = (
"286 -222 LINE SMOOTH",
"301 -222 OFFCURVE",
"313 -210 OFFCURVE",
"313 -195 CURVE SMOOTH",
"313 -127 LINE SMOOTH",
"313 -112 OFFCURVE",
"301 -100 OFFCURVE",
"286 -100 CURVE SMOOTH",
"276 -100 LINE",
"237 -100 OFFCURVE",
"226 -71 OFFCURVE",
"226 -50 CURVE SMOOTH",
"226 -29 OFFCURVE",
"237 0 OFFCURVE",
"276 0 CURVE SMOOTH",
"286 0 LINE SMOOTH",
"301 0 OFFCURVE",
"313 12 OFFCURVE",
"313 27 CURVE SMOOTH",
"313 673 LINE SMOOTH",
"313 688 OFFCURVE",
"301 700 OFFCURVE",
"286 700 CURVE SMOOTH",
"82 700 LINE SMOOTH",
"67 700 OFFCURVE",
"55 688 OFFCURVE",
"55 673 CURVE SMOOTH",
"55 27 LINE SMOOTH",
"55 12 OFFCURVE",
"67 0 OFFCURVE",
"82 0 CURVE SMOOTH",
"105 0 LINE",
"102 -16 OFFCURVE",
"100 -32 OFFCURVE",
"100 -50 CURVE SMOOTH",
"100 -145 OFFCURVE",
"151 -222 OFFCURVE",
"272 -222 CURVE SMOOTH"
);
}
);
};
hints = (
{
horizontal = 1;
place = "{-2147483648, 0}";
type = Tag;
name = hr01;
}
);
layerId = "707EB1DA-726A-44B2-8996-280EA6319508";
name = "Dec 6 20, 14:56";
paths = (
{
closed = 1;
nodes = (
"286 -222 LINE SMOOTH",
"301 -222 OFFCURVE",
"313 -210 OFFCURVE",
"313 -195 CURVE SMOOTH",
"313 -127 LINE SMOOTH",
"313 -112 OFFCURVE",
"301 -100 OFFCURVE",
"286 -100 CURVE SMOOTH",
"276 -100 LINE",
"237 -100 OFFCURVE",
"226 -71 OFFCURVE",
"226 -50 CURVE SMOOTH",
"226 -29 OFFCURVE",
"237 0 OFFCURVE",
"276 0 CURVE SMOOTH",
"286 0 LINE SMOOTH",
"301 0 OFFCURVE",
"313 12 OFFCURVE",
"313 27 CURVE SMOOTH",
"313 673 LINE SMOOTH",
"313 688 OFFCURVE",
"301 700 OFFCURVE",
"286 700 CURVE SMOOTH",
"82 700 LINE SMOOTH",
"67 700 OFFCURVE",
"55 688 OFFCURVE",
"55 673 CURVE SMOOTH",
"55 27 LINE SMOOTH",
"55 12 OFFCURVE",
"67 0 OFFCURVE",
"82 0 CURVE SMOOTH",
"105 0 LINE",
"102 -16 OFFCURVE",
"100 -32 OFFCURVE",
"100 -50 CURVE SMOOTH",
"100 -145 OFFCURVE",
"151 -222 OFFCURVE",
"272 -222 CURVE SMOOTH"
);
}
);
width = 368;
}
);
leftKerningGroup = I;
rightKerningGroup = I;
unicode = 012E;
userData = {
com.typemytype.robofont.guides = (
{
angle = 90;
isGlobal = 0;
magnetic = 5;
x = 110;
y = 0;
}
);
};
},
{
color = 1;
glyphname = J;
layers = (
{
background = {
paths = (
{
closed = 1;
nodes = (
"509 -10 OFFCURVE",
"653 73 OFFCURVE",
"653 258 CURVE SMOOTH",
"653 673 LINE SMOOTH",
"653 688 OFFCURVE",
"641 700 OFFCURVE",
"626 700 CURVE SMOOTH",
"97 700 LINE SMOOTH",
"82 700 OFFCURVE",
"70 688 OFFCURVE",
"70 673 CURVE SMOOTH",
"70 524 LINE SMOOTH",
"70 509 OFFCURVE",
"82 497 OFFCURVE",
"97 497 CURVE SMOOTH",
"394 497 LINE",
"394 266 LINE SMOOTH",
"394 205 OFFCURVE",
"371 185 OFFCURVE",
"335 185 CURVE SMOOTH",
"302 185 OFFCURVE",
"290 198 OFFCURVE",
"277 225 CURVE SMOOTH",
"267 247 OFFCURVE",
"258 257 OFFCURVE",
"236 257 CURVE SMOOTH",
"32 257 LINE SMOOTH",
"20 257 OFFCURVE",
"10 247 OFFCURVE",
"10 235 CURVE SMOOTH",
"13 78 OFFCURVE",
"162 -10 OFFCURVE",
"327 -10 CURVE SMOOTH"
);
}
);
};
hints = (
{
horizontal = 1;
place = "{-2147483648, 0}";
type = Tag;
name = hr00;
}
);
layerId = "EC64484B-0978-4CB1-9EE9-C40A2D8C4059";
paths = (
{
closed = 1;
nodes = (
"365.637 -26.566 LINE",
"399.204 14.704 LINE",
"437.434 -9.707 LINE",
"462.019 28.411 LINE",
"510.487 8.441 LINE",
"527.961 57.864 LINE",
"575.776 64.415 LINE",
"587.584 111.21 LINE",
"625.953 136.822 LINE",
"623.109 182.867 LINE",
"659.46 207.543 LINE",
"632.615 242.324 LINE",
"670.806 265.816 LINE",
"633 289.923 LINE",
"667 319.851 LINE",
"633 349.779 LINE",
"662 377.712 LINE",
"633 405.644 LINE",
"660 445.548 LINE",
"633 485.452 LINE",
"658 511.389 LINE",
"633 537.327 LINE",
"671 559.274 LINE",
"633 581.221 LINE",
"672 609.154 LINE",
"633 637.087 LINE",
"622.39 672.47 LINE",
"586.226 680 LINE",
"560.372 712 LINE",
"534.519 680 LINE",
"514.632 706 LINE",
"494.744 680 LINE",
"458.947 716 LINE",
"423.15 680 LINE",
"395.308 711 LINE",
"367.466 680 LINE",
"339.624 717 LINE",
"311.782 680 LINE",
"283.94 708 LINE",
"256.098 680 LINE",
"234.222 700 LINE",
"212.346 680 LINE",
"172.571 702 LINE",
"132.797 680 LINE",
"107.847 698.211 LINE",
"90 673 LINE",
"66 653.395 LINE",
"90 633.789 LINE",
"57 612.224 LINE",
"90 590.658 LINE",
"63.994 554.104 LINE",
"91.968 519.033 LINE",
"123.352 491.03 LINE",
"156.438 517 LINE",
"192.1 490 LINE",
"227.763 517 LINE",
"267.388 496 LINE",
"307.012 517 LINE",
"330.787 492 LINE",
"354.562 517 LINE",
"378.337 483 LINE",
"402.112 517 LINE",
"374.09 484.65 LINE",
"414 469.19 LINE",
"381 445.286 LINE",
"414 421.381 LINE",
"376 383.532 LINE",
"414 345.683 LINE",
"391 315.802 LINE",
"414 285.921 LINE",
"385.009 254.476 LINE",
"407.8 218.285 LINE",
"371.697 208.11 LINE",
"367.667 170.818 LINE",
"329.676 203.277 LINE",
"285.413 180.088 LINE",
"284.588 209.576 LINE",
"257.283 220.743 LINE",
"248.235 250.871 LINE",
"220 237 LINE",
"192 275 LINE",
"164 237 LINE",
"126 260 LINE",
"88 237 LINE",
"60 275 LINE",
"32 237 LINE",
"10.26 202.965 LINE",
"40.074 175.722 LINE",
"24.414 139.188 LINE",
"62.773 128.77 LINE",
"64.257 84.059 LINE",
"108.632 78.391 LINE",
"116.699 30.831 LINE",
"163.031 44.261 LINE",
"190.937 -5.916 LINE",
"243.117 18.034 LINE",
"263.588 -10.037 LINE",
"290.912 11.42 LINE"
);
},
{
closed = 1;
nodes = (
"595.564 419.102 LINE",
"574.153 410.874 LINE",
"563.003 429.703 LINE",
"572.186 452.692 LINE",
"593.577 440.231 LINE"
);
},
{
closed = 1;
nodes = (
"507.37 254.697 LINE",
"492.947 245.294 LINE",
"480.119 259.05 LINE",
"489.661 274.595 LINE",
"504.045 268.502 LINE"
);
},
{
closed = 1;
nodes = (
"466.959 597.946 LINE",
"436.163 596.144 LINE",
"416.004 616.471 LINE",
"437.737 633.213 LINE",
"465.117 631.487 LINE"
);
},
{
closed = 1;
nodes = (
"456.142 95.858 LINE",
"433.374 93.071 LINE",
"412.369 114.693 LINE",
"437.307 139.631 LINE",
"459.82 119.08 LINE"
);
},
{
closed = 1;
nodes = (
"610.817 646.702 LINE",
"601.748 645.526 LINE",
"602.607 654.63 LINE",
"609.253 660.912 LINE",
"617.848 653.736 LINE"
);
},
{
closed = 1;
nodes = (
"247.65 136.272 LINE",
"208.06 105.68 LINE",
"157.269 117.76 LINE",
"162.97 177.464 LINE",
"215.792 173.721 LINE"
);
},
{
closed = 1;
nodes = (
"376.761 580.481 LINE",
"369.333 568.379 LINE",
"356.498 569.955 LINE",
"354.937 582.226 LINE",
"365.097 586.933 LINE"
);
},
{
closed = 1;
nodes = (
"216.873 612.072 LINE",
"207.185 594.593 LINE",
"189.761 600.452 LINE",
"186.881 617.272 LINE",
"203.435 627.669 LINE"
);
},
{
closed = 1;
nodes = (
"296.854 123.912 LINE",
"284.257 113.197 LINE",
"268.756 118.958 LINE",
"271.21 136.42 LINE",
"287.26 136.786 LINE"
);
},
{
closed = 1;
nodes = (
"278.92 572.83 LINE",
"266.987 549.828 LINE",
"247.434 561.815 LINE",
"234 585.421 LINE",
"262.274 589.513 LINE"
);
},
{
closed = 1;
nodes = (
"513.126 446.847 LINE",
"507.766 421.34 LINE",
"484.371 428.222 LINE",
"470.362 449.139 LINE",
"494.262 455.998 LINE"
);
}
);
width = 702;
},
{
associatedMasterId = "EC64484B-0978-4CB1-9EE9-C40A2D8C4059";
background = {
paths = (
{
closed = 1;
nodes = (
"509 -10 OFFCURVE",
"653 73 OFFCURVE",
"653 258 CURVE SMOOTH",
"653 673 LINE SMOOTH",
"653 688 OFFCURVE",
"641 700 OFFCURVE",
"626 700 CURVE SMOOTH",
"97 700 LINE SMOOTH",
"82 700 OFFCURVE",
"70 688 OFFCURVE",
"70 673 CURVE SMOOTH",
"70 524 LINE SMOOTH",
"70 509 OFFCURVE",
"82 497 OFFCURVE",
"97 497 CURVE SMOOTH",
"394 497 LINE",
"394 266 LINE SMOOTH",
"394 205 OFFCURVE",
"371 185 OFFCURVE",
"335 185 CURVE SMOOTH",
"302 185 OFFCURVE",
"290 198 OFFCURVE",
"277 225 CURVE SMOOTH",
"267 247 OFFCURVE",
"258 257 OFFCURVE",
"236 257 CURVE SMOOTH",
"32 257 LINE SMOOTH",
"20 257 OFFCURVE",
"10 247 OFFCURVE",
"10 235 CURVE SMOOTH",
"13 78 OFFCURVE",
"162 -10 OFFCURVE",
"327 -10 CURVE SMOOTH"
);
}
);
};
hints = (
{
horizontal = 1;
place = "{-2147483648, 0}";
type = Tag;
name = hr00;
}
);
layerId = "510ED7C6-585D-40E1-B720-2BC29728E5DF";
name = "Dec 6 20, 14:56";
paths = (
{
closed = 1;
nodes = (
"509 -10 OFFCURVE",
"653 73 OFFCURVE",
"653 258 CURVE SMOOTH",
"653 673 LINE SMOOTH",
"653 688 OFFCURVE",
"641 700 OFFCURVE",
"626 700 CURVE SMOOTH",
"97 700 LINE SMOOTH",
"82 700 OFFCURVE",
"70 688 OFFCURVE",
"70 673 CURVE SMOOTH",
"70 524 LINE SMOOTH",
"70 509 OFFCURVE",
"82 497 OFFCURVE",
"97 497 CURVE SMOOTH",
"394 497 LINE",
"394 266 LINE SMOOTH",
"394 205 OFFCURVE",
"371 185 OFFCURVE",
"335 185 CURVE SMOOTH",
"302 185 OFFCURVE",
"290 198 OFFCURVE",
"277 225 CURVE SMOOTH",
"267 247 OFFCURVE",
"258 257 OFFCURVE",
"236 257 CURVE SMOOTH",
"32 257 LINE SMOOTH",
"20 257 OFFCURVE",
"10 247 OFFCURVE",
"10 235 CURVE SMOOTH",
"13 78 OFFCURVE",
"162 -10 OFFCURVE",
"327 -10 CURVE SMOOTH"
);
}
);
width = 702;
}
);
leftKerningGroup = J;
rightKerningGroup = U;
unicode = 004A;
userData = {
com.typemytype.robofont.guides = (
{
angle = 0;
isGlobal = 0;
magnetic = 5;
x = 0;
y = "-10";
},
{
angle = 0;
isGlobal = 0;
magnetic = 5;
x = 0;
y = 133;
},
{
angle = 0;
isGlobal = 0;
magnetic = 5;
x = 0;
y = 677;
},
{
angle = 90;
isGlobal = 0;
magnetic = 5;
x = 303;
y = 0;
},
{
angle = 90;
isGlobal = 0;
magnetic = 5;
x = 60;
y = 0;
},
{
angle = 90;
isGlobal = 0;
magnetic = 5;
x = 91;
y = 0;
}
);
};
},
{
color = 1;
glyphname = K;
layers = (
{
background = {
paths = (
{
closed = 1;
nodes = (
"273 0 LINE SMOOTH",
"288 0 OFFCURVE",
"300 12 OFFCURVE",
"300 27 CURVE SMOOTH",
"300 241 LINE",
"422 23 LINE SMOOTH",
"425 17 OFFCURVE",
"436 0 OFFCURVE",
"463 0 CURVE SMOOTH",
"691 0 LINE SMOOTH",
"703 0 OFFCURVE",
"713 10 OFFCURVE",
"713 22 CURVE SMOOTH",
"713 25 OFFCURVE",
"712 30 OFFCURVE",
"710 33 CURVE SMOOTH",
"513 365 LINE",
"693 667 LINE SMOOTH",
"695 670 OFFCURVE",
"696 674 OFFCURVE",
"696 678 CURVE SMOOTH",
"696 690 OFFCURVE",
"686 700 OFFCURVE",
"674 700 CURVE SMOOTH",
"453 700 LINE SMOOTH",
"431 700 OFFCURVE",
"419 689 OFFCURVE",
"413 678 CURVE SMOOTH",
"300 475 LINE",
"300 673 LINE SMOOTH",
"300 688 OFFCURVE",
"288 700 OFFCURVE",
"273 700 CURVE SMOOTH",
"82 700 LINE SMOOTH",
"67 700 OFFCURVE",
"55 688 OFFCURVE",
"55 673 CURVE SMOOTH",
"55 27 LINE SMOOTH",
"55 12 OFFCURVE",
"67 0 OFFCURVE",
"82 0 CURVE SMOOTH"
);
}
);
};
layerId = "EC64484B-0978-4CB1-9EE9-C40A2D8C4059";
paths = (
{
closed = 1;
nodes = (
"111.844 -5 LINE",
"141.688 20 LINE",
"173.521 -18 LINE",
"205.354 20 LINE",
"225.25 -13 LINE",
"245.146 20 LINE",
"276.006 10.937 LINE",
"280 42.852 LINE",
"294 64.648 LINE",
"280 86.444 LINE",
"297.5 128.056 LINE",
"280 169.667 LINE",
"302.858 204.249 LINE",
"291.1 244 LINE",
"303.614 211.433 LINE",
"338.476 212.762 LINE",
"337.739 182.625 LINE",
"363.857 167.571 LINE",
"372.151 124.216 LINE",
"404.857 94.571 LINE",
"386.718 61.52 LINE",
"424.381 59.81 LINE",
"442.207 26.894 LINE",
"479 20 LINE",
"521 -12 LINE",
"563 20 LINE",
"589 -18 LINE",
"615 20 LINE",
"643 -14 LINE",
"671 20 LINE",
"693.234 40.051 LINE",
"670.67 59.73 LINE",
"681.108 102.959 LINE",
"638.19 114.61 LINE",
"659.881 150.605 LINE",
"617.89 148.91 LINE",
"625.658 178.98 LINE",
"595.56 186.64 LINE",
"609.749 227.458 LINE",
"567.14 234.66 LINE",
"573.032 265.936 LINE",
"542.78 275.82 LINE",
"550.791 315.297 LINE",
"512.33 327.27 LINE",
"542.936 362.653 LINE",
"504.152 388.815 LINE",
"553.145 398.832 LINE",
"538.522 446.652 LINE",
"579.172 452.419 LINE",
"564.804 490.88 LINE",
"594.837 498.354 LINE",
"587.043 528.304 LINE",
"631.332 548.022 LINE",
"627.478 596.348 LINE",
"672.276 597.348 LINE",
"651.739 637.174 LINE",
"682.782 646.348 LINE",
"676 678 LINE",
"650.811 717.973 LINE",
"622.696 680 LINE",
"599.018 714 LINE",
"575.339 680 LINE",
"553.634 709 LINE",
"531.929 680 LINE",
"490.179 711.882 LINE",
"448.611 679.765 LINE",
"398.477 679.009 LINE",
"409.746 630.153 LINE",
"381.572 614.294 LINE",
"382.695 581.983 LINE",
"350.148 564.055 LINE",
"351.78 526.932 LINE",
"314.35 511.746 LINE",
"320.864 471.881 LINE",
"303.591 495.903 LINE",
"283.7 474 LINE",
"297.225 507.064 LINE",
"280 538.36 LINE",
"306.6 579.94 LINE",
"280 621.52 LINE",
"293.707 650.256 LINE",
"278.032 677.967 LINE",
"236.565 713.974 LINE",
"193.417 680 LINE",
"157.604 701 LINE",
"121.792 680 LINE",
"84.679 673.52 LINE",
"75 637.111 LINE",
"40 595.241 LINE",
"75 553.37 LINE",
"36 515.488 LINE",
"75 477.605 LINE",
"50 437.728 LINE",
"75 397.852 LINE",
"44 361.963 LINE",
"75 326.074 LINE",
"43 290.185 LINE",
"75 254.296 LINE",
"49 230.37 LINE",
"75 206.444 LINE",
"47 166.568 LINE",
"75 126.691 LINE",
"40 86.815 LINE",
"75 46.938 LINE"
);
},
{
closed = 1;
nodes = (
"334.11 306.574 LINE",
"283.273 277.223 LINE",
"235.171 335.883 LINE",
"295.081 370.782 LINE",
"365.211 368.624 LINE"
);
},
{
closed = 1;
nodes = (
"506.699 552.339 LINE",
"491.5 550.742 LINE",
"486.262 564.495 LINE",
"496.955 571.945 LINE",
"508.963 566.881 LINE"
);
},
{
closed = 1;
nodes = (
"542.321 113 LINE",
"522.297 110.284 LINE",
"510.082 121.432 LINE",
"517.679 139.444 LINE",
"536.147 133.037 LINE"
);
},
{
closed = 1;
nodes = (
"142.282 328.175 LINE",
"120.427 331.639 LINE",
"114.197 346.257 LINE",
"125.191 356.873 LINE",
"147.672 354.083 LINE"
);
},
{
closed = 1;
nodes = (
"476.642 147.199 LINE",
"428.657 150.321 LINE",
"394 176 LINE",
"424.639 214.042 LINE",
"465.316 196.572 LINE"
);
},
{
closed = 1;
nodes = (
"528.862 482.327 LINE",
"478.96 418.548 LINE",
"416.523 415.871 LINE",
"396.498 479.837 LINE",
"452.57 504.973 LINE"
);
},
{
closed = 1;
nodes = (
"155.996 183.529 LINE",
"139.525 149.573 LINE",
"96.234 161.057 LINE",
"109.833 198.444 LINE",
"142.348 222.766 LINE"
);
},
{
closed = 1;
nodes = (
"570.657 74.343 LINE",
"559.552 69.308 LINE",
"555.123 81.564 LINE",
"563.436 89.877 LINE",
"577.474 86.356 LINE"
);
},
{
closed = 1;
nodes = (
"247.257 144.048 LINE",
"238.898 112.559 LINE",
"208.216 120.381 LINE",
"199.82 147.365 LINE",
"225.093 167.927 LINE"
);
},
{
closed = 1;
nodes = (
"211.881 475.582 LINE",
"175.822 427.574 LINE",
"119.75 451.974 LINE",
"131.592 505.354 LINE",
"176.486 512.379 LINE"
);
},
{
closed = 1;
nodes = (
"612.188 609.584 LINE",
"602.07 606.49 LINE",
"597.001 615.14 LINE",
"601.199 627.432 LINE",
"610.734 619.015 LINE"
);
},
{
closed = 1;
nodes = (
"524.387 593.554 LINE",
"514.188 592.239 LINE",
"509.01 598.634 LINE",
"514.208 603.668 LINE",
"522.217 604.035 LINE"
);
},
{
closed = 1;
nodes = (
"163.607 620.481 LINE",
"136.657 608.321 LINE",
"118 634 LINE",
"138.202 654.923 LINE",
"166.843 649.87 LINE"
);
},
{
closed = 1;
nodes = (
"501.866 278.806 LINE",
"489.152 254.496 LINE",
"470.006 273.243 LINE",
"473.03 291.23 LINE",
"491.185 296.407 LINE"
);
}
);
width = 715;
},
{
associatedMasterId = "EC64484B-0978-4CB1-9EE9-C40A2D8C4059";
background = {
paths = (
{
closed = 1;
nodes = (
"273 0 LINE SMOOTH",
"288 0 OFFCURVE",
"300 12 OFFCURVE",
"300 27 CURVE SMOOTH",
"300 241 LINE",
"422 23 LINE SMOOTH",
"425 17 OFFCURVE",
"436 0 OFFCURVE",
"463 0 CURVE SMOOTH",
"691 0 LINE SMOOTH",
"703 0 OFFCURVE",
"713 10 OFFCURVE",
"713 22 CURVE SMOOTH",
"713 25 OFFCURVE",
"712 30 OFFCURVE",
"710 33 CURVE SMOOTH",
"513 365 LINE",
"693 667 LINE SMOOTH",
"695 670 OFFCURVE",
"696 674 OFFCURVE",
"696 678 CURVE SMOOTH",
"696 690 OFFCURVE",
"686 700 OFFCURVE",
"674 700 CURVE SMOOTH",
"453 700 LINE SMOOTH",
"431 700 OFFCURVE",
"419 689 OFFCURVE",
"413 678 CURVE SMOOTH",
"300 475 LINE",
"300 673 LINE SMOOTH",
"300 688 OFFCURVE",
"288 700 OFFCURVE",
"273 700 CURVE SMOOTH",
"82 700 LINE SMOOTH",
"67 700 OFFCURVE",
"55 688 OFFCURVE",
"55 673 CURVE SMOOTH",
"55 27 LINE SMOOTH",
"55 12 OFFCURVE",
"67 0 OFFCURVE",
"82 0 CURVE SMOOTH"
);
}
);
};
layerId = "23542D03-0D91-4768-932C-725F4E61089F";
name = "Dec 6 20, 14:56";
paths = (
{
closed = 1;
nodes = (
"273 0 LINE SMOOTH",
"288 0 OFFCURVE",
"300 12 OFFCURVE",
"300 27 CURVE SMOOTH",
"300 241 LINE",
"422 23 LINE SMOOTH",
"425 17 OFFCURVE",
"436 0 OFFCURVE",
"463 0 CURVE SMOOTH",
"691 0 LINE SMOOTH",
"703 0 OFFCURVE",
"713 10 OFFCURVE",
"713 22 CURVE SMOOTH",
"713 25 OFFCURVE",
"712 30 OFFCURVE",
"710 33 CURVE SMOOTH",
"513 365 LINE",
"693 667 LINE SMOOTH",
"695 670 OFFCURVE",
"696 674 OFFCURVE",
"696 678 CURVE SMOOTH",
"696 690 OFFCURVE",
"686 700 OFFCURVE",
"674 700 CURVE SMOOTH",
"453 700 LINE SMOOTH",
"431 700 OFFCURVE",
"419 689 OFFCURVE",
"413 678 CURVE SMOOTH",
"300 475 LINE",
"300 673 LINE SMOOTH",
"300 688 OFFCURVE",
"288 700 OFFCURVE",
"273 700 CURVE SMOOTH",
"82 700 LINE SMOOTH",
"67 700 OFFCURVE",
"55 688 OFFCURVE",
"55 673 CURVE SMOOTH",
"55 27 LINE SMOOTH",
"55 12 OFFCURVE",
"67 0 OFFCURVE",
"82 0 CURVE SMOOTH"
);
}
);
width = 715;
}
);
leftKerningGroup = I;
rightKerningGroup = K;
unicode = 004B;
userData = {
com.typemytype.robofont.guides = (
{
angle = 0;
isGlobal = 0;
magnetic = 5;
x = 0;
y = 365;
},
{
angle = 90;
isGlobal = 0;
magnetic = 5;
x = 547;
y = 0;
},
{
angle = 90;
isGlobal = 0;
magnetic = 5;
x = 94;
y = 0;
},
{
angle = 90;
isGlobal = 0;
magnetic = 5;
x = 139;
y = 0;
}
);
};
},
{
color = 1;
glyphname = L;
layers = (
{
anchors = (
{
name = bottom;
position = "{313, 0}";
},
{
name = center;
position = "{313, 350}";
},
{
name = top;
position = "{173, 700}";
},
{
name = topright;
position = "{606, 700}";
}
);
background = {
anchors = (
{
name = bottom;
position = "{313, 0}";
},
{
name = center;
position = "{313, 350}";
},
{
name = top;
position = "{173, 700}";
},
{
name = topright;
position = "{606, 700}";
}
);
paths = (
{
closed = 1;
nodes = (
"586 0 LINE SMOOTH",
"601 0 OFFCURVE",
"613 12 OFFCURVE",
"613 27 CURVE SMOOTH",
"613 178 LINE SMOOTH",
"613 193 OFFCURVE",
"601 205 OFFCURVE",
"586 205 CURVE SMOOTH",
"309 205 LINE",
"309 673 LINE SMOOTH",
"309 688 OFFCURVE",
"297 700 OFFCURVE",
"282 700 CURVE SMOOTH",
"82 700 LINE SMOOTH",
"67 700 OFFCURVE",
"55 688 OFFCURVE",
"55 673 CURVE SMOOTH",
"55 27 LINE SMOOTH",
"55 12 OFFCURVE",
"67 0 OFFCURVE",
"82 0 CURVE SMOOTH"
);
}
);
};
layerId = "EC64484B-0978-4CB1-9EE9-C40A2D8C4059";
paths = (
{
closed = 1;
nodes = (
"104 -2 LINE",
"126 20 LINE",
"160 -13 LINE",
"194 20 LINE",
"228 -9 LINE",
"262 20 LINE",
"304 -5 LINE",
"346 20 LINE",
"378 -12 LINE",
"410 20 LINE",
"448 -4 LINE",
"486 20 LINE",
"518 -8 LINE",
"550 20 LINE",
"580.402 -9.395 LINE",
"593 30.974 LINE",
"622 72.697 LINE",
"593 114.421 LINE",
"620.349 152.77 LINE",
"586 185 LINE",
"552.34 208 LINE",
"518.68 185 LINE",
"496.9 206 LINE",
"475.12 185 LINE",
"439.48 214 LINE",
"403.84 185 LINE",
"384.04 205 LINE",
"364.24 185 LINE",
"342.46 223 LINE",
"320.68 185 LINE",
"329.141 224.247 LINE",
"289 225 LINE",
"319 261 LINE",
"289 297 LINE",
"309 325 LINE",
"289 353 LINE",
"322 375 LINE",
"289 397 LINE",
"328 423 LINE",
"289 449 LINE",
"321 485 LINE",
"289 521 LINE",
"323 543 LINE",
"289 565 LINE",
"320 589 LINE",
"289 613 LINE",
"316 633 LINE",
"289 653 LINE",
"266.491 681.776 LINE",
"230 680 LINE",
"196 717 LINE",
"162 680 LINE",
"128 715 LINE",
"94 680 LINE",
"60.82 669.046 LINE",
"75 637.111 LINE",
"47 595.241 LINE",
"75 553.37 LINE",
"51 523.463 LINE",
"75 493.556 LINE",
"36 469.63 LINE",
"75 445.704 LINE",
"53 423.772 LINE",
"75 401.84 LINE",
"51 379.907 LINE",
"75 357.975 LINE",
"54 332.056 LINE",
"75 306.136 LINE",
"55 264.265 LINE",
"75 222.395 LINE",
"54 198.469 LINE",
"75 174.543 LINE",
"53 138.654 LINE",
"75 102.765 LINE",
"47 68.87 LINE",
"75 34.975 LINE"
);
},
{
closed = 1;
nodes = (
"224.988 275.032 LINE",
"150.882 273.089 LINE",
"129.487 345.836 LINE",
"191.012 382.991 LINE",
"236.859 339.326 LINE"
);
},
{
closed = 1;
nodes = (
"351.99 107.558 LINE",
"344.208 84.447 LINE",
"322.604 96.534 LINE",
"313.616 122.098 LINE",
"340.686 123.341 LINE"
);
},
{
closed = 1;
nodes = (
"249.287 50.396 LINE",
"231.737 41.787 LINE",
"223.002 58.756 LINE",
"230.163 78.856 LINE",
"249.778 68.629 LINE"
);
},
{
closed = 1;
nodes = (
"548.901 109.951 LINE",
"525.718 80.647 LINE",
"491.788 75.721 LINE",
"487.039 111.489 LINE",
"515.232 132.922 LINE"
);
},
{
closed = 1;
nodes = (
"212.778 111.222 LINE",
"200.006 109.199 LINE",
"191.172 121.19 LINE",
"202.497 134.803 LINE",
"220.147 126.718 LINE"
);
},
{
closed = 1;
nodes = (
"273.374 485.946 LINE",
"222.941 483.56 LINE",
"194.335 523.484 LINE",
"233.085 548.43 LINE",
"266.988 533.514 LINE"
);
},
{
closed = 1;
nodes = (
"132.803 529.871 LINE",
"128 521.072 LINE",
"117.978 521.312 LINE",
"119.432 530.034 LINE",
"124.627 533.967 LINE"
);
},
{
closed = 1;
nodes = (
"450.728 77.272 LINE",
"432.098 78.417 LINE",
"418.246 93.129 LINE",
"435.028 108.766 LINE",
"448.692 95.448 LINE"
);
},
{
closed = 1;
nodes = (
"90.371 540.655 LINE",
"80.106 543.215 LINE",
"78.52 554.299 LINE",
"89.177 557.733 LINE",
"93.983 549.488 LINE"
);
}
);
width = 626;
},
{
anchors = (
{
name = bottom;
position = "{313, 0}";
},
{
name = center;
position = "{313, 350}";
},
{
name = top;
position = "{173, 700}";
},
{
name = topright;
position = "{606, 700}";
}
);
associatedMasterId = "EC64484B-0978-4CB1-9EE9-C40A2D8C4059";
background = {
anchors = (
{
name = bottom;
position = "{313, 0}";
},
{
name = center;
position = "{313, 350}";
},
{
name = top;
position = "{173, 700}";
},
{
name = topright;
position = "{606, 700}";
}
);
paths = (
{
closed = 1;
nodes = (
"586 0 LINE SMOOTH",
"601 0 OFFCURVE",
"613 12 OFFCURVE",
"613 27 CURVE SMOOTH",
"613 178 LINE SMOOTH",
"613 193 OFFCURVE",
"601 205 OFFCURVE",
"586 205 CURVE SMOOTH",
"309 205 LINE",
"309 673 LINE SMOOTH",
"309 688 OFFCURVE",
"297 700 OFFCURVE",
"282 700 CURVE SMOOTH",
"82 700 LINE SMOOTH",
"67 700 OFFCURVE",
"55 688 OFFCURVE",
"55 673 CURVE SMOOTH",
"55 27 LINE SMOOTH",
"55 12 OFFCURVE",
"67 0 OFFCURVE",
"82 0 CURVE SMOOTH"
);
}
);
};
layerId = "0CC6E406-FF41-49C0-9FFB-ED42D4299402";
name = "Dec 6 20, 14:56";
paths = (
{
closed = 1;
nodes = (
"586 0 LINE SMOOTH",
"601 0 OFFCURVE",
"613 12 OFFCURVE",
"613 27 CURVE SMOOTH",
"613 178 LINE SMOOTH",
"613 193 OFFCURVE",
"601 205 OFFCURVE",
"586 205 CURVE SMOOTH",
"309 205 LINE",
"309 673 LINE SMOOTH",
"309 688 OFFCURVE",
"297 700 OFFCURVE",
"282 700 CURVE SMOOTH",
"82 700 LINE SMOOTH",
"67 700 OFFCURVE",
"55 688 OFFCURVE",
"55 673 CURVE SMOOTH",
"55 27 LINE SMOOTH",
"55 12 OFFCURVE",
"67 0 OFFCURVE",
"82 0 CURVE SMOOTH"
);
}
);
width = 626;
}
);
leftKerningGroup = I;
rightKerningGroup = L;
unicode = 004C;
},
{
color = 1;
glyphname = Lslash;
layers = (
{
background = {
paths = (
{
closed = 1;
nodes = (
"594 0 LINE SMOOTH",
"609 0 OFFCURVE",
"621 12 OFFCURVE",
"621 27 CURVE SMOOTH",
"621 178 LINE SMOOTH",
"621 193 OFFCURVE",
"609 205 OFFCURVE",
"594 205 CURVE SMOOTH",
"317 205 LINE",
"317 325 LINE",
"472 386 LINE SMOOTH",
"488 392 OFFCURVE",
"494 401 OFFCURVE",
"494 419 CURVE SMOOTH",
"494 527 LINE SMOOTH",
"494 539 OFFCURVE",
"485 548 OFFCURVE",
"473 548 CURVE SMOOTH",
"471 548 OFFCURVE",
"467 547 OFFCURVE",
"462 545 CURVE SMOOTH",
"317 488 LINE",
"317 673 LINE SMOOTH",
"317 688 OFFCURVE",
"305 700 OFFCURVE",
"290 700 CURVE SMOOTH",
"90 700 LINE SMOOTH",
"75 700 OFFCURVE",
"63 688 OFFCURVE",
"63 673 CURVE SMOOTH",
"63 388 LINE",
"35 377 LINE SMOOTH",
"19 371 OFFCURVE",
"13 362 OFFCURVE",
"13 344 CURVE SMOOTH",
"13 236 LINE SMOOTH",
"13 224 OFFCURVE",
"22 215 OFFCURVE",
"34 215 CURVE SMOOTH",
"36 215 OFFCURVE",
"40 216 OFFCURVE",
"45 218 CURVE SMOOTH",
"63 225 LINE",
"63 27 LINE SMOOTH",
"63 12 OFFCURVE",
"75 0 OFFCURVE",
"90 0 CURVE SMOOTH"
);
}
);
};
hints = (
{
horizontal = 1;
place = "{-2147483648, 0}";
type = Tag;
name = hr00;
}
);
layerId = "EC64484B-0978-4CB1-9EE9-C40A2D8C4059";
paths = (
{
closed = 1;
nodes = (
"116 -2 LINE",
"142 20 LINE",
"172 -18 LINE",
"202 20 LINE",
"232 -15 LINE",
"262 20 LINE",
"294 -4 LINE",
"326 20 LINE",
"352 -14 LINE",
"378 20 LINE",
"400 -3 LINE",
"422 20 LINE",
"458 -6 LINE",
"494 20 LINE",
"528 -15 LINE",
"562 20 LINE",
"594.553 22.786 LINE",
"601 54.816 LINE",
"623 76.671 LINE",
"601 98.526 LINE",
"638 118.395 LINE",
"601 138.263 LINE",
"616.224 171.595 LINE",
"582.12 185 LINE",
"552.42 221 LINE",
"522.72 185 LINE",
"491.04 208 LINE",
"459.36 185 LINE",
"421.74 222 LINE",
"384.12 185 LINE",
"344.52 206 LINE",
"304.92 185 LINE",
"336.849 209.793 LINE",
"297 216.59 LINE",
"320 238.308 LINE",
"297 260.026 LINE",
"317 299.513 LINE",
"297 339 LINE",
"325.824 330.017 LINE",
"340.826 356.217 LINE",
"382.478 330.679 LINE",
"395.609 377.739 LINE",
"447.189 362.326 LINE",
"472.715 409.723 LINE",
"505.35 439.69 LINE",
"474 471 LINE",
"502 493 LINE",
"474 515 LINE",
"439.905 548.048 LINE",
"417.766 506.043 LINE",
"376.874 524.456 LINE",
"359.213 483.234 LINE",
"323.119 488.406 LINE",
"297 462.963 LINE",
"323.6 484.759 LINE",
"297 506.556 LINE",
"320 544.204 LINE",
"297 581.852 LINE",
"336 603.648 LINE",
"297 625.444 LINE",
"311.298 661.01 LINE",
"278 680 LINE",
"240 715 LINE",
"202 680 LINE",
"160 711 LINE",
"118 680 LINE",
"83.978 663.125 LINE",
"83 625.16 LINE",
"54 589.28 LINE",
"83 553.4 LINE",
"55 531.473 LINE",
"83 509.547 LINE",
"58 485.627 LINE",
"83 461.707 LINE",
"45 437.787 LINE",
"83 413.867 LINE",
"40.664 403.007 LINE",
"65.917 367.333 LINE",
"34.768 345.817 LINE",
"33 308 LINE",
"9 286 LINE",
"33 264 LINE",
"14.067 234.711 LINE",
"48.385 240.923 LINE",
"59.299 205.131 LINE",
"83 234.088 LINE",
"48 198.246 LINE",
"83 162.404 LINE",
"59 140.5 LINE",
"83 118.596 LINE",
"46 86.737 LINE",
"83 54.877 LINE"
);
},
{
closed = 1;
nodes = (
"295.977 420.477 LINE",
"291.8 413.205 LINE",
"284.857 417.91 LINE",
"284.717 425.592 LINE",
"294.298 431.126 LINE"
);
},
{
closed = 1;
nodes = (
"179.273 545.682 LINE",
"153.325 523.044 LINE",
"122.159 546.2 LINE",
"141.384 575.967 LINE",
"167.586 570.543 LINE"
);
},
{
closed = 1;
nodes = (
"268.423 78.377 LINE",
"194.5 85.034 LINE",
"158.351 149.859 LINE",
"221.284 202.903 LINE",
"299.686 160.669 LINE"
);
},
{
closed = 1;
nodes = (
"248.834 307.983 LINE",
"211.775 293.01 LINE",
"185.085 323.559 LINE",
"206.14 360.306 LINE",
"247.578 349.14 LINE"
);
},
{
closed = 1;
nodes = (
"264.142 491.858 LINE",
"241.828 489.962 LINE",
"239.135 507.721 LINE",
"247.028 524.766 LINE",
"260.692 511.448 LINE"
);
},
{
closed = 1;
nodes = (
"159.502 367.955 LINE",
"146.667 366.379 LINE",
"137.276 378.862 LINE",
"150.294 389.896 LINE",
"164.688 381.917 LINE"
);
},
{
closed = 1;
nodes = (
"508.115 83.491 LINE",
"489.488 80.873 LINE",
"482.228 97.605 LINE",
"495.191 107.873 LINE",
"517.672 105.083 LINE"
);
},
{
closed = 1;
nodes = (
"460.483 79.43 LINE",
"424.006 54.394 LINE",
"391.379 71.926 LINE",
"402.029 102.971 LINE",
"433.528 114.512 LINE"
);
},
{
closed = 1;
nodes = (
"112.958 208.041 LINE",
"104.025 200.231 LINE",
"90.857 202.305 LINE",
"90.679 218.841 LINE",
"105.126 216.364 LINE"
);
},
{
closed = 1;
nodes = (
"100.865 355.279 LINE",
"91.408 348.111 LINE",
"77.526 350.644 LINE",
"80.101 366.899 LINE",
"94.086 365.019 LINE"
);
},
{
closed = 1;
nodes = (
"212.854 250.912 LINE",
"199.389 245.122 LINE",
"190.053 248.775 LINE",
"187.21 263.42 LINE",
"203.699 264.684 LINE"
);
},
{
closed = 1;
nodes = (
"273.156 612.212 LINE",
"259.616 606.007 LINE",
"248.465 613.692 LINE",
"255.526 623.632 LINE",
"266.157 624.88 LINE"
);
},
{
closed = 1;
nodes = (
"557.934 117.746 LINE",
"549.534 102.371 LINE",
"535.608 113 LINE",
"537.825 126.36 LINE",
"552.101 132.703 LINE"
);
}
);
width = 634;
},
{
associatedMasterId = "EC64484B-0978-4CB1-9EE9-C40A2D8C4059";
background = {
paths = (
{
closed = 1;
nodes = (
"594 0 LINE SMOOTH",
"609 0 OFFCURVE",
"621 12 OFFCURVE",
"621 27 CURVE SMOOTH",
"621 178 LINE SMOOTH",
"621 193 OFFCURVE",
"609 205 OFFCURVE",
"594 205 CURVE SMOOTH",
"317 205 LINE",
"317 325 LINE",
"472 386 LINE SMOOTH",
"488 392 OFFCURVE",
"494 401 OFFCURVE",
"494 419 CURVE SMOOTH",
"494 527 LINE SMOOTH",
"494 539 OFFCURVE",
"485 548 OFFCURVE",
"473 548 CURVE SMOOTH",
"471 548 OFFCURVE",
"467 547 OFFCURVE",
"462 545 CURVE SMOOTH",
"317 488 LINE",
"317 673 LINE SMOOTH",
"317 688 OFFCURVE",
"305 700 OFFCURVE",
"290 700 CURVE SMOOTH",
"90 700 LINE SMOOTH",
"75 700 OFFCURVE",
"63 688 OFFCURVE",
"63 673 CURVE SMOOTH",
"63 388 LINE",
"35 377 LINE SMOOTH",
"19 371 OFFCURVE",
"13 362 OFFCURVE",
"13 344 CURVE SMOOTH",
"13 236 LINE SMOOTH",
"13 224 OFFCURVE",
"22 215 OFFCURVE",
"34 215 CURVE SMOOTH",
"36 215 OFFCURVE",
"40 216 OFFCURVE",
"45 218 CURVE SMOOTH",
"63 225 LINE",
"63 27 LINE SMOOTH",
"63 12 OFFCURVE",
"75 0 OFFCURVE",
"90 0 CURVE SMOOTH"
);
}
);
};
hints = (
{
horizontal = 1;
place = "{-2147483648, 0}";
type = Tag;
name = hr00;
}
);
layerId = "A3A321B5-6934-4542-838C-A7F40EC80FF9";
name = "Dec 6 20, 14:56";
paths = (
{
closed = 1;
nodes = (
"594 0 LINE SMOOTH",
"609 0 OFFCURVE",
"621 12 OFFCURVE",
"621 27 CURVE SMOOTH",
"621 178 LINE SMOOTH",
"621 193 OFFCURVE",
"609 205 OFFCURVE",
"594 205 CURVE SMOOTH",
"317 205 LINE",
"317 325 LINE",
"472 386 LINE SMOOTH",
"488 392 OFFCURVE",
"494 401 OFFCURVE",
"494 419 CURVE SMOOTH",
"494 527 LINE SMOOTH",
"494 539 OFFCURVE",
"485 548 OFFCURVE",
"473 548 CURVE SMOOTH",
"471 548 OFFCURVE",
"467 547 OFFCURVE",
"462 545 CURVE SMOOTH",
"317 488 LINE",
"317 673 LINE SMOOTH",
"317 688 OFFCURVE",
"305 700 OFFCURVE",
"290 700 CURVE SMOOTH",
"90 700 LINE SMOOTH",
"75 700 OFFCURVE",
"63 688 OFFCURVE",
"63 673 CURVE SMOOTH",
"63 388 LINE",
"35 377 LINE SMOOTH",
"19 371 OFFCURVE",
"13 362 OFFCURVE",
"13 344 CURVE SMOOTH",
"13 236 LINE SMOOTH",
"13 224 OFFCURVE",
"22 215 OFFCURVE",
"34 215 CURVE SMOOTH",
"36 215 OFFCURVE",
"40 216 OFFCURVE",
"45 218 CURVE SMOOTH",
"63 225 LINE",
"63 27 LINE SMOOTH",
"63 12 OFFCURVE",
"75 0 OFFCURVE",
"90 0 CURVE SMOOTH"
);
}
);
width = 634;
}
);
leftKerningGroup = I;
rightKerningGroup = L;
unicode = 0141;
userData = {
com.typemytype.robofont.guides = (
{
angle = 0;
isGlobal = 0;
magnetic = 5;
x = 0;
y = 215;
},
{
angle = 0;
isGlobal = 0;
magnetic = 5;
x = 0;
y = 548;
},
{
angle = 0;
isGlobal = 0;
magnetic = 5;
x = 0;
y = 438;
},
{
angle = 0;
isGlobal = 0;
magnetic = 5;
x = 0;
y = 267;
},
{
angle = 0;
isGlobal = 0;
magnetic = 5;
x = 0;
y = 353;
},
{
angle = 90;
isGlobal = 0;
magnetic = 5;
x = 129;
y = 0;
},
{
angle = 90;
isGlobal = 0;
magnetic = 5;
x = 325;
y = 0;
},
{
angle = 90;
isGlobal = 0;
magnetic = 5;
x = "-5";
y = 0;
}
);
};
},
{
color = 1;
glyphname = M;
layers = (
{
background = {
paths = (
{
closed = 1;
nodes = (
"263 0 LINE SMOOTH",
"278 0 OFFCURVE",
"290 12 OFFCURVE",
"290 27 CURVE SMOOTH",
"290 301 LINE",
"356 193 LINE SMOOTH",
"363 182 OFFCURVE",
"373 168 OFFCURVE",
"393 168 CURVE SMOOTH",
"463 168 LINE SMOOTH",
"483 168 OFFCURVE",
"493 182 OFFCURVE",
"500 193 CURVE SMOOTH",
"566 301 LINE",
"566 27 LINE SMOOTH",
"566 12 OFFCURVE",
"578 0 OFFCURVE",
"593 0 CURVE SMOOTH",
"774 0 LINE SMOOTH",
"789 0 OFFCURVE",
"801 12 OFFCURVE",
"801 27 CURVE SMOOTH",
"801 673 LINE SMOOTH",
"801 688 OFFCURVE",
"789 700 OFFCURVE",
"774 700 CURVE SMOOTH",
"616 700 LINE SMOOTH",
"589 700 OFFCURVE",
"577 680 OFFCURVE",
"573 673 CURVE SMOOTH",
"428 433 LINE",
"283 673 LINE SMOOTH",
"279 680 OFFCURVE",
"267 700 OFFCURVE",
"240 700 CURVE SMOOTH",
"82 700 LINE SMOOTH",
"67 700 OFFCURVE",
"55 688 OFFCURVE",
"55 673 CURVE SMOOTH",
"55 27 LINE SMOOTH",
"55 12 OFFCURVE",
"67 0 OFFCURVE",
"82 0 CURVE SMOOTH"
);
}
);
};
hints = (
{
horizontal = 1;
place = "{-2147483648, 0}";
type = Tag;
name = hr00;
}
);
layerId = "EC64484B-0978-4CB1-9EE9-C40A2D8C4059";
paths = (
{
closed = 1;
nodes = (
"117.413 -2 LINE",
"152.826 20 LINE",
"194.141 -11 LINE",
"235.457 20 LINE",
"260.668 9.115 LINE",
"270 34.942 LINE",
"292 70.681 LINE",
"270 106.42 LINE",
"292 130.246 LINE",
"270 154.072 LINE",
"303 179.884 LINE",
"270 205.696 LINE",
"291 245.406 LINE",
"270 285.116 LINE",
"307.407 269.041 LINE",
"299.6 309 LINE",
"305.333 269.579 LINE",
"342.062 254.156 LINE",
"337.435 218.99 LINE",
"370.938 207.344 LINE",
"379.686 178.107 LINE",
"408.556 188 LINE",
"452.922 162.759 LINE",
"483 204 LINE",
"517.328 228.985 LINE",
"524.25 270.875 LINE",
"561.02 270.331 LINE",
"563.8 307 LINE",
"556.359 276.269 LINE",
"586 265.261 LINE",
"569.2 227.536 LINE",
"586 189.812 LINE",
"550 154.072 LINE",
"586 118.333 LINE",
"550 84.58 LINE",
"586 50.826 LINE",
"578.78 21.7 LINE",
"608.739 20 LINE",
"646.12 -15 LINE",
"683.5 20 LINE",
"716.946 -8 LINE",
"750.391 20 LINE",
"777.122 4.133 LINE",
"781 34.975 LINE",
"802 68.87 LINE",
"781 102.765 LINE",
"807 124.698 LINE",
"781 146.63 LINE",
"818 188.5 LINE",
"781 230.37 LINE",
"814 254.296 LINE",
"781 278.222 LINE",
"819 298.16 LINE",
"781 318.099 LINE",
"804 353.988 LINE",
"781 389.877 LINE",
"806 417.79 LINE",
"781 445.704 LINE",
"809 479.599 LINE",
"781 513.494 LINE",
"810 543.401 LINE",
"781 573.309 LINE",
"807 595.241 LINE",
"781 617.173 LINE",
"782.438 654.893 LINE",
"754.25 680 LINE",
"732.525 719 LINE",
"710.8 680 LINE",
"673.275 706 LINE",
"635.75 680 LINE",
"603.122 697.747 LINE",
"590 663 LINE",
"557.487 647.78 LINE",
"559.241 611.924 LINE",
"528.259 605.062 LINE",
"536.684 574.468 LINE",
"484.313 557.288 LINE",
"493.62 502.962 LINE",
"453.384 503.993 LINE",
"473.114 468.911 LINE",
"442.317 450.338 LINE",
"440.304 414.43 LINE",
"428 445.43 LINE",
"415.696 414.43 LINE",
"423.607 444.714 LINE",
"393.139 451.886 LINE",
"403.472 504.509 LINE",
"352.127 519.987 LINE",
"369.637 560.693 LINE",
"325.468 564.253 LINE",
"337.683 615.69 LINE",
"286.506 628.949 LINE",
"285.43 674.678 LINE",
"240 680 LINE",
"212.35 713 LINE",
"184.7 680 LINE",
"161 719 LINE",
"137.3 680 LINE",
"97.414 699.218 LINE",
"75 661.037 LINE",
"40 631.13 LINE",
"75 601.222 LINE",
"49 567.327 LINE",
"75 533.432 LINE",
"53 505.519 LINE",
"75 477.605 LINE",
"50 445.704 LINE",
"75 413.802 LINE",
"44 373.926 LINE",
"75 334.049 LINE",
"48 304.142 LINE",
"75 274.235 LINE",
"38 236.352 LINE",
"75 198.469 LINE",
"36 162.58 LINE",
"75 126.691 LINE",
"51 88.809 LINE",
"75 50.926 LINE"
);
},
{
closed = 1;
nodes = (
"630.683 477.628 LINE",
"599.326 449.023 LINE",
"551.955 470.241 LINE",
"574.605 516.944 LINE",
"613.657 510.213 LINE"
);
},
{
closed = 1;
nodes = (
"499.55 406.146 LINE",
"468.623 413.286 LINE",
"471 441.816 LINE",
"492.824 447.564 LINE",
"514.901 433.266 LINE"
);
},
{
closed = 1;
nodes = (
"176.974 608.499 LINE",
"142.269 581.162 LINE",
"113.274 596.02 LINE",
"111.148 627.854 LINE",
"146.997 645.708 LINE"
);
},
{
closed = 1;
nodes = (
"255.243 360.397 LINE",
"206.876 337.428 LINE",
"167.699 373.012 LINE",
"196.568 411.903 LINE",
"231.756 400.422 LINE"
);
},
{
closed = 1;
nodes = (
"131.864 226.112 LINE",
"100.317 235.645 LINE",
"101.495 265.188 LINE",
"126.08 273.376 LINE",
"140.951 254.395 LINE"
);
},
{
closed = 1;
nodes = (
"729.996 178.102 LINE",
"665.384 175.205 LINE",
"654.218 230.919 LINE",
"689.466 285.842 LINE",
"752.413 244.6 LINE"
);
},
{
closed = 1;
nodes = (
"127.563 156.076 LINE",
"118.244 145.002 LINE",
"106.654 155.093 LINE",
"108.371 171.778 LINE",
"127.177 172.106 LINE"
);
},
{
closed = 1;
nodes = (
"410.988 344.529 LINE",
"403.553 339.204 LINE",
"393.613 339.554 LINE",
"396.56 349.405 LINE",
"405.225 353.402 LINE"
);
},
{
closed = 1;
nodes = (
"663.945 549.955 LINE",
"655.247 545.131 LINE",
"646.206 546.5 LINE",
"646.569 557.691 LINE",
"658.067 560.135 LINE"
);
},
{
closed = 1;
nodes = (
"658.5 36.938 LINE",
"650.316 37.798 LINE",
"650.432 45.034 LINE",
"655.732 49.962 LINE",
"664.781 45.079 LINE"
);
},
{
closed = 1;
nodes = (
"257.873 141.943 LINE",
"243.82 140.714 LINE",
"239.282 153.474 LINE",
"248.867 163.951 LINE",
"261.046 155.689 LINE"
);
},
{
closed = 1;
nodes = (
"741.985 41.576 LINE",
"734.942 30.731 LINE",
"719.343 31.56 LINE",
"720.936 47.536 LINE",
"733.329 49.693 LINE"
);
},
{
closed = 1;
nodes = (
"747.838 454.269 LINE",
"737.453 418.642 LINE",
"702.993 425.512 LINE",
"671.076 463.443 LINE",
"720.396 485.976 LINE"
);
},
{
closed = 1;
nodes = (
"718.359 630.823 LINE",
"702.358 629.509 LINE",
"700.874 645.495 LINE",
"712.767 651.973 LINE",
"723.644 643.903 LINE"
);
}
);
width = 856;
},
{
associatedMasterId = "EC64484B-0978-4CB1-9EE9-C40A2D8C4059";
background = {
paths = (
{
closed = 1;
nodes = (
"263 0 LINE SMOOTH",
"278 0 OFFCURVE",
"290 12 OFFCURVE",
"290 27 CURVE SMOOTH",
"290 301 LINE",
"356 193 LINE SMOOTH",
"363 182 OFFCURVE",
"373 168 OFFCURVE",
"393 168 CURVE SMOOTH",
"463 168 LINE SMOOTH",
"483 168 OFFCURVE",
"493 182 OFFCURVE",
"500 193 CURVE SMOOTH",
"566 301 LINE",
"566 27 LINE SMOOTH",
"566 12 OFFCURVE",
"578 0 OFFCURVE",
"593 0 CURVE SMOOTH",
"774 0 LINE SMOOTH",
"789 0 OFFCURVE",
"801 12 OFFCURVE",
"801 27 CURVE SMOOTH",
"801 673 LINE SMOOTH",
"801 688 OFFCURVE",
"789 700 OFFCURVE",
"774 700 CURVE SMOOTH",
"616 700 LINE SMOOTH",
"589 700 OFFCURVE",
"577 680 OFFCURVE",
"573 673 CURVE SMOOTH",
"428 433 LINE",
"283 673 LINE SMOOTH",
"279 680 OFFCURVE",
"267 700 OFFCURVE",
"240 700 CURVE SMOOTH",
"82 700 LINE SMOOTH",
"67 700 OFFCURVE",
"55 688 OFFCURVE",
"55 673 CURVE SMOOTH",
"55 27 LINE SMOOTH",
"55 12 OFFCURVE",
"67 0 OFFCURVE",
"82 0 CURVE SMOOTH"
);
}
);
};
hints = (
{
horizontal = 1;
place = "{-2147483648, 0}";
type = Tag;
name = hr00;
}
);
layerId = "E66656D3-03A3-4FF8-9AF3-78C1ECE6B43A";
name = "Dec 6 20, 14:56";
paths = (
{
closed = 1;
nodes = (
"263 0 LINE SMOOTH",
"278 0 OFFCURVE",
"290 12 OFFCURVE",
"290 27 CURVE SMOOTH",
"290 301 LINE",
"356 193 LINE SMOOTH",
"363 182 OFFCURVE",
"373 168 OFFCURVE",
"393 168 CURVE SMOOTH",
"463 168 LINE SMOOTH",
"483 168 OFFCURVE",
"493 182 OFFCURVE",
"500 193 CURVE SMOOTH",
"566 301 LINE",
"566 27 LINE SMOOTH",
"566 12 OFFCURVE",
"578 0 OFFCURVE",
"593 0 CURVE SMOOTH",
"774 0 LINE SMOOTH",
"789 0 OFFCURVE",
"801 12 OFFCURVE",
"801 27 CURVE SMOOTH",
"801 673 LINE SMOOTH",
"801 688 OFFCURVE",
"789 700 OFFCURVE",
"774 700 CURVE SMOOTH",
"616 700 LINE SMOOTH",
"589 700 OFFCURVE",
"577 680 OFFCURVE",
"573 673 CURVE SMOOTH",
"428 433 LINE",
"283 673 LINE SMOOTH",
"279 680 OFFCURVE",
"267 700 OFFCURVE",
"240 700 CURVE SMOOTH",
"82 700 LINE SMOOTH",
"67 700 OFFCURVE",
"55 688 OFFCURVE",
"55 673 CURVE SMOOTH",
"55 27 LINE SMOOTH",
"55 12 OFFCURVE",
"67 0 OFFCURVE",
"82 0 CURVE SMOOTH"
);
}
);
width = 856;
}
);
leftKerningGroup = I;
rightKerningGroup = I;
unicode = 004D;
userData = {
com.typemytype.robofont.guides = (
{
angle = 0;
isGlobal = 0;
magnetic = 5;
x = 0;
y = 168;
},
{
angle = 0;
isGlobal = 0;
magnetic = 5;
x = 0;
y = 9;
},
{
angle = 0;
isGlobal = 0;
magnetic = 5;
x = 0;
y = 691;
},
{
angle = 90;
isGlobal = 0;
magnetic = 5;
x = 126;
y = 0;
},
{
angle = 90;
isGlobal = 0;
magnetic = 5;
x = 636;
y = 0;
}
);
};
},
{
color = 1;
glyphname = N;
layers = (
{
anchors = (
{
name = bottom;
position = "{370, 0}";
},
{
name = top;
position = "{370, 700}";
}
);
background = {
anchors = (
{
name = bottom;
position = "{370, 0}";
},
{
name = top;
position = "{370, 700}";
}
);
paths = (
{
closed = 1;
nodes = (
"263 0 LINE SMOOTH",
"278 0 OFFCURVE",
"290 12 OFFCURVE",
"290 27 CURVE SMOOTH",
"290 278 LINE",
"459 23 LINE SMOOTH",
"463 17 OFFCURVE",
"473 0 OFFCURVE",
"500 0 CURVE SMOOTH",
"658 0 LINE SMOOTH",
"673 0 OFFCURVE",
"685 12 OFFCURVE",
"685 27 CURVE SMOOTH",
"685 673 LINE SMOOTH",
"685 688 OFFCURVE",
"673 700 OFFCURVE",
"658 700 CURVE SMOOTH",
"477 700 LINE SMOOTH",
"462 700 OFFCURVE",
"450 688 OFFCURVE",
"450 673 CURVE SMOOTH",
"450 400 LINE",
"281 677 LINE SMOOTH",
"277 684 OFFCURVE",
"267 700 OFFCURVE",
"240 700 CURVE SMOOTH",
"82 700 LINE SMOOTH",
"67 700 OFFCURVE",
"55 688 OFFCURVE",
"55 673 CURVE SMOOTH",
"55 27 LINE SMOOTH",
"55 12 OFFCURVE",
"67 0 OFFCURVE",
"82 0 CURVE SMOOTH"
);
}
);
};
layerId = "EC64484B-0978-4CB1-9EE9-C40A2D8C4059";
paths = (
{
closed = 1;
nodes = (
"105.609 -1 LINE",
"129.217 20 LINE",
"150.859 -8 LINE",
"172.5 20 LINE",
"203.978 -5 LINE",
"235.457 20 LINE",
"260.607 0.715 LINE",
"270 30.984 LINE",
"308 56.881 LINE",
"270 82.778 LINE",
"291 108.675 LINE",
"270 134.571 LINE",
"288.9 164.452 LINE",
"270 194.333 LINE",
"293.8 228.198 LINE",
"270 262.063 LINE",
"305.32 249.877 LINE",
"299.6 286.8 LINE",
"302.454 241.265 LINE",
"346.506 229.39 LINE",
"351.159 191.959 LINE",
"383.818 173.091 LINE",
"388.331 130.802 LINE",
"425.519 110.169 LINE",
"416.752 78.144 LINE",
"449.662 73.74 LINE",
"435.57 27.415 LINE",
"483.9 24.444 LINE",
"515.192 -14.698 LINE",
"551.35 20 LINE",
"573.075 -4 LINE",
"594.8 20 LINE",
"624.425 -2 LINE",
"654.05 20 LINE",
"679.077 41.223 LINE",
"665 70.864 LINE",
"699 110.741 LINE",
"665 150.617 LINE",
"700 186.506 LINE",
"665 222.395 LINE",
"689 246.321 LINE",
"665 270.247 LINE",
"702 298.16 LINE",
"665 326.074 LINE",
"693 353.988 LINE",
"665 381.901 LINE",
"685 421.778 LINE",
"665 461.654 LINE",
"694 485.58 LINE",
"665 509.506 LINE",
"700 541.407 LINE",
"665 573.309 LINE",
"700 593.247 LINE",
"665 613.185 LINE",
"688 637.111 LINE",
"665 661.037 LINE",
"648.257 692.788 LINE",
"614.717 680 LINE",
"577.337 707 LINE",
"539.957 680 LINE",
"520.283 702 LINE",
"500.609 680 LINE",
"473.781 679.779 LINE",
"470 653.217 LINE",
"445.5 619.587 LINE",
"470 585.957 LINE",
"444.1 556.283 LINE",
"470 526.609 LINE",
"443.4 502.87 LINE",
"470 479.13 LINE",
"451.1 453.413 LINE",
"470 427.696 LINE",
"434.761 428.417 LINE",
"430.939 393.378 LINE",
"434.378 418.654 LINE",
"410.329 427.159 LINE",
"402.433 471.013 LINE",
"367.049 498.098 LINE",
"369.622 527.48 LINE",
"342.317 538.634 LINE",
"343.055 583.121 LINE",
"303.159 602.817 LINE",
"321.701 639.625 LINE",
"280.488 639.976 LINE",
"289.847 669.691 LINE",
"258.906 673.33 LINE",
"227.37 714.495 LINE",
"188.65 680 LINE",
"151.125 705 LINE",
"113.6 680 LINE",
"78.896 675.834 LINE",
"75 641.099 LINE",
"55 611.191 LINE",
"75 581.284 LINE",
"42 543.401 LINE",
"75 505.519 LINE",
"52 475.611 LINE",
"75 445.704 LINE",
"38 419.784 LINE",
"75 393.864 LINE",
"40 369.938 LINE",
"75 346.012 LINE",
"39 306.136 LINE",
"75 266.259 LINE",
"51 232.364 LINE",
"75 198.469 LINE",
"37 164.574 LINE",
"75 130.679 LINE",
"51 104.759 LINE",
"75 78.84 LINE"
);
},
{
closed = 1;
nodes = (
"286.019 296.914 LINE",
"276.592 292.111 LINE",
"272.074 300.061 LINE",
"275.276 306.346 LINE",
"282.95 305.95 LINE"
);
},
{
closed = 1;
nodes = (
"567.026 218.8 LINE",
"523.214 212.453 LINE",
"508.295 255.835 LINE",
"543.325 277.956 LINE",
"573.941 257.109 LINE"
);
},
{
closed = 1;
nodes = (
"556.03 472.532 LINE",
"538.973 472.02 LINE",
"533.817 488.884 LINE",
"548.332 502.997 LINE",
"563.301 488.678 LINE"
);
},
{
closed = 1;
nodes = (
"551.725 107.929 LINE",
"530.263 95.926 LINE",
"523.289 121.299 LINE",
"539.912 132.854 LINE",
"559.077 126.329 LINE"
);
},
{
closed = 1;
nodes = (
"303.488 445.045 LINE",
"264.654 328.712 LINE",
"154.203 361.114 LINE",
"110.426 464.417 LINE",
"216.716 522.619 LINE"
);
},
{
closed = 1;
nodes = (
"569.603 302.87 LINE",
"535.36 313.53 LINE",
"538.274 345.98 LINE",
"564.513 351.225 LINE",
"574.99 332.558 LINE"
);
},
{
closed = 1;
nodes = (
"233.272 147.881 LINE",
"213.042 147.104 LINE",
"207.874 169.452 LINE",
"227.95 176.881 LINE",
"237.78 163.29 LINE"
);
},
{
closed = 1;
nodes = (
"360.94 291.15 LINE",
"356.915 274.47 LINE",
"337.367 278.625 LINE",
"341.34 295 LINE",
"352.079 299.781 LINE"
);
},
{
closed = 1;
nodes = (
"574.932 589.569 LINE",
"565.596 567.749 LINE",
"540.396 573.567 LINE",
"539 598.816 LINE",
"559.699 599.692 LINE"
);
},
{
closed = 1;
nodes = (
"519.825 648.495 LINE",
"504.778 635.243 LINE",
"483.458 641.141 LINE",
"487.613 664.893 LINE",
"508.576 664.482 LINE"
);
},
{
closed = 1;
nodes = (
"224.557 564.245 LINE",
"213.836 560.288 LINE",
"210.137 571.563 LINE",
"218.026 576.932 LINE",
"225.292 573.069 LINE"
);
},
{
closed = 1;
nodes = (
"174.105 130.854 LINE",
"125.427 109.156 LINE",
"101.718 143.701 LINE",
"104.793 190.287 LINE",
"145.401 168.868 LINE"
);
},
{
closed = 1;
nodes = (
"213.792 652.332 LINE",
"205.006 651.336 LINE",
"206.968 660.268 LINE",
"214.071 664.727 LINE",
"220.988 657.471 LINE"
);
},
{
closed = 1;
nodes = (
"249.113 28.464 LINE",
"218.887 41.255 LINE",
"211.285 72.451 LINE",
"243.299 84.282 LINE",
"260.909 59.092 LINE"
);
},
{
closed = 1;
nodes = (
"528.62 396.215 LINE",
"518.559 400.085 LINE",
"514.35 407.339 LINE",
"521.808 415.998 LINE",
"527.673 406.953 LINE"
);
},
{
closed = 1;
nodes = (
"211.539 210.735 LINE",
"180.145 199.954 LINE",
"182.529 233.867 LINE",
"203.674 249.942 LINE",
"234.02 233.983 LINE"
);
},
{
closed = 1;
nodes = (
"375.881 353.95 LINE",
"372.679 324.811 LINE",
"346.104 339.042 LINE",
"339.884 363.151 LINE",
"364.961 377.522 LINE"
);
}
);
width = 740;
},
{
anchors = (
{
name = bottom;
position = "{370, 0}";
},
{
name = top;
position = "{370, 700}";
}
);
associatedMasterId = "EC64484B-0978-4CB1-9EE9-C40A2D8C4059";
background = {
anchors = (
{
name = bottom;
position = "{370, 0}";
},
{
name = top;
position = "{370, 700}";
}
);
paths = (
{
closed = 1;
nodes = (
"263 0 LINE SMOOTH",
"278 0 OFFCURVE",
"290 12 OFFCURVE",
"290 27 CURVE SMOOTH",
"290 278 LINE",
"459 23 LINE SMOOTH",
"463 17 OFFCURVE",
"473 0 OFFCURVE",
"500 0 CURVE SMOOTH",
"658 0 LINE SMOOTH",
"673 0 OFFCURVE",
"685 12 OFFCURVE",
"685 27 CURVE SMOOTH",
"685 673 LINE SMOOTH",
"685 688 OFFCURVE",
"673 700 OFFCURVE",
"658 700 CURVE SMOOTH",
"477 700 LINE SMOOTH",
"462 700 OFFCURVE",
"450 688 OFFCURVE",
"450 673 CURVE SMOOTH",
"450 400 LINE",
"281 677 LINE SMOOTH",
"277 684 OFFCURVE",
"267 700 OFFCURVE",
"240 700 CURVE SMOOTH",
"82 700 LINE SMOOTH",
"67 700 OFFCURVE",
"55 688 OFFCURVE",
"55 673 CURVE SMOOTH",
"55 27 LINE SMOOTH",
"55 12 OFFCURVE",
"67 0 OFFCURVE",
"82 0 CURVE SMOOTH"
);
}
);
};
layerId = "9E1A80D6-27AF-4512-A4B4-90B2ED3A34A3";
name = "Dec 6 20, 14:56";
paths = (
{
closed = 1;
nodes = (
"263 0 LINE SMOOTH",
"278 0 OFFCURVE",
"290 12 OFFCURVE",
"290 27 CURVE SMOOTH",
"290 278 LINE",
"459 23 LINE SMOOTH",
"463 17 OFFCURVE",
"473 0 OFFCURVE",
"500 0 CURVE SMOOTH",
"658 0 LINE SMOOTH",
"673 0 OFFCURVE",
"685 12 OFFCURVE",
"685 27 CURVE SMOOTH",
"685 673 LINE SMOOTH",
"685 688 OFFCURVE",
"673 700 OFFCURVE",
"658 700 CURVE SMOOTH",
"477 700 LINE SMOOTH",
"462 700 OFFCURVE",
"450 688 OFFCURVE",
"450 673 CURVE SMOOTH",
"450 400 LINE",
"281 677 LINE SMOOTH",
"277 684 OFFCURVE",
"267 700 OFFCURVE",
"240 700 CURVE SMOOTH",
"82 700 LINE SMOOTH",
"67 700 OFFCURVE",
"55 688 OFFCURVE",
"55 673 CURVE SMOOTH",
"55 27 LINE SMOOTH",
"55 12 OFFCURVE",
"67 0 OFFCURVE",
"82 0 CURVE SMOOTH"
);
}
);
width = 740;
}
);
leftKerningGroup = I;
rightKerningGroup = I;
unicode = 004E;
userData = {
com.typemytype.robofont.guides = (
{
angle = 0;
isGlobal = 0;
magnetic = 5;
x = 0;
y = 9;
},
{
angle = 0;
isGlobal = 0;
magnetic = 5;
x = 0;
y = 691;
},
{
angle = 90;
isGlobal = 0;
magnetic = 5;
x = 540;
y = 0;
},
{
angle = 90;
isGlobal = 0;
magnetic = 5;
x = 125;
y = 0;
}
);
};
},
